<svg xmlns="http://www.w3.org/2000/svg" viewBox="0 0 263.089 250.03"><defs/><defs><clipPath id="a"><path d="M822.816 612.221l.417-1.792-1.2-2.8-3.559-2.037-4.295-.294-6.184 3.387-2.945 5.129-1.35 4.368 1.988 1.988c-.687.466-1.374.933-2.086 1.448l3.828 2.209c6.013-4.295 10.627-6.626 17.719-10.307z" transform="translate(-803.6 -605.3)"/></clipPath><clipPath id="b"><path d="M499.591 290.839l-.025-5.939L467 303.723l.025 5.939 10.038-5.792.442.393 7.927 2.037 6.651-.908 3.387-5.056s-.123-4.393-.147-7.019z" transform="translate(-467 -284.9)"/></clipPath></defs><path fill="#d8e1e6" d="M93.111 148.48l5.792 2.258-50.237 29.18-6.43-7.043-10.6-2.724 10.136-5.424z"/><path fill="#fee47f" d="M37.426 112.158l10.209 1.669 2.871 5.939 42.825-24.738-10.205-1.669-2.871-5.939z"/><path fill="#fec007" d="M39.414 111.79l40.543-23.413 2.552 5.276.147.319.344.049 8.344 1.374-40.543 23.413-2.552-5.276-.172-.319-.344-.049z"/><path fill="#fe9f00" d="M67.538 109.139l12.418-20.762 4.81 10.823z"/><path fill="#feb200" d="M93.331 95.028l4.123 55.857-48.764 28.149 1.816-59.268zM37.426 112.158l-4.148 57.943 9.3 2.331 5.056-58.606z"/><path fill="#fe9f00" d="M47.636 113.827l-5.056 58.605 6.111 6.6 1.816-59.268zM82.656 93.973l.344.049 8.344 1.374-8.835 5.1z"/><path fill="#fe8e00" d="M79.957 88.377l2.552 5.276.147.319-.147 6.528-2.577 1.477z"/><path fill="#fec007" d="M35.978 170.764l11.657-56.937-5.057 58.605z"/><path fill="#dbdbdb" d="M72.275 138.467h.123c8.663-.294 10.111-25.352 10.185-34.088h-.687c-.074 8.2-1.546 33.524-9.547 33.794-6.234.2-8.663-16.026-9.179-22.357l-.687.049c.638 7.288 3.19 22.602 9.792 22.602z"/><path fill="#fff" d="M82.116 103.299a2.105 2.105 0 00-.957 1.644c0 .614.442.859.957.54a2.1 2.1 0 00.957-1.644c0-.589-.442-.834-.957-.54zM62.679 114.809a2.1 2.1 0 00-.957 1.644c0 .614.442.859.957.54a2.1 2.1 0 00.957-1.644c0-.609-.414-.859-.957-.54z"/><path fill="#f79826" d="M183.307 99.368c.589-4.049-1.374-7.632-4.491-8.491l-2.16-.614c3.141.884 5.1 4.442 4.491 8.491-.663 4.491-4.221 7.878-7.927 7.559a4.517 4.517 0 01-1.031-.2l2.16.614a7.62 7.62 0 001.031.2c3.71.324 7.265-3.059 7.927-7.559z"/><path fill="#feb200" d="M177.172 90.464c3.706.319 6.184 4.2 5.546 8.688-.663 4.491-4.221 7.878-7.927 7.559s-6.184-4.2-5.546-8.688c.663-4.467 4.197-7.853 7.927-7.559z"/><path fill="#fee47f" d="M178.178 92.699l-.2 1.4a2.379 2.379 0 01.834.393 2 2 0 01.589.687 2.742 2.742 0 01.295.957 3.823 3.823 0 01-.025 1.178l-1.841-.147a2.927 2.927 0 00.025-.638 1.3 1.3 0 00-.123-.466.625.625 0 00-.221-.27.7.7 0 00-.319-.1.9.9 0 00-.368.049 1.09 1.09 0 00-.27.2 1.323 1.323 0 00-.172.319 1.838 1.838 0 00-.1.393 2.39 2.39 0 00-.025.393 1.012 1.012 0 00.344.663 2.051 2.051 0 00.417.319 8.507 8.507 0 01.908.638 3.639 3.639 0 01.687.687 2.117 2.117 0 01.393.859 2.968 2.968 0 01.025 1.153 2.677 2.677 0 01-.319 1.031 2.923 2.923 0 01-.564.761 2.837 2.837 0 01-.785.491 3.02 3.02 0 01-.957.2l-.2 1.325-.884-.074.2-1.325a2.761 2.761 0 01-.884-.344 2.193 2.193 0 01-.712-.638 2.492 2.492 0 01-.417-1.006 3.807 3.807 0 010-1.4l1.841.147a2.556 2.556 0 00-.025.736 1.284 1.284 0 00.172.491.624.624 0 00.294.27 1.03 1.03 0 00.393.1.838.838 0 00.368-.049.7.7 0 00.27-.2 1.237 1.237 0 00.2-.295 1.839 1.839 0 00.1-.393 3.3 3.3 0 00.025-.466 1.086 1.086 0 00-.123-.368 1.4 1.4 0 00-.245-.319 2.717 2.717 0 00-.393-.295c-.344-.2-.638-.417-.932-.614a3.041 3.041 0 01-.687-.687 2.117 2.117 0 01-.393-.859 3.544 3.544 0 01-.025-1.153 2.693 2.693 0 01.319-1.006 2.266 2.266 0 01.589-.761 2.471 2.471 0 01.81-.491 3.174 3.174 0 01.982-.2l.2-1.374z"/><path fill="#fff" d="M169.687 100.722c.417 3.019 2.43 5.35 5.178 5.571 3.46.294 6.773-2.871 7.412-7.068a9.042 9.042 0 00-.025-2.822z" opacity=".3"/><path fill="#fee47f" d="M168.779 98.144c.761-5.2 4.884-9.13 9.179-8.761a4.955 4.955 0 011.2.221l-2.16-.614a9.464 9.464 0 00-1.2-.221c-4.295-.368-8.418 3.559-9.179 8.761-.687 4.712 1.6 8.835 5.2 9.841l2.16.614c-3.63-1.005-5.912-5.128-5.2-9.841z"/><path fill="#fed44f" d="M177.957 89.385c4.319.368 7.191 4.859 6.405 10.062-.761 5.2-4.884 9.13-9.179 8.761s-7.19-4.859-6.409-10.059c.765-5.181 4.864-9.108 9.183-8.764zm-2.577 17.547c3.706.319 7.264-3.068 7.927-7.559s-1.816-8.369-5.546-8.688c-3.706-.319-7.264 3.068-7.927 7.559s1.816 8.369 5.546 8.688z"/><g fill="#fff" opacity=".3"><path d="M169.588 95.251l-2.356-.123a10.6 10.6 0 00-.589 2.184l2.282-.1a13.182 13.182 0 01.663-1.961zM170.422 90.612a10.77 10.77 0 00-2.773 3.534l2.356.2a10.345 10.345 0 012.651-3.215z"/></g><path fill="#fff" d="M169.833 98.243c.663-4.491 4.221-7.878 7.927-7.559a5.668 5.668 0 014.148 2.405c.393-.172.785-.344 1.129-.491a6.627 6.627 0 00-5.1-3.19c-4.295-.368-8.418 3.559-9.179 8.761-.025.245-.074.491-.074.736.344-.147.736-.319 1.129-.491a.477.477 0 00.02-.171z" opacity=".3"/><g><path fill="#f79826" d="M169.082 79.527c-3.362-2.356-7.436-2.184-9.62.2l-1.5 1.644c2.184-2.405 6.258-2.552 9.62-.2 3.706 2.6 5.154 7.289 3.215 10.479a5.355 5.355 0 01-.638.834l1.5-1.644a7.475 7.475 0 00.638-.834c1.939-3.19.491-7.877-3.215-10.479z"/><path fill="#feb200" d="M158.382 81c1.939-3.19 6.528-3.657 10.234-1.055s5.154 7.289 3.215 10.479-6.528 3.657-10.234 1.055c-3.73-2.601-5.153-7.289-3.215-10.479z"/><path fill="#fee47f" d="M160.812 81.098l1.178.81a2.276 2.276 0 01.736-.564 2.6 2.6 0 01.884-.221 3.53 3.53 0 01.982.147 4.785 4.785 0 011.055.54l-.957 1.6a2.693 2.693 0 00-.564-.319 1.138 1.138 0 00-.466-.1.712.712 0 00-.344.074.78.78 0 00-.245.245.968.968 0 00-.123.344 1.241 1.241 0 00.049.319 2.051 2.051 0 00.2.294 2.935 2.935 0 00.294.27c.123.074.245.147.344.2a.564.564 0 00.344.049 1.219 1.219 0 00.393-.074 2.618 2.618 0 00.466-.221q.515-.295.957-.515a3.421 3.421 0 01.933-.294 2.515 2.515 0 01.957.025 3.607 3.607 0 011.816 1.227 2.423 2.423 0 01.417.834 2.25 2.25 0 01.074.908 3.282 3.282 0 01-.245.933l1.08.761-.466.736-1.1-.761a2.836 2.836 0 01-.687.638 2.292 2.292 0 01-.883.344 2.769 2.769 0 01-1.08-.074 3.677 3.677 0 01-1.252-.614l.957-1.571a2.145 2.145 0 00.663.344 1.373 1.373 0 00.515.074 1.084 1.084 0 00.393-.147 1.046 1.046 0 00.27-.294.731.731 0 00.123-.344.835.835 0 00-.049-.344.777.777 0 00-.2-.295 1.608 1.608 0 00-.295-.27 2.328 2.328 0 00-.417-.221.644.644 0 00-.368-.049.841.841 0 00-.393.1 1.86 1.86 0 00-.442.221 10.028 10.028 0 01-.957.54 3.347 3.347 0 01-.908.319 2.534 2.534 0 01-.957-.025 3.246 3.246 0 01-1.031-.491 3.117 3.117 0 01-.761-.736 2.533 2.533 0 01-.417-.859 2.371 2.371 0 01-.074-.933 2.812 2.812 0 01.27-.957l-1.153-.785z"/><path fill="#fff" d="M164.174 92.289c2.9.982 5.865.221 7.313-2.135 1.816-2.97.466-7.362-2.994-9.792a9.332 9.332 0 00-2.528-1.252z" opacity=".3"/><path fill="#fee47f" d="M161.475 91.97c-4.295-3.019-5.964-8.442-3.706-12.148a7.318 7.318 0 01.736-.982l-1.5 1.644a6.026 6.026 0 00-.736.982c-2.258 3.681-.589 9.13 3.706 12.148 3.878 2.724 8.614 2.552 11.142-.245l1.5-1.644c-2.528 2.773-7.24 2.969-11.142.245z"/><path fill="#fed44f" d="M157.765 79.822c2.258-3.681 7.559-4.246 11.878-1.227 4.295 3.019 5.964 8.442 3.706 12.148-2.258 3.681-7.559 4.221-11.878 1.227-4.291-3.019-5.96-8.467-3.706-12.148zm14.5 10.185c1.939-3.19.515-7.878-3.215-10.479-3.706-2.6-8.3-2.135-10.234 1.055s-.515 7.878 3.215 10.479c3.706 2.577 8.3 2.111 10.234-1.055z"/><g fill="#fff" opacity=".3"><path d="M159.241 89.933l-1.153 2.037a9.983 9.983 0 001.693 1.5l.957-2.086a10.481 10.481 0 01-1.497-1.451zM155.462 87.086a10.566 10.566 0 001.914 4.049l1.252-2.012a10.55 10.55 0 01-1.693-3.8z"/></g><path fill="#fff" d="M162.039 91.037c-3.706-2.6-5.154-7.289-3.215-10.479a5.584 5.584 0 014-2.626c.025-.442.049-.859.074-1.227a6.616 6.616 0 00-5.129 3.117c-2.258 3.681-.589 9.13 3.706 12.148.2.147.417.27.614.417.025-.393.049-.81.074-1.227z" opacity=".3"/></g><g><path fill="#d8e1e6" d="M162.77 222.543a15.441 15.441 0 00-13.989 0c-1.939 1.129-3.019 2.675-3.019 4.319 0 1.669 1.08 3.215 3.068 4.344a14.176 14.176 0 006.994 1.669 14.446 14.446 0 006.994-1.669c1.939-1.129 3.019-2.675 3.019-4.319.001-1.669-1.103-3.215-3.067-4.344z"/><path fill="#f79826" d="M164.047 223.255v3.141c0-1.227-.81-2.454-2.43-3.411a12.843 12.843 0 00-11.657 0c-1.6.933-2.405 2.135-2.405 3.362v-3.141c0-1.2.81-2.43 2.405-3.362a12.843 12.843 0 0111.657 0 4.15 4.15 0 012.43 3.411z"/><path fill="#feb200" d="M161.617 220.385c3.24 1.865 3.24 4.884.049 6.749a12.842 12.842 0 01-11.657 0c-3.239-1.865-3.239-4.884-.049-6.749a12.842 12.842 0 0111.657 0z"/><path fill="#fed44f" d="M165.347 223.255v3.141c0 1.4-.933 2.822-2.773 3.878a14.921 14.921 0 01-13.522 0c-1.89-1.08-2.822-2.5-2.822-3.951v-3.142c0 1.423.933 2.847 2.822 3.951a14.922 14.922 0 0013.522 0c1.841-1.08 2.773-2.479 2.773-3.878z"/><path fill="#fee47f" d="M157.2 221.194l-1.571.908a4.877 4.877 0 00-.515-.245 3.987 3.987 0 00-.466-.1 2.246 2.246 0 00-.417.025 1.42 1.42 0 00-.344.123 1.2 1.2 0 00-.245.2.33.33 0 00-.049.2.434.434 0 00.123.2 2.141 2.141 0 00.245.2 1.848 1.848 0 00.319.147 1.479 1.479 0 00.368.049 3.3 3.3 0 00.466-.025c.172-.025.368-.049.589-.1.442-.1.834-.2 1.227-.27a6.1 6.1 0 011.129-.123 4.6 4.6 0 011.031.1 3.664 3.664 0 01.982.368 2.255 2.255 0 01.614.515.984.984 0 01.2.564 1.046 1.046 0 01-.2.564 2.177 2.177 0 01-.589.565l.957.54-.736.442-.957-.54a5.5 5.5 0 01-.957.344 3.951 3.951 0 01-1.08.147 4.491 4.491 0 01-2.331-.589l1.571-.908a5.785 5.785 0 00.589.27 2.195 2.195 0 00.54.074 1.43 1.43 0 00.466-.074 1.908 1.908 0 00.393-.172.736.736 0 00.245-.221.25.25 0 00.049-.221.3.3 0 00-.1-.2 1.073 1.073 0 00-.245-.2 2.486 2.486 0 00-.368-.172 1.86 1.86 0 00-.393-.074 3.13 3.13 0 00-.466.025c-.172.025-.344.049-.564.1-.442.1-.834.2-1.227.27a6.08 6.08 0 01-1.1.123 3.676 3.676 0 01-1.031-.1 3.289 3.289 0 01-.982-.393 1.541 1.541 0 01-.589-.515.811.811 0 01-.172-.564.979.979 0 01.221-.589 2.835 2.835 0 01.614-.589l-.982-.564.736-.442 1.006.589a3.484 3.484 0 01.982-.295 3.655 3.655 0 011.031-.074 5.018 5.018 0 011.031.172 7.751 7.751 0 00.952.535z"/><path fill="#fff" d="M162.672 225.979l-14.013-4.049c-1.325 1.669-.785 3.706 1.6 5.08a12.167 12.167 0 0011.044 0 5.587 5.587 0 001.369-1.031z" opacity=".3"/><path fill="#fee47f" d="M162.529 219.304c3.755 2.16 3.755 5.669.049 7.829a14.921 14.921 0 01-13.522 0c-3.755-2.16-3.755-5.669-.049-7.829a14.921 14.921 0 0113.522 0zm-12.541 7.289a12.843 12.843 0 0011.657 0c3.215-1.865 3.19-4.884-.049-6.749a12.842 12.842 0 00-11.657 0c-3.19 1.865-3.19 4.884.049 6.749z"/><path fill="#fff" d="M160.831 227.01a12.973 12.973 0 01-10.847-.417c-1.693-.982-2.5-2.282-2.43-3.558l-1.276-.368c-.27 1.6.663 3.24 2.773 4.467a14.981 14.981 0 0013.032.245z" opacity=".3"/><g fill="#fff"><path d="M153.003 228.728a75.537 75.537 0 01-1.055-.221l-.736 2.5c.319.1.663.2 1.006.27zM150.818 230.863l.638-2.5a10.362 10.362 0 01-2.381-1.006 8.1 8.1 0 01-1.252-.883l.1 2.8a8.267 8.267 0 001.129.785 9.7 9.7 0 001.766.804z" opacity=".3"/></g></g><g><path fill="#d8e1e6" d="M124.729 213.733a15.441 15.441 0 00-13.989 0c-1.939 1.129-3.019 2.675-3.019 4.319 0 1.669 1.08 3.215 3.068 4.344a14.176 14.176 0 006.994 1.669 14.445 14.445 0 006.994-1.669c1.939-1.129 3.019-2.675 3.019-4.319.001-1.669-1.074-3.215-3.067-4.344z"/><path fill="#f79826" d="M126.006 214.444v3.141c0-1.227-.81-2.454-2.43-3.411a12.842 12.842 0 00-11.657 0c-1.6.933-2.405 2.135-2.405 3.362v-3.141c0-1.2.81-2.43 2.405-3.362a12.842 12.842 0 0111.657 0c1.62.957 2.43 2.184 2.43 3.411z"/><path fill="#feb200" d="M123.576 211.574c3.24 1.865 3.24 4.884.049 6.749a12.843 12.843 0 01-11.657 0c-3.239-1.865-3.239-4.884-.049-6.749a12.843 12.843 0 0111.657 0z"/><path fill="#fed44f" d="M127.306 214.445v3.141c0 1.4-.933 2.822-2.773 3.877a14.921 14.921 0 01-13.522 0c-1.89-1.08-2.822-2.5-2.822-3.951v-3.141c0 1.423.933 2.847 2.822 3.951a14.921 14.921 0 0013.522 0c1.865-1.055 2.773-2.454 2.773-3.878z"/><path fill="#fee47f" d="M119.159 212.407l-1.571.908a4.881 4.881 0 00-.515-.245 3.992 3.992 0 00-.466-.1 2.246 2.246 0 00-.417.025 1.42 1.42 0 00-.344.123 1.2 1.2 0 00-.245.2.33.33 0 00-.049.2.434.434 0 00.123.2 2.135 2.135 0 00.245.2 1.853 1.853 0 00.319.147 1.486 1.486 0 00.368.049 3.3 3.3 0 00.466-.025c.172-.025.368-.049.589-.1.442-.1.834-.2 1.227-.27a6.1 6.1 0 011.127-.134 4.6 4.6 0 011.031.1 3.663 3.663 0 01.982.368 2.252 2.252 0 01.614.515.983.983 0 01.2.564 1.046 1.046 0 01-.2.564 2.177 2.177 0 01-.589.564l.957.54-.736.442-.957-.54a5.5 5.5 0 01-.957.344 3.955 3.955 0 01-1.08.147 4.493 4.493 0 01-2.331-.589l1.571-.908a5.776 5.776 0 00.589.27 2.189 2.189 0 00.54.074 1.429 1.429 0 00.466-.074 1.9 1.9 0 00.393-.172.736.736 0 00.245-.221.25.25 0 00.049-.221.3.3 0 00-.1-.2 1.068 1.068 0 00-.245-.2 2.477 2.477 0 00-.368-.172 1.861 1.861 0 00-.393-.074 3.131 3.131 0 00-.466.025c-.172.025-.344.049-.564.1-.442.1-.834.2-1.227.27a6.074 6.074 0 01-1.1.123 3.676 3.676 0 01-1.031-.1 3.289 3.289 0 01-.982-.393 1.541 1.541 0 01-.589-.515.811.811 0 01-.172-.564.979.979 0 01.221-.589 2.838 2.838 0 01.614-.589l-.982-.564.736-.442 1.006.589a3.481 3.481 0 01.982-.295 3.654 3.654 0 011.031-.074 5.023 5.023 0 011.031.172c.34.228.659.376.954.547z"/><path fill="#fff" d="M124.631 217.169l-14.013-4.025c-1.325 1.669-.785 3.706 1.6 5.08a12.167 12.167 0 0011.044 0 5.207 5.207 0 001.369-1.055z" opacity=".3"/><path fill="#fee47f" d="M124.513 210.518c3.755 2.16 3.755 5.669.049 7.829a14.921 14.921 0 01-13.522 0c-3.755-2.16-3.755-5.669-.049-7.829a14.921 14.921 0 0113.522 0zm-12.565 7.289a12.842 12.842 0 0011.657 0c3.215-1.865 3.19-4.884-.049-6.749a12.842 12.842 0 00-11.657 0c-3.19 1.865-3.166 4.884.049 6.749z"/><path fill="#fff" d="M122.815 218.224a12.974 12.974 0 01-10.847-.417c-1.693-.982-2.5-2.282-2.43-3.559l-1.276-.368c-.27 1.6.663 3.239 2.773 4.467a14.981 14.981 0 0013.032.245z" opacity=".3"/><g fill="#fff"><path d="M114.962 219.917a75.537 75.537 0 01-1.055-.221l-.736 2.5c.319.1.663.2 1.006.27zM112.777 222.077l.638-2.5a10.366 10.366 0 01-2.381-1.006 8.1 8.1 0 01-1.252-.884l.1 2.8a8.278 8.278 0 001.129.785 11.7 11.7 0 001.766.805z" opacity=".3"/></g></g><g><path fill="#d8e1e6" d="M134.803 193.056a15.441 15.441 0 00-13.989 0c-1.939 1.129-3.019 2.675-3.019 4.319 0 1.669 1.08 3.215 3.068 4.344a14.175 14.175 0 006.994 1.669 14.445 14.445 0 006.994-1.669c1.939-1.129 3.019-2.675 3.019-4.319.001-1.669-1.074-3.215-3.067-4.344z"/><path fill="#f79826" d="M136.08 193.767v3.141c0-1.227-.81-2.454-2.43-3.411a12.842 12.842 0 00-11.657 0c-1.6.933-2.405 2.135-2.405 3.362v-3.141c0-1.2.81-2.43 2.405-3.362a12.843 12.843 0 0111.657 0c1.62.957 2.43 2.184 2.43 3.411z"/><path fill="#feb200" d="M133.65 190.897c3.24 1.865 3.24 4.884.049 6.749a12.843 12.843 0 01-11.657 0c-3.24-1.865-3.24-4.884-.049-6.749a12.843 12.843 0 0111.657 0z"/><path fill="#fed44f" d="M137.38 193.768v3.141c0 1.4-.933 2.822-2.773 3.878a14.921 14.921 0 01-13.522 0c-1.89-1.08-2.822-2.5-2.822-3.951v-3.142c0 1.423.933 2.847 2.822 3.951a14.921 14.921 0 0013.522 0c1.841-1.055 2.773-2.479 2.773-3.878z"/><path fill="#fee47f" d="M129.233 191.73l-1.571.908a4.877 4.877 0 00-.515-.245 3.985 3.985 0 00-.466-.1 2.245 2.245 0 00-.417.025 1.419 1.419 0 00-.344.123 1.191 1.191 0 00-.245.2.329.329 0 00-.049.2.337.337 0 00.123.2 2.146 2.146 0 00.245.2 1.842 1.842 0 00.319.147 1.479 1.479 0 00.368.049 3.3 3.3 0 00.466-.025c.172-.025.368-.049.589-.1.442-.1.834-.2 1.227-.27a6.1 6.1 0 011.129-.123 4.6 4.6 0 011.031.1 3.665 3.665 0 01.982.368 2.251 2.251 0 01.614.515.983.983 0 01.2.564 1.047 1.047 0 01-.2.564 2.178 2.178 0 01-.589.564l.957.54-.736.442-.957-.54a5.5 5.5 0 01-.957.344 3.951 3.951 0 01-1.08.147 4.492 4.492 0 01-2.331-.589l1.571-.908a5.732 5.732 0 00.589.27 2.189 2.189 0 00.54.074 1.43 1.43 0 00.466-.074 1.9 1.9 0 00.393-.172.737.737 0 00.245-.221.25.25 0 00.049-.221.3.3 0 00-.1-.2 1.069 1.069 0 00-.245-.2 2.476 2.476 0 00-.368-.172 1.862 1.862 0 00-.393-.074 3.13 3.13 0 00-.466.025c-.172.025-.344.049-.564.1-.442.1-.834.2-1.227.27a6.07 6.07 0 01-1.1.123 3.671 3.671 0 01-1.031-.1 3.289 3.289 0 01-.982-.393 1.543 1.543 0 01-.589-.515.812.812 0 01-.172-.564.979.979 0 01.221-.589 2.834 2.834 0 01.614-.589l-.982-.564.736-.442 1.006.589a3.488 3.488 0 01.982-.295 3.654 3.654 0 011.031-.074 5.017 5.017 0 011.031.172c.338.217.657.34.952.536z"/><path fill="#fff" d="M134.705 196.492l-14.013-4.025c-1.325 1.669-.785 3.706 1.6 5.08a12.166 12.166 0 0011.044 0 5.207 5.207 0 001.369-1.055z" opacity=".3"/><path fill="#fee47f" d="M134.562 189.841c3.755 2.16 3.755 5.669.049 7.829a14.921 14.921 0 01-13.522 0c-3.755-2.16-3.755-5.669-.049-7.829a14.921 14.921 0 0113.522 0zm-12.541 7.289a12.843 12.843 0 0011.657 0c3.215-1.865 3.19-4.884-.049-6.749a12.842 12.842 0 00-11.657 0c-3.19 1.841-3.166 4.884.049 6.749z"/><path fill="#fff" d="M132.864 197.522a12.974 12.974 0 01-10.847-.417c-1.693-.982-2.5-2.282-2.43-3.559l-1.276-.368c-.27 1.6.663 3.24 2.773 4.467a14.982 14.982 0 0013.032.245z" opacity=".3"/><g fill="#fff"><path d="M125.036 199.24a75.537 75.537 0 01-1.055-.221l-.736 2.5c.319.1.663.2 1.006.27zM122.851 201.375l.638-2.5a10.364 10.364 0 01-2.38-1.006 8.1 8.1 0 01-1.252-.884l.1 2.8a8.289 8.289 0 001.129.785 9.7 9.7 0 001.765.805z" opacity=".3"/></g><g><path fill="#f79826" d="M133.969 188.565v3.141c0-1.227-.81-2.454-2.43-3.411a12.843 12.843 0 00-11.657 0c-1.6.933-2.405 2.135-2.405 3.362v-3.141c0-1.2.81-2.43 2.405-3.362a12.843 12.843 0 0111.657 0 4.15 4.15 0 012.43 3.411z"/><path fill="#feb200" d="M131.54 185.695c3.24 1.865 3.24 4.884.049 6.749a12.843 12.843 0 01-11.657 0c-3.24-1.865-3.24-4.884-.049-6.749a12.842 12.842 0 0111.657 0z"/><path fill="#fed44f" d="M135.27 188.565v3.141c0 1.4-.933 2.822-2.773 3.878a14.921 14.921 0 01-13.522 0c-1.89-1.08-2.822-2.5-2.822-3.951v-3.142c0 1.423.933 2.847 2.822 3.951a14.921 14.921 0 0013.522 0c1.841-1.08 2.773-2.479 2.773-3.878z"/><path fill="#fee47f" d="M127.122 186.503l-1.571.908a4.905 4.905 0 00-.515-.245 3.991 3.991 0 00-.466-.1 2.246 2.246 0 00-.417.025 1.418 1.418 0 00-.344.123 1.192 1.192 0 00-.245.2.33.33 0 00-.049.2.338.338 0 00.123.2 2.135 2.135 0 00.245.2 1.848 1.848 0 00.319.147 1.486 1.486 0 00.368.049 3.306 3.306 0 00.466-.024c.172-.025.368-.049.589-.1.442-.1.834-.2 1.227-.27a6.105 6.105 0 011.129-.123 4.593 4.593 0 011.031.1 3.663 3.663 0 01.982.368 2.254 2.254 0 01.614.515.984.984 0 01.2.564 1.047 1.047 0 01-.2.564 2.174 2.174 0 01-.589.564l.957.54-.736.442-.957-.54a5.507 5.507 0 01-.957.344 3.955 3.955 0 01-1.08.147 4.494 4.494 0 01-2.331-.589l1.571-.908a5.77 5.77 0 00.589.27 2.189 2.189 0 00.54.074 1.429 1.429 0 00.466-.074 1.9 1.9 0 00.393-.172.737.737 0 00.245-.221.25.25 0 00.049-.221.3.3 0 00-.1-.2 1.069 1.069 0 00-.245-.2 2.484 2.484 0 00-.368-.172 1.86 1.86 0 00-.393-.074 3.13 3.13 0 00-.466.025c-.172.025-.344.049-.564.1-.442.1-.834.2-1.227.27a6.08 6.08 0 01-1.1.123 3.676 3.676 0 01-1.031-.1 3.289 3.289 0 01-.982-.393 1.541 1.541 0 01-.589-.515.811.811 0 01-.172-.564.979.979 0 01.221-.589 2.838 2.838 0 01.614-.589l-.982-.564.736-.442 1.006.589a3.481 3.481 0 01.982-.294 3.652 3.652 0 011.031-.074 5.027 5.027 0 011.031.172 7.723 7.723 0 00.952.534z"/><path fill="#fff" d="M132.594 191.289l-14.013-4.049c-1.325 1.669-.785 3.706 1.6 5.08a12.166 12.166 0 0011.044 0 5.587 5.587 0 001.369-1.031z" opacity=".3"/><path fill="#fee47f" d="M132.452 184.614c3.755 2.16 3.755 5.669.049 7.829a14.922 14.922 0 01-13.522 0c-3.755-2.16-3.755-5.669-.049-7.829a14.922 14.922 0 0113.522 0zm-12.541 7.289a12.843 12.843 0 0011.657 0c3.215-1.865 3.19-4.884-.049-6.749a12.843 12.843 0 00-11.657 0c-3.19 1.865-3.19 4.884.049 6.749z"/><path fill="#fff" d="M130.754 192.32a12.974 12.974 0 01-10.847-.417c-1.693-.982-2.5-2.282-2.43-3.558l-1.276-.368c-.27 1.6.663 3.24 2.773 4.467a14.981 14.981 0 0013.032.245z" opacity=".3"/><g fill="#fff"><path d="M122.926 194.038a75.537 75.537 0 01-1.055-.221l-.737 2.5c.319.1.663.2 1.006.27zM120.741 196.173l.638-2.5a10.367 10.367 0 01-2.381-1.006 8.1 8.1 0 01-1.252-.884l.1 2.8a8.277 8.277 0 001.129.785 9.7 9.7 0 001.766.805z" opacity=".3"/></g></g><g><path fill="#f79826" d="M135.662 183.313v3.141c0-1.227-.81-2.454-2.43-3.411a12.842 12.842 0 00-11.657 0c-1.6.933-2.405 2.135-2.405 3.362v-3.141c0-1.2.81-2.43 2.405-3.362a12.842 12.842 0 0111.657 0 4.149 4.149 0 012.43 3.411z"/><path fill="#feb200" d="M133.233 180.443c3.24 1.865 3.24 4.884.049 6.749a12.843 12.843 0 01-11.657 0c-3.24-1.865-3.24-4.884-.049-6.749a12.843 12.843 0 0111.657 0z"/><path fill="#fed44f" d="M136.963 183.313v3.141c0 1.4-.933 2.822-2.773 3.878a14.921 14.921 0 01-13.522 0c-1.89-1.08-2.822-2.5-2.822-3.951v-3.142c0 1.423.933 2.847 2.822 3.951a14.922 14.922 0 0013.522 0c1.865-1.055 2.773-2.479 2.773-3.878z"/><path fill="#fee47f" d="M128.815 181.275l-1.571.908a4.912 4.912 0 00-.515-.245 3.991 3.991 0 00-.466-.1 2.247 2.247 0 00-.417.025 1.422 1.422 0 00-.344.123 1.2 1.2 0 00-.245.2.33.33 0 00-.049.2.434.434 0 00.123.2 2.139 2.139 0 00.245.2 1.853 1.853 0 00.319.147 1.482 1.482 0 00.368.049 3.3 3.3 0 00.466-.025c.172-.025.368-.049.589-.1.442-.1.834-.2 1.227-.27a6.1 6.1 0 011.129-.123 4.6 4.6 0 011.031.1 3.664 3.664 0 01.982.368 2.253 2.253 0 01.614.515.984.984 0 01.2.564 1.046 1.046 0 01-.2.564 2.175 2.175 0 01-.589.564l.957.54-.736.442-.957-.54a5.5 5.5 0 01-.957.344 3.956 3.956 0 01-1.08.147 4.494 4.494 0 01-2.332-.589l1.571-.908a5.756 5.756 0 00.589.27 2.189 2.189 0 00.54.074 1.429 1.429 0 00.466-.074 1.9 1.9 0 00.393-.172.737.737 0 00.245-.221.25.25 0 00.049-.221.3.3 0 00-.1-.2 1.071 1.071 0 00-.245-.2 2.487 2.487 0 00-.368-.172 1.86 1.86 0 00-.393-.074 3.13 3.13 0 00-.466.025c-.172.025-.344.049-.564.1-.442.1-.834.2-1.227.27a6.079 6.079 0 01-1.1.123 3.676 3.676 0 01-1.031-.1 3.29 3.29 0 01-.982-.393 1.541 1.541 0 01-.589-.515.811.811 0 01-.172-.564.979.979 0 01.221-.589 2.837 2.837 0 01.614-.589l-.982-.564.736-.442 1.006.589a3.483 3.483 0 01.982-.294 3.654 3.654 0 011.031-.074 5.027 5.027 0 011.031.172c.339.216.658.339.953.535z"/><path fill="#fff" d="M134.288 186.037l-14.014-4.049c-1.325 1.669-.785 3.706 1.6 5.08a12.167 12.167 0 0011.044 0 4.69 4.69 0 001.37-1.031z" opacity=".3"/><path fill="#fee47f" d="M134.145 179.362c3.755 2.16 3.755 5.669.049 7.829a14.921 14.921 0 01-13.522 0c-3.755-2.16-3.755-5.669-.049-7.829a14.921 14.921 0 0113.522 0zm-12.541 7.289a12.842 12.842 0 0011.657 0c3.215-1.865 3.19-4.884-.049-6.749a12.842 12.842 0 00-11.657 0c-3.19 1.865-3.166 4.884.049 6.749z"/><path fill="#fff" d="M132.447 187.068a12.974 12.974 0 01-10.847-.417c-1.693-.982-2.5-2.282-2.43-3.559l-1.276-.368c-.27 1.6.663 3.24 2.773 4.467a14.982 14.982 0 0013.032.245z" opacity=".3"/><g fill="#fff"><path d="M124.619 188.786a75.537 75.537 0 01-1.055-.221l-.736 2.5c.319.1.663.2 1.006.27zM122.434 190.921l.638-2.5a10.361 10.361 0 01-2.381-1.006 8.1 8.1 0 01-1.252-.883l.1 2.8a8.289 8.289 0 001.129.785 9.709 9.709 0 001.766.804z" opacity=".3"/></g></g></g><g><path fill="#d8e1e6" d="M259.678 183.202a15.441 15.441 0 00-13.989 0c-1.939 1.129-3.019 2.675-3.019 4.319 0 1.669 1.08 3.215 3.068 4.344a14.175 14.175 0 006.994 1.669 14.446 14.446 0 006.994-1.669c1.939-1.129 3.019-2.675 3.019-4.319.001-1.669-1.074-3.194-3.067-4.344z"/><path fill="#f79826" d="M260.955 183.913v3.141c0-1.227-.81-2.454-2.43-3.411a12.842 12.842 0 00-11.657 0c-1.6.933-2.405 2.135-2.405 3.362v-3.141c0-1.2.81-2.43 2.405-3.362a12.842 12.842 0 0111.657 0c1.62.957 2.43 2.184 2.43 3.411z"/><path fill="#feb200" d="M258.525 181.068c3.24 1.865 3.24 4.884.049 6.749a12.842 12.842 0 01-11.657 0c-3.24-1.865-3.24-4.884-.049-6.749a12.842 12.842 0 0111.657 0z"/><path fill="#fed44f" d="M262.255 183.914v3.141c0 1.4-.933 2.822-2.773 3.878a14.921 14.921 0 01-13.522 0c-1.89-1.08-2.822-2.5-2.822-3.951v-3.142c0 1.423.933 2.847 2.822 3.951a14.921 14.921 0 0013.522 0c1.865-1.055 2.773-2.454 2.773-3.878z"/><path fill="#fee47f" d="M254.108 181.876l-1.571.908a4.883 4.883 0 00-.515-.245 4 4 0 00-.466-.1 2.241 2.241 0 00-.417.025 1.42 1.42 0 00-.344.123 1.2 1.2 0 00-.245.2.33.33 0 00-.049.2.433.433 0 00.123.2 2.124 2.124 0 00.245.2 1.85 1.85 0 00.319.147 1.487 1.487 0 00.368.049 3.29 3.29 0 00.466-.025c.172-.025.368-.049.589-.1.442-.1.834-.2 1.227-.27a6.106 6.106 0 011.129-.123 4.6 4.6 0 011.031.1 3.664 3.664 0 01.982.368 2.254 2.254 0 01.614.515.983.983 0 01.2.564 1.047 1.047 0 01-.2.564 2.177 2.177 0 01-.589.564l.957.54-.736.442-.957-.54a5.505 5.505 0 01-.957.344 3.956 3.956 0 01-1.08.147 4.494 4.494 0 01-2.331-.589l1.571-.908a5.738 5.738 0 00.589.27 2.188 2.188 0 00.54.074 1.429 1.429 0 00.466-.074 1.9 1.9 0 00.393-.172.738.738 0 00.245-.221.25.25 0 00.049-.221.3.3 0 00-.1-.2 1.067 1.067 0 00-.245-.2 2.471 2.471 0 00-.368-.172 1.86 1.86 0 00-.393-.074 3.132 3.132 0 00-.466.025c-.172.025-.344.049-.564.1-.442.1-.834.2-1.227.27a6.074 6.074 0 01-1.1.123 3.674 3.674 0 01-1.031-.1 3.289 3.289 0 01-.982-.393 1.542 1.542 0 01-.589-.515.811.811 0 01-.172-.564.979.979 0 01.221-.589 2.839 2.839 0 01.614-.589l-.982-.564.736-.442 1.006.589a3.484 3.484 0 01.982-.294 3.652 3.652 0 011.031-.074 5.025 5.025 0 011.031.172c.338.216.657.364.952.535z"/><path fill="#fff" d="M259.581 186.662l-14.013-4.049c-1.325 1.669-.785 3.706 1.595 5.08a12.167 12.167 0 0011.044 0 5.159 5.159 0 001.374-1.031z" opacity=".3"/><path fill="#fee47f" d="M259.437 179.987c3.755 2.16 3.755 5.669.049 7.829a14.922 14.922 0 01-13.522 0c-3.755-2.16-3.755-5.669-.049-7.829a14.922 14.922 0 0113.522 0zm-12.541 7.289a12.843 12.843 0 0011.657 0c3.215-1.865 3.19-4.884-.049-6.749a12.843 12.843 0 00-11.657 0c-3.191 1.865-3.166 4.884.049 6.749z"/><path fill="#fff" d="M257.739 187.693a12.974 12.974 0 01-10.847-.417c-1.693-.982-2.5-2.282-2.43-3.559l-1.276-.368c-.27 1.6.663 3.24 2.773 4.467a14.982 14.982 0 0013.032.245z" opacity=".3"/><g fill="#fff"><path d="M249.911 189.386a75.537 75.537 0 01-1.055-.221l-.736 2.5c.319.1.663.2 1.006.27zM247.727 191.546l.638-2.5a10.364 10.364 0 01-2.38-1.006 8.11 8.11 0 01-1.252-.887l.1 2.8a8.278 8.278 0 001.129.785 9.7 9.7 0 001.765.808z" opacity=".3"/></g></g><g><path fill="#f79826" d="M260.439 178.81v3.141c0-1.227-.81-2.454-2.43-3.411a12.843 12.843 0 00-11.657 0c-1.6.933-2.405 2.135-2.405 3.362v-3.141c0-1.2.81-2.43 2.405-3.362a12.843 12.843 0 0111.657 0c1.62.957 2.43 2.184 2.43 3.411z"/><path fill="#feb200" d="M257.985 175.94c3.24 1.865 3.24 4.884.049 6.749a12.843 12.843 0 01-11.657 0c-3.239-1.865-3.239-4.884-.049-6.749a12.843 12.843 0 0111.657 0z"/><path fill="#fed44f" d="M261.74 178.811v3.141c0 1.4-.933 2.822-2.773 3.878a14.921 14.921 0 01-13.522 0c-1.89-1.08-2.822-2.5-2.822-3.951v-3.142c0 1.423.932 2.847 2.822 3.951a14.921 14.921 0 0013.522 0c1.841-1.055 2.773-2.454 2.773-3.878z"/><path fill="#fee47f" d="M253.592 176.773l-1.571.908a4.87 4.87 0 00-.515-.245 3.993 3.993 0 00-.466-.1 2.244 2.244 0 00-.417.025 1.419 1.419 0 00-.344.123 1.2 1.2 0 00-.245.2.33.33 0 00-.049.2.434.434 0 00.123.2 2.157 2.157 0 00.245.2 1.852 1.852 0 00.319.147 1.485 1.485 0 00.368.049 3.3 3.3 0 00.466-.025c.172-.025.368-.049.589-.1.442-.1.834-.2 1.227-.27a6.106 6.106 0 011.129-.123 4.6 4.6 0 011.031.1 3.664 3.664 0 01.982.368 2.253 2.253 0 01.614.515.983.983 0 01.2.564 1.047 1.047 0 01-.2.564 2.178 2.178 0 01-.589.564l.957.54-.736.442-.957-.54a5.512 5.512 0 01-.957.344 3.956 3.956 0 01-1.08.147 4.491 4.491 0 01-2.332-.589l1.571-.908a5.762 5.762 0 00.589.27 2.188 2.188 0 00.54.074 1.43 1.43 0 00.466-.074 1.9 1.9 0 00.393-.172.737.737 0 00.245-.221.25.25 0 00.049-.221.3.3 0 00-.1-.2 1.071 1.071 0 00-.245-.2 2.477 2.477 0 00-.368-.172 1.861 1.861 0 00-.393-.074 3.128 3.128 0 00-.466.025c-.172.025-.344.049-.565.1-.442.1-.834.2-1.227.27a6.069 6.069 0 01-1.1.123 3.671 3.671 0 01-1.031-.1 3.051 3.051 0 01-.982-.393 1.542 1.542 0 01-.589-.515.811.811 0 01-.172-.564.979.979 0 01.221-.589 2.831 2.831 0 01.614-.589l-.982-.564.736-.442 1.006.589a3.488 3.488 0 01.982-.295 3.654 3.654 0 011.031-.074 5.017 5.017 0 011.031.172 9.437 9.437 0 00.954.536z"/><path fill="#fff" d="M259.041 181.559l-14.013-4.049c-1.325 1.669-.785 3.706 1.6 5.08a12.166 12.166 0 0011.044 0 5.282 5.282 0 001.369-1.031z" opacity=".3"/><path fill="#fee47f" d="M258.922 174.884c3.755 2.16 3.755 5.669.049 7.829a14.921 14.921 0 01-13.522 0c-3.755-2.16-3.755-5.669-.049-7.829a14.921 14.921 0 0113.522 0zm-12.541 7.289a12.842 12.842 0 0011.657 0c3.215-1.865 3.19-4.884-.049-6.749a12.842 12.842 0 00-11.657 0c-3.215 1.865-3.19 4.884.049 6.749z"/><path fill="#fff" d="M257.224 182.59a12.974 12.974 0 01-10.847-.417c-1.693-.982-2.5-2.282-2.43-3.559l-1.276-.368c-.27 1.6.663 3.24 2.773 4.467a14.982 14.982 0 0013.032.245z" opacity=".3"/><g fill="#fff"><path d="M249.395 184.283a75.537 75.537 0 01-1.055-.221l-.736 2.5c.319.1.663.2 1.006.27zM247.187 186.443l.638-2.5a10.367 10.367 0 01-2.38-1.006 8.1 8.1 0 01-1.252-.884l.1 2.8a8.27 8.27 0 001.129.785 11.492 11.492 0 001.765.805z" opacity=".3"/></g></g><g><path fill="#f79826" d="M261.788 174.023v3.141c0-1.227-.81-2.454-2.43-3.411a12.842 12.842 0 00-11.657 0c-1.6.933-2.405 2.135-2.405 3.362v-3.141c0-1.2.81-2.43 2.405-3.362a12.842 12.842 0 0111.657 0c1.62.957 2.43 2.184 2.43 3.411z"/><path fill="#feb200" d="M259.359 171.178c3.24 1.865 3.24 4.884.049 6.749a12.842 12.842 0 01-11.657 0c-3.24-1.865-3.24-4.884-.049-6.749a12.842 12.842 0 0111.657 0z"/><path fill="#fed44f" d="M263.089 174.048v3.141c0 1.4-.933 2.822-2.773 3.878a14.921 14.921 0 01-13.522 0c-1.89-1.08-2.822-2.5-2.822-3.951v-3.142c0 1.423.932 2.847 2.822 3.951a14.921 14.921 0 0013.522 0c1.841-1.08 2.773-2.479 2.773-3.878z"/><path fill="#fee47f" d="M254.941 171.986l-1.571.908a4.892 4.892 0 00-.515-.245 3.977 3.977 0 00-.466-.1 2.246 2.246 0 00-.417.025 1.419 1.419 0 00-.344.123 1.193 1.193 0 00-.245.2.33.33 0 00-.049.2.434.434 0 00.123.2 2.163 2.163 0 00.245.2 1.852 1.852 0 00.319.147 1.485 1.485 0 00.368.049 3.3 3.3 0 00.466-.025c.172-.025.368-.049.589-.1.442-.1.834-.2 1.227-.27a6.106 6.106 0 011.129-.123 4.6 4.6 0 011.031.1 3.662 3.662 0 01.982.368 2.253 2.253 0 01.614.515.984.984 0 01.2.564 1.047 1.047 0 01-.2.564 2.177 2.177 0 01-.589.564l.957.54-.736.442-.957-.54a5.506 5.506 0 01-.957.344 3.956 3.956 0 01-1.08.147 4.493 4.493 0 01-2.332-.589l1.571-.908a5.751 5.751 0 00.589.27 2.188 2.188 0 00.54.074 1.429 1.429 0 00.466-.074 1.894 1.894 0 00.393-.172.736.736 0 00.245-.221.251.251 0 00.049-.221.3.3 0 00-.1-.2 1.074 1.074 0 00-.245-.2 2.466 2.466 0 00-.368-.172 1.861 1.861 0 00-.393-.074 3.129 3.129 0 00-.466.025c-.172.025-.344.049-.565.1-.442.1-.834.2-1.227.27a6.08 6.08 0 01-1.1.123 3.674 3.674 0 01-1.031-.1 3.289 3.289 0 01-.982-.393 1.543 1.543 0 01-.589-.515.811.811 0 01-.172-.564.979.979 0 01.221-.589 2.84 2.84 0 01.614-.589l-.982-.564.736-.442 1.006.589a3.484 3.484 0 01.982-.294 3.653 3.653 0 011.031-.074 5.025 5.025 0 011.031.172c.34.216.659.364.954.535z"/><path fill="#fff" d="M260.414 176.772l-14.013-4.049c-1.325 1.669-.785 3.706 1.6 5.08a12.166 12.166 0 0011.044 0 5.583 5.583 0 001.369-1.031z" opacity=".3"/><path fill="#fee47f" d="M260.271 170.097c3.755 2.16 3.755 5.669.049 7.829a14.921 14.921 0 01-13.522 0c-3.755-2.16-3.755-5.669-.049-7.829a14.921 14.921 0 0113.522 0zm-12.541 7.289a12.843 12.843 0 0011.657 0c3.215-1.865 3.19-4.884-.049-6.749a12.842 12.842 0 00-11.657 0c-3.19 1.865-3.166 4.884.049 6.749z"/><path fill="#fff" d="M258.573 177.803a12.973 12.973 0 01-10.847-.417c-1.693-.982-2.5-2.282-2.43-3.558l-1.276-.368c-.27 1.6.663 3.24 2.773 4.467a14.982 14.982 0 0013.032.245z" opacity=".3"/><g fill="#fff"><path d="M250.745 179.521a75.537 75.537 0 01-1.055-.221l-.736 2.5c.319.1.663.2 1.006.27zM248.56 181.656l.638-2.5a10.36 10.36 0 01-2.381-1.006 8.1 8.1 0 01-1.252-.883l.1 2.8a8.277 8.277 0 001.129.785 9.7 9.7 0 001.766.804z" opacity=".3"/></g></g><g><path fill="#f79826" d="M261.175 169.562v3.141c0-1.227-.81-2.454-2.43-3.411a12.843 12.843 0 00-11.657 0c-1.6.933-2.405 2.135-2.405 3.362v-3.141c0-1.2.81-2.43 2.405-3.362a12.842 12.842 0 0111.657 0c1.62.957 2.43 2.184 2.43 3.411z"/><path fill="#feb200" d="M258.745 166.692c3.24 1.865 3.24 4.884.049 6.749a12.842 12.842 0 01-11.657 0c-3.24-1.865-3.24-4.884-.049-6.749a12.842 12.842 0 0111.657 0z"/><path fill="#fed44f" d="M262.5 169.563v3.141c0 1.4-.933 2.822-2.773 3.878a14.921 14.921 0 01-13.522 0c-1.89-1.08-2.822-2.5-2.822-3.951v-3.142c0 1.423.933 2.847 2.822 3.951a14.921 14.921 0 0013.522 0c1.841-1.055 2.749-2.479 2.773-3.878z"/><path fill="#fee47f" d="M254.352 167.525l-1.571.908a4.909 4.909 0 00-.516-.245 3.981 3.981 0 00-.466-.1 2.246 2.246 0 00-.417.025 1.42 1.42 0 00-.344.123 1.2 1.2 0 00-.245.2.33.33 0 00-.049.2.433.433 0 00.123.2 2.124 2.124 0 00.245.2 1.842 1.842 0 00.319.147 1.493 1.493 0 00.368.049 3.3 3.3 0 00.466-.025c.172-.025.368-.049.589-.1.442-.1.834-.2 1.227-.27a6.106 6.106 0 011.129-.123 4.6 4.6 0 011.031.1 3.66 3.66 0 01.982.368 2.253 2.253 0 01.614.515.983.983 0 01.2.564 1.047 1.047 0 01-.2.564 2.177 2.177 0 01-.589.564l.957.54-.736.442-.957-.54a5.5 5.5 0 01-.957.344 3.951 3.951 0 01-1.08.147 4.494 4.494 0 01-2.331-.589l1.571-.908a5.749 5.749 0 00.589.27 2.188 2.188 0 00.54.074 1.429 1.429 0 00.466-.074 1.9 1.9 0 00.393-.172.738.738 0 00.245-.221.25.25 0 00.049-.221.3.3 0 00-.1-.2 1.069 1.069 0 00-.245-.2 2.471 2.471 0 00-.368-.172 11.5 11.5 0 00-.393-.074 3.132 3.132 0 00-.466.025c-.172.025-.344.049-.564.1-.442.1-.834.2-1.227.27a6.08 6.08 0 01-1.1.123 3.676 3.676 0 01-1.031-.1 3.29 3.29 0 01-.982-.393 1.544 1.544 0 01-.589-.515.812.812 0 01-.172-.564.979.979 0 01.221-.589 2.835 2.835 0 01.614-.589l-.982-.564.736-.442 1.006.589a3.483 3.483 0 01.982-.295 3.654 3.654 0 011.031-.074 5.017 5.017 0 011.031.172c.31.217.634.34.953.536z"/><path fill="#fff" d="M259.801 172.286l-14.013-4.049c-1.325 1.669-.785 3.706 1.6 5.08a12.167 12.167 0 0011.044 0 4.385 4.385 0 001.369-1.031z" opacity=".3"/><path fill="#fee47f" d="M259.682 165.636c3.755 2.16 3.755 5.669.049 7.829a14.921 14.921 0 01-13.522 0c-3.755-2.16-3.755-5.669-.049-7.829a14.922 14.922 0 0113.522 0zm-12.541 7.289a12.842 12.842 0 0011.657 0c3.215-1.865 3.19-4.884-.049-6.749a12.842 12.842 0 00-11.657 0c-3.215 1.841-3.191 4.884.049 6.749z"/><path fill="#fff" d="M257.984 173.317a12.974 12.974 0 01-10.847-.417c-1.693-.982-2.5-2.282-2.43-3.559l-1.276-.368c-.27 1.6.663 3.24 2.773 4.467a14.982 14.982 0 0013.032.245z" opacity=".3"/><g fill="#fff"><path d="M250.131 175.035a75.537 75.537 0 01-1.055-.221l-.736 2.5c.319.1.663.2 1.006.27zM247.947 177.17l.638-2.5a10.365 10.365 0 01-2.381-1.006 8.1 8.1 0 01-1.252-.883l.1 2.8a8.277 8.277 0 001.129.785 9.563 9.563 0 001.766.804z" opacity=".3"/></g></g><g transform="translate(142.261 120.326)"><path fill="#d8e1e6" d="M78.592 60.889c15.289 8.835 15.388 23.143.172 31.978-15.191 8.835-39.929 8.835-55.219 0s-15.388-23.143-.172-31.978c15.216-8.811 39.93-8.811 55.219 0z"/><path fill="#ea6c96" d="M58.91 82.023a13.932 13.932 0 01-12.614-.123 4.989 4.989 0 01-2.405-2.777l3.951 14.013a2.73 2.73 0 001.325 1.522 7.59 7.59 0 006.9.074 2.765 2.765 0 001.4-1.546l4.049-13.989a5.146 5.146 0 01-2.606 2.826zM79.991 70.072a13.932 13.932 0 01-12.614-.123 4.988 4.988 0 01-2.405-2.777l3.951 14.013a2.73 2.73 0 001.325 1.522 7.59 7.59 0 006.9.074 2.765 2.765 0 001.4-1.546l4.049-13.989a5.306 5.306 0 01-2.606 2.826z"/><path fill="#e877a6" d="M30.982 66.145a13.932 13.932 0 01-12.615-.123 4.989 4.989 0 01-2.405-2.777l3.951 14.013a2.73 2.73 0 001.325 1.522 7.59 7.59 0 006.9.074 2.765 2.765 0 001.4-1.546l4.049-13.989a5.145 5.145 0 01-2.605 2.826z"/><path fill="#ea6c96" d="M80.556 18.751a30.8 30.8 0 01-7.093-.883l.393-1.669c6.111 1.472 10.258.761 12.664-.1a10.182 10.182 0 004.123-2.552 10.716 10.716 0 01-4.663-2.282 15.977 15.977 0 01-4.27-5.35c-1.08-2.258-1.129-4.074-.147-5.129.957-1.006 2.651-1.055 5.007-.1a13.085 13.085 0 016.356 4.859 7.212 7.212 0 01.834 6.062v.049c2.454-.908 4.54-3.73 6.062-8.344a.835.835 0 011.055-.54.855.855 0 01.564 1.08c-2.479 7.485-6.013 9.5-8.663 9.792a11.352 11.352 0 01-5.669 4.074 19.838 19.838 0 01-6.553 1.033zm3.092-17.032a1.128 1.128 0 00-.834.245c-.368.368-.368 1.522.442 3.215 1.35 2.847 4.81 6.651 8.516 6.8a5.325 5.325 0 00.368-.859c1.08-3.387-1.35-6.847-6.209-8.835a6.171 6.171 0 00-2.283-.566z"/><path fill="#fe80aa" d="M95.134 39.268c.025-.295.025-.614.025-.908 0 .295-.025.589-.025.908z"/><path fill="#fe80aa" d="M95.158 37.94a37.932 37.932 0 00-1.227-8.81 37.2 37.2 0 00-10.676-17.89 38.315 38.315 0 00-11.608-7.436 34.054 34.054 0 00-5.326-1.816 43.612 43.612 0 00-8.1-1.374 36.136 36.136 0 00-4.884-.1c-2.012.1-4.663.393-6.651.712a32.586 32.586 0 00-4.81 1.129 48.8 48.8 0 00-7.9 3.043 50.207 50.207 0 00-10.013 6.479 48.577 48.577 0 00-8.835 9.669 44.971 44.971 0 00-5.939 12.32 39.834 39.834 0 00-.049 23.511 37.385 37.385 0 005.3 10.577 37.933 37.933 0 008.614 8.59 41.538 41.538 0 0023.658 7.682 47.921 47.921 0 0025.082-6.6 50.884 50.884 0 0010.7-8.369 47 47 0 007.068-9.449 42.951 42.951 0 004.319-10.627 46.138 46.138 0 001.031-5.5c.074-.614.123-1.325.172-2.062-.122 2.704.123 1.33.074-3.679z"/><path fill="#ea7fab" d="M12.625 25.94l12.688 2.675 12.467-6.6-2.233-5.375-20.271 5.276zM43.351 38.409L61.34 56.128l11.78-3.24 1.472-6.5-26.235-9.6z"/><path fill="#fff" d="M21.19 15.364s18.652 7.313 25.155 11.363C72.924 9.891 76.973 7.265 76.973 7.265S50.59-9.791 21.19 15.364z" opacity=".2"/><path fill="#f7bacf" d="M29.264 58.383a25.38 25.38 0 00-4.1-6.43 18.729 18.729 0 00-4.81-4c-2.871-1.6-5.473-1.718-7.338-.638l-5.571 3.24c1.89-1.1 4.467-.957 7.338.638a18.732 18.732 0 014.81 4 25.818 25.818 0 014.1 6.43 20.437 20.437 0 011.841 7.731c.049 3.436-1.153 5.865-3.092 6.994l5.571-3.24c1.939-1.129 3.141-3.559 3.092-6.994a20.089 20.089 0 00-1.841-7.731z"/><ellipse cx="8.639" cy="14.921" fill="#ea6c96" rx="8.639" ry="14.921" transform="rotate(-30.165 101.852 27.449)"/><path fill="#ea6c96" d="M12.649 14.627a18.407 18.407 0 014.516 3.9l7.9 9.3c-5.007-1.914-9.2-2.5-12.418-1.89L8.966 16.93c-1.422-3.433.689-4.021 3.683-2.303z"/><path fill="#f7bacf" d="M19.423 11.119a10.984 10.984 0 00-1.816-1.252c-1.693-.982-3.117-1.2-3.755-.589L8.87 14.039c.638-.614 2.061-.393 3.755.589a17.357 17.357 0 011.816 1.252 19.459 19.459 0 012.7 2.65l7.9 9.3 4.982-4.761-7.9-9.3a20.992 20.992 0 00-2.7-2.65zM63.107 40.568a10.666 10.666 0 00-1.693-3.387 20.614 20.614 0 00-3.755-3.976 14.929 14.929 0 00-1.914-1.325c-1.4-.81-2.675-1.129-3.436-.687l-4 2.43-4.983 4.761 4-2.43c.761-.466 2.037-.123 3.436.687a16.882 16.882 0 011.914 1.325 20.618 20.618 0 013.755 3.976 10.668 10.668 0 011.693 3.387l1.988 8.025 4.982-4.761z"/><path fill="#ea6c96" d="M50.787 36.644c2.994 1.718 6.6 5.62 7.338 8.688l1.988 8.025a135.935 135.935 0 00-16.762-14.948l4-2.43c.761-.466 2.037-.147 3.436.665z"/><path fill="#c1185b" d="M19.398 33.623a2.518 2.518 0 01.982 2.675 1.287 1.287 0 01-1.914 1.006 2.479 2.479 0 01-.982-2.675 1.3 1.3 0 011.914-1.006zM40.676 45.918a2.518 2.518 0 01.982 2.675c-.245 1.031-1.1 1.473-1.914 1.006a2.479 2.479 0 01-.982-2.675 1.307 1.307 0 011.914-1.006z"/><path fill="#fff" d="M14.539 51.759c-5.424-3.019-9.743-.368-9.669 5.89 0 .344.025.663.049 1.006l19.462 8.565c-.615-5.963-4.809-12.663-9.842-15.461z" opacity=".3"/><g fill="#fff" opacity=".3"><path d="M25.165 51.956l-.074-.074-5.718 3.043c.074.1.172.172.245.27a24.971 24.971 0 011.816 2.356l6.135-2.356a22.622 22.622 0 00-2.404-3.239zM20.379 47.955a11.126 11.126 0 00-2.9-1.153l-5.546 3.239a12.178 12.178 0 012.871 1.129 17.115 17.115 0 013.043 2.209l5.473-3.313a19.715 19.715 0 00-2.941-2.111z"/></g><path fill="#ea6c96" d="M81.709 68.423a46.846 46.846 0 006.8-9.08 41.4 41.4 0 004.147-10.234 42.952 42.952 0 001.006-5.3c.074-.589.123-1.276.172-1.988-.049 2.405.147 1.423.123-2.626C82.84 58.436 53.782 77.087 32.946 80.032a41.556 41.556 0 0014.357 2.8 46.382 46.382 0 0024.149-6.356 48.79 48.79 0 0010.257-8.053z"/><path fill="#fff" d="M19.422 11.119a10.981 10.981 0 00-1.816-1.252 10.775 10.775 0 00-1.448-.687l-4.957 4.761a7.292 7.292 0 011.423.663 17.35 17.35 0 011.816 1.252c.27.221.54.466.834.712l5.129-4.614c-.318-.274-.662-.565-.981-.835z" opacity=".3"/><g fill="#fff" opacity=".3"><path d="M61.414 37.181a29.673 29.673 0 00-1.08-1.374l-5.473 4.2a16.709 16.709 0 011.6 1.939c.172.245.344.491.491.736l4.859-4.957a4.334 4.334 0 01-.397-.544zM50.787 36.642a16.871 16.871 0 011.914 1.325 15.474 15.474 0 011.5 1.35l5.571-4.148a19.18 19.18 0 00-2.086-1.939 14.925 14.925 0 00-1.914-1.325 5.155 5.155 0 00-.515-.27l-5.55 4.491a8.527 8.527 0 011.08.516z"/></g><path fill="#fff" d="M89.192 2.504s-6.013-4.319-7.9-.736c2.356-2.229 7.9.736 7.9.736zM100.362 3.314s-1.89 6.209-5.277 8.172c4.663-2.086 5.277-8.172 5.277-8.172zM92.901 7.56s1.423 5.473-4.516 7.951c6.5-2.527 5.031-6.92 4.516-7.951z" opacity=".35"/><path fill="#ca6d93" d="M66.715 9.352c-7.093 3.681-11.706 6.013-17.719 10.307l-3.828-2.209A123.69 123.69 0 0162.886 7.143z"/><path fill="#ea7fab" d="M66.715 9.352l-3.829-2.209v4.2c1.2-.641 2.479-1.28 3.829-1.991z" opacity=".5"/><g><g clip-path="url(#a)" transform="translate(45.191 1.081)"><path fill="#f79826" d="M16.516 4.197l-2.719-1.571c1.055.614 1.693 1.914 1.718 3.755a12.853 12.853 0 01-5.841 10.087c-1.62.933-3.092 1.031-4.172.417l2.724 1.571c1.055.614 2.528.54 4.172-.417a12.853 12.853 0 005.841-10.087 4.091 4.091 0 00-1.723-3.755z"/><path fill="#fee47f" d="M14.479 1.473c-1.227-.712-2.945-.614-4.835.466a14.835 14.835 0 00-6.749 11.706c0 2.135.761 3.632 1.988 4.344l2.724 1.571c-1.227-.712-1.963-2.209-1.988-4.344A14.966 14.966 0 0112.368 3.51c1.89-1.08 3.583-1.178 4.835-.466z"/><path fill="#feb200" d="M12.026 4.343c3.24-1.865 5.865-.368 5.865 3.338a12.853 12.853 0 01-5.841 10.087c-3.24 1.865-5.865.368-5.865-3.338a12.853 12.853 0 015.841-10.087z"/><path fill="#fed44f" d="M12.37 3.535c3.755-2.16 6.8-.417 6.8 3.878a14.966 14.966 0 01-6.749 11.706c-3.755 2.16-6.8.417-6.8-3.878A14.8 14.8 0 0112.37 3.535zm.024 14.5a12.853 12.853 0 005.841-10.087c0-3.706-2.626-5.2-5.865-3.338a12.86 12.86 0 00-5.841 10.111c.025 3.681 2.651 5.178 5.865 3.313z"/><path fill="#fee47f" d="M12.565 6.037V7.19a1.873 1.873 0 01.761-.172 1 1 0 01.589.2.973.973 0 01.368.54 2.4 2.4 0 01.123.883l-1.6.908a2.532 2.532 0 00-.049-.491.557.557 0 00-.147-.27.4.4 0 00-.221-.074.827.827 0 00-.295.1.982.982 0 00-.294.245 2.051 2.051 0 00-.2.294 1.42 1.42 0 00-.123.344 1.926 1.926 0 00-.049.344 1.244 1.244 0 00.049.319.535.535 0 00.123.2.735.735 0 00.245.1 1.047 1.047 0 00.393 0 4.878 4.878 0 01.834-.024 1.326 1.326 0 01.663.147.815.815 0 01.442.417 1.923 1.923 0 01.172.834 3.885 3.885 0 01-.123.933 4.642 4.642 0 01-.393.883 5.955 5.955 0 01-.589.785 4.154 4.154 0 01-.785.663v1.08l-.736.442v-1.1a3.591 3.591 0 01-.785.245 1.274 1.274 0 01-.687-.074.969.969 0 01-.466-.515 2.368 2.368 0 01-.172-1.031l1.6-.908a1.745 1.745 0 00.074.564.594.594 0 00.2.27.38.38 0 00.294.049 1.312 1.312 0 00.344-.147 1.575 1.575 0 00.319-.245 2.3 2.3 0 00.221-.294 1.417 1.417 0 00.123-.344 1.657 1.657 0 00.049-.344 1.483 1.483 0 00-.049-.368.254.254 0 00-.147-.2.735.735 0 00-.245-.1 1.828 1.828 0 00-.368 0c-.319.025-.589.049-.859.049a1.68 1.68 0 01-.663-.123.815.815 0 01-.442-.417 2 2 0 01-.147-.859 3.083 3.083 0 01.147-.933 4.234 4.234 0 01.393-.908 3.911 3.911 0 01.614-.81 5.453 5.453 0 01.81-.687V6.461z"/><path fill="#fff" d="M11.215 1.252a8.5 8.5 0 00-1.571.687A14.731 14.731 0 003.73 9.352l2.847 1.276a14.68 14.68 0 015.792-7.093 7.791 7.791 0 011.5-.663zM17.719 7.682v-.049L7.853 17.695c1.031.736 2.552.712 4.246-.245a12.421 12.421 0 005.62-9.768z" opacity=".3"/></g></g></g><g><path fill="#d8e1e6" d="M84.346 168.926l63.219-36.518-8.442-4.908-63.219 36.493z"/><path fill="#afbdc4" d="M140.252.252a2.733 2.733 0 00-2.724.27L81.889 32.646a8.357 8.357 0 00-3.8 6.6l.344 122.61a2.673 2.673 0 001.129 2.454l4.123 2.405a2.726 2.726 0 01-1.129-2.454l-.344-122.61a8.384 8.384 0 013.8-6.6l55.639-32.125a2.733 2.733 0 012.724-.27z"/><path fill="#263238" d="M141.651 2.927c2.111-1.227 3.828-.245 3.853 2.184l.344 122.61a8.384 8.384 0 01-3.8 6.6l-55.637 32.102c-2.111 1.227-3.828.245-3.853-2.184l-.344-122.61a8.384 8.384 0 013.8-6.6z"/><path fill="#0d141e" d="M106.483 27.346c.417-.245.736-.049.736.417a1.622 1.622 0 01-.736 1.276c-.393.245-.736.049-.736-.417a1.612 1.612 0 01.736-1.276zM121.601 19.051c.2-.1.344-.025.344.2a.748.748 0 01-.344.589l-13.2 7.608c-.2.1-.344.025-.344-.2a.748.748 0 01.344-.589z"/><path fill="#410939" d="M142.927 10.412l.319 110.02-57.918 33.426-.294-110.02z"/><path fill="#fff" d="M142.167 59.078l-55.955 84.129.025 8.442 14.431-8.344 41.544-69.355zM86.138 119.966l.025 10.43 55.98-86.387-.049-9.228z" opacity=".1"/><path fill="#fff" d="M126.828 21.406L86.04 87.374l.1 28.2 55.955-84.6-.055-18.329z" opacity=".104"/><path fill="#bec9db" d="M134.386 39.077c0-.589-.417-.834-.933-.54l-34.6 19.977a2.029 2.029 0 00-.933 1.6l.025 8.246c0 .589.417.834.933.54l34.6-19.977a2.029 2.029 0 00.933-1.6z"/><path fill="#a3a3a3" d="M128.718 37.997v2.528l5.4 3.289v-5.817z"/><path fill="#d9d9d9" d="M128.717 40.525L98.973 57.68v3.387l2.577 1.571 32.567-18.823z"/><path fill="#bec9db" d="M98.973 60.305l1.571.245 31.487-18.014 2.037-4.54h-5.35v2.528L98.973 57.679z"/><path fill="#8b8b8b" d="M101.549 62.641l-1.693-.982v-5.918l1.669.957z"/><path fill="#979797" d="M101.525 56.698l-1.669-.957 32.567-18.824 1.693.982z"/><path fill="#bcbcbc" d="M135.122 35.101c.515-.294.933-.049.933.54l.025 8.246a2.029 2.029 0 01-.933 1.6l-34.6 19.977c-.515.294-.933.049-.933-.54l-.025-8.246a2.029 2.029 0 01.933-1.6zm-1.006 8.712l-.025-5.939-32.567 18.823.025 5.939 32.567-18.823z"/><path fill="#d9d9d9" d="M134.093 34.046a.669.669 0 00-.663.074l-34.6 19.977a2.029 2.029 0 00-.933 1.6l.025 8.246a.625.625 0 00.27.589l1.693.982a.625.625 0 01-.27-.589l-.025-8.246a2.029 2.029 0 01.933-1.6l34.6-19.977a.668.668 0 01.663-.074z"/><g><g clip-path="url(#b)" transform="translate(101.526 37.874)"><path fill="#f79826" d="M26.063 10.823v3.141c0-1.227-.81-2.454-2.43-3.411a12.842 12.842 0 00-11.657 0c-1.6.933-2.405 2.135-2.405 3.362v-3.141c0-1.2.81-2.43 2.405-3.362a12.842 12.842 0 0111.657 0c1.62.957 2.43 2.184 2.43 3.411z"/><path fill="#feb200" d="M23.609 7.953c3.24 1.865 3.24 4.884.049 6.749a12.842 12.842 0 01-11.657 0c-3.239-1.865-3.239-4.884-.049-6.749a12.843 12.843 0 0111.657 0z"/><path fill="#fed44f" d="M27.364 10.823v3.141c0 1.4-.933 2.822-2.773 3.878a14.922 14.922 0 01-13.522 0c-1.89-1.08-2.822-2.5-2.822-3.951v-3.142c0 1.423.933 2.847 2.822 3.951a14.921 14.921 0 0013.522 0c1.841-1.055 2.773-2.479 2.773-3.878z"/><path fill="#fee47f" d="M19.216 8.786l-1.571.908a4.894 4.894 0 00-.515-.245 3.981 3.981 0 00-.466-.1 2.246 2.246 0 00-.417.025 1.421 1.421 0 00-.344.123 1.2 1.2 0 00-.245.2.33.33 0 00-.049.2.434.434 0 00.123.2 2.145 2.145 0 00.245.2 1.853 1.853 0 00.319.147 1.486 1.486 0 00.368.049 3.3 3.3 0 00.466-.025c.172-.025.368-.049.589-.1.442-.1.834-.2 1.227-.27a6.105 6.105 0 011.129-.123 4.6 4.6 0 011.031.1 3.661 3.661 0 01.982.368 2.252 2.252 0 01.614.515.984.984 0 01.2.564 1.047 1.047 0 01-.2.564 2.176 2.176 0 01-.589.564l.957.54-.736.442-.957-.54a5.5 5.5 0 01-.957.344 3.954 3.954 0 01-1.08.147 4.493 4.493 0 01-2.331-.589l1.571-.908a5.756 5.756 0 00.589.27 2.187 2.187 0 00.54.074 1.429 1.429 0 00.466-.074 1.9 1.9 0 00.393-.172.735.735 0 00.245-.221.25.25 0 00.049-.221.3.3 0 00-.1-.2 1.07 1.07 0 00-.245-.2 2.474 2.474 0 00-.368-.172 1.857 1.857 0 00-.393-.074 3.13 3.13 0 00-.466.025c-.172.025-.344.049-.564.1-.442.1-.834.2-1.227.27a6.077 6.077 0 01-1.1.123 3.676 3.676 0 01-1.031-.1 3.289 3.289 0 01-.982-.393 1.541 1.541 0 01-.589-.515.811.811 0 01-.172-.564.979.979 0 01.221-.589 2.837 2.837 0 01.614-.589l-.982-.564.736-.442 1.006.589a3.482 3.482 0 01.982-.294 3.653 3.653 0 011.031-.074 5.026 5.026 0 011.031.172c.309.216.633.338.952.535z"/><path fill="#fff" d="M24.664 13.547L10.651 9.498c-1.325 1.669-.785 3.706 1.6 5.08a12.166 12.166 0 0011.044 0 4.384 4.384 0 001.369-1.031z" opacity=".3"/><path fill="#fee47f" d="M24.546 6.896c3.755 2.16 3.755 5.669.049 7.829a14.922 14.922 0 01-13.523 0c-3.755-2.16-3.755-5.669-.049-7.829a14.922 14.922 0 0113.523 0zm-12.541 7.289a12.843 12.843 0 0011.657 0c3.215-1.865 3.19-4.884-.049-6.749a12.842 12.842 0 00-11.657 0c-3.215 1.841-3.19 4.884.049 6.749z"/><path fill="#fff" d="M22.848 14.578a12.974 12.974 0 01-10.847-.417c-1.693-.982-2.5-2.282-2.43-3.559l-1.276-.368c-.27 1.6.663 3.24 2.773 4.467a14.982 14.982 0 0013.032.245z" opacity=".3"/><g fill="#fff"><path d="M15.02 16.296a75.537 75.537 0 01-1.055-.221l-.736 2.5c.319.1.663.2 1.006.27zM12.811 18.431l.638-2.5a10.364 10.364 0 01-2.381-1.006 8.1 8.1 0 01-1.251-.887l.1 2.8a8.276 8.276 0 001.129.785 9.565 9.565 0 001.765.808z" opacity=".3"/></g></g></g></g><g><path fill="#f79826" d="M153.478 62.969c-1.816-3.681-5.473-5.473-8.541-4.417l-2.111.736c3.068-1.055 6.724.736 8.54 4.417 2.012 4.074 1.031 8.86-2.209 10.725a8.32 8.32 0 01-.957.442l2.111-.736a8.315 8.315 0 00.957-.442c3.241-1.845 4.247-6.655 2.21-10.725z"/><path fill="#feb200" d="M143.394 59.161c3.24-1.865 7.485-.074 9.5 3.976 2.012 4.074 1.031 8.859-2.209 10.725s-7.485.074-9.5-3.976-1.033-8.86 2.209-10.725z"/><path fill="#fee47f" d="M145.477 60.412l.638 1.276a2.271 2.271 0 011.792.074 2.978 2.978 0 01.785.614 4.289 4.289 0 01.663.982l-1.62.933a2.579 2.579 0 00-.344-.54 1.947 1.947 0 00-.344-.319.671.671 0 00-.344-.1.493.493 0 00-.319.1.876.876 0 00-.27.245.7.7 0 00-.1.319 1.984 1.984 0 00.025.368 1.158 1.158 0 00.147.368c.074.123.147.245.221.344a.767.767 0 00.27.221 1.482 1.482 0 00.393.123 3.3 3.3 0 00.515.025 8.285 8.285 0 011.1 0 3.9 3.9 0 01.957.172 2.316 2.316 0 01.81.491 3.136 3.136 0 01.663.933 3.4 3.4 0 01.344 1.031 2.512 2.512 0 01-.025.957 2.55 2.55 0 01-.368.834 2.519 2.519 0 01-.663.687l.589 1.178-.761.442-.589-1.2a2.9 2.9 0 01-.908.221 2.152 2.152 0 01-.957-.123 2.874 2.874 0 01-.908-.589 4.177 4.177 0 01-.81-1.129l1.6-.933a2.057 2.057 0 00.417.614 1.091 1.091 0 00.417.294.818.818 0 00.417.049 2.414 2.414 0 00.393-.123.664.664 0 00.27-.245.723.723 0 00.123-.319.965.965 0 00-.025-.368 1.157 1.157 0 00-.147-.368 1.821 1.821 0 00-.245-.393 2.605 2.605 0 00-.294-.245 1.03 1.03 0 00-.393-.1 3.129 3.129 0 00-.491-.025c-.393.025-.761.025-1.1.025a3.012 3.012 0 01-.957-.172 2.316 2.316 0 01-.81-.491 3.136 3.136 0 01-.663-.933 3.194 3.194 0 01-.319-1.006 2.469 2.469 0 01.049-.957 2.665 2.665 0 011.055-1.571l-.614-1.252z"/><path fill="#fff" d="M143.097 71.848c2.086 2.258 5.056 2.994 7.436 1.62 3.019-1.742 3.927-6.234 2.062-10.013a8.9 8.9 0 00-1.644-2.307z" opacity=".3"/><path fill="#fee47f" d="M140.865 70.253c-2.331-4.712-1.2-10.283 2.552-12.443a11.147 11.147 0 011.1-.515l-2.111.736a5.578 5.578 0 00-1.1.515c-3.755 2.16-4.884 7.731-2.552 12.443 2.111 4.246 6.332 6.356 9.89 5.129l2.111-.736c-3.559 1.227-7.78-.859-9.89-5.129z"/><path fill="#fed44f" d="M143.416 57.835c3.755-2.16 8.663-.1 10.995 4.614s1.2 10.283-2.552 12.443-8.663.1-10.995-4.614-1.203-10.284 2.552-12.443zm7.878 15.878c3.24-1.865 4.221-6.675 2.209-10.725-2.012-4.074-6.258-5.841-9.5-3.976s-4.221 6.675-2.209 10.725 6.258 5.841 9.5 3.976z"/><g fill="#fff" opacity=".3"><path d="M139.883 67.406l-1.988 1.227a12.372 12.372 0 00.761 2.135l1.841-1.374a8.819 8.819 0 01-.614-1.988zM137.919 63.111a10.548 10.548 0 00-.245 4.491l2.062-1.178a10.151 10.151 0 01.344-4.148z"/></g><path fill="#fff" d="M141.797 69.738c-2.012-4.074-1.031-8.86 2.209-10.725a5.736 5.736 0 014.786-.393c.221-.368.442-.736.638-1.055a6.732 6.732 0 00-6.013.27c-3.755 2.16-4.884 7.731-2.552 12.443.123.221.221.442.344.663.2-.319.417-.687.638-1.055a.208.208 0 00-.05-.148z" opacity=".3"/></g><g><path fill="#d8e1e6" d="M136.393 159.209l4.933 1.914-42.678 24.763-5.448-5.964-9.007-2.307 8.614-4.614z"/><path fill="#f9f9f9" d="M89.101 128.36l8.663 1.423 2.454 5.031 36.371-21.008-8.688-1.423-2.43-5.031z"/><path fill="#afbdc4" d="M90.795 128.041l34.432-19.879 2.16 4.467.147.27.294.049 7.068 1.178-34.432 19.879-2.16-4.467-.147-.27-.294-.049z"/><path fill="#788f9b" d="M114.698 125.783l10.528-17.621 4.072 9.179z"/><path fill="#afbdc4" d="M136.59 113.806l3.509 47.439-41.426 23.928 1.546-50.359zM89.101 128.36l-3.509 49.206 7.9 1.988 4.27-49.771z"/><path fill="#788f9b" d="M97.764 129.783l-4.27 49.771 5.178 5.62 1.546-50.359zM127.533 112.898l.294.049 7.068 1.178-7.51 4.319z"/><path fill="#607d8a" d="M125.227 108.162l2.16 4.467.147.27-.147 5.546-2.16 1.276z"/><path fill="#ced7db" d="M87.874 178.13l9.89-48.347-4.27 49.771z"/><path fill="#dbdbdb" d="M118.728 150.692h.1c7.363-.27 8.59-21.548 8.663-28.959h-.589c-.049 6.97-1.325 28.468-8.1 28.689-5.3.172-7.362-13.621-7.78-19l-.589.049c.486 6.214 2.67 19.221 8.295 19.221z"/><path fill="#fff" d="M127.067 120.85a1.819 1.819 0 00-.81 1.4c0 .515.368.712.81.466a1.818 1.818 0 00.81-1.4c0-.515-.368-.736-.81-.466zM110.575 130.618a1.818 1.818 0 00-.81 1.4c0 .515.368.712.81.466a1.818 1.818 0 00.81-1.4c0-.515-.368-.736-.81-.466z"/></g><g><path fill="#d8e1e6" d="M76.148 176.259l-19.216 11.166 19.339 11.167 19.216-11.167z"/><path fill="#d71b60" d="M93.867 161.411l-.025 25.941-17.6 10.234.025-25.965z"/><path fill="#ef6291" d="M76.271 171.62l-.025 25.965-17.694-10.233v-25.941z"/><path fill="#d9e1ed" d="M58.552 161.411v2.822l17.719 10.234 17.6-10.234v-2.822l-17.6 10.209z"/><path fill="#d71b60" d="M94.947 156.92l-.025 4.933L76.271 172.7v-4.933z"/><path fill="#ef6291" d="M76.272 167.767v4.933l-18.8-10.847.025-4.933z"/><path fill="#d71b60" d="M94.947 156.92l-18.676 10.847-18.775-10.847 18.652-10.847z"/><path fill="#fff" d="M62.478 154.54l-4.123 2.405L76 167.13l9.35-5.424zM59.68 166.074l-.294 20.959 5.227 3.068 2.405-20.222z" opacity=".3"/><path fill="#fff" d="M93.524 186.984v-9.473l-13.989 17.621zM94.628 161.653v-2.5l-10.995 8.909z" opacity=".15"/><path fill="#fff" d="M57.889 157.705v3.878l6.97 3.8 1.227-3.092z" opacity=".3"/><path fill="#c9ebf7" d="M64.933 152.573l18.725 10.9 4.319-2.528-18.725-10.872z"/><path fill="#a4dbea" d="M78.581 155.472l-4.2 2.6 2.43 1.4 4.319-2.5z"/><path fill="#c9ebf7" d="M69.154 163.645l18.656-10.851-4.319-2.5-18.681 10.847z"/><path fill="#fff" d="M83.437 150.564l-18.185 10.627 1.963 1.055 16.737-11.289z" opacity=".35"/><path fill="#a4dbea" d="M64.81 166.098l4.344 2.5v-4.957l-4.344-2.5z"/><path fill="#79c9db" d="M83.658 168.405l4.319-2.5v-4.936l-4.319 2.5z"/><path fill="#bec9db" d="M84.517 156.92l5.326-2.945-3.141-1.816-6.675 3.9-4.638-.172-9.3-3.976-4.126 2.408 11.044 3.657-7.068 3.828 4.246 2.43 6.921-5.645 7.166 4.516 5.178-3.019z"/><path fill="#eefaff" d="M76.664 155.742l.564.074.908.663-.147.491-1.3.736-1.2-.614-.368-1.006.27-.2z"/><path fill="#c9ebf7" d="M70.406 152.575a25.624 25.624 0 01-6.356-4.884 9.886 9.886 0 01-1.4-2.012 2.477 2.477 0 01-.172-.368 5.107 5.107 0 01-.172-3.976 3.847 3.847 0 011.448-2.062l-3.485 2.037a3.979 3.979 0 00-1.45 2.065 5.107 5.107 0 00.172 3.976c.049.123.123.245.172.368a10.274 10.274 0 001.4 2.012 26.223 26.223 0 006.356 4.884 54.372 54.372 0 006.062 2.969l3.485-2.037a54.057 54.057 0 01-6.06-2.972z"/><path fill="#eefaff" d="M73.13 157.656l3.485-2.012.049.1-3.485 2.037z"/><path fill="#eefaff" d="M72.835 148.134a42.174 42.174 0 00-4.54-6.749 9.959 9.959 0 00-2.282-2.012 1.626 1.626 0 00-.466-.221 1.992 1.992 0 00-1.865.025l-3.485 2.037a2 2 0 011.865-.025c.147.074.295.147.466.221a9.961 9.961 0 012.282 2.012 42.175 42.175 0 014.54 6.749 99.279 99.279 0 013.8 7.51l3.485-2.037c-.045-.049-1.665-3.681-3.8-7.51z"/><path fill="#c9ebf7" d="M73.129 157.656l.049.123-.1-.025a46.676 46.676 0 01-5.89-2.847 1.825 1.825 0 01-.294-.172c-4-2.307-6.626-4.663-7.8-6.97a5.4 5.4 0 01-.368-4.491c.761-2.012 1.89-2.724 3.338-2.111.147.074.295.147.466.221 1.841 1.055 4.123 4 6.823 8.761 2.132 3.854 3.752 7.487 3.776 7.511zm-6.209-3.043a54.353 54.353 0 006.062 2.97c-.589-1.3-6.234-13.6-10.479-16.05l-.442-.221c-1.423-.589-2.5.1-3.264 2.086a5.231 5.231 0 00.344 4.344c1.423 2.7 4.737 5.1 7.78 6.872z"/><path fill="#fff" d="M68.295 141.385c-.245-.27-.491-.54-.712-.761l-3.338 2.184a6.685 6.685 0 01.564.614 26.306 26.306 0 011.693 2.184l3.387-2.184a23.8 23.8 0 00-1.594-2.037zM71.289 145.558a52.054 52.054 0 00-1.2-1.841l-3.289 2.331c.221.344.466.687.712 1.08a318.518 318.518 0 003.777-1.57z" opacity=".45"/><path fill="#c9ebf7" d="M72.467 154.54l-3.485-2.037a20.189 20.189 0 014.025 3.19l3.485 2.037a19.3 19.3 0 00-4.025-3.19z"/><path fill="#eefaff" d="M76.492 157.73l-3.485-2.037a64.307 64.307 0 01-6.062 4.025c-2.92 1.693-6.086 3.068-7.583 2.209l3.485 2.037c1.5.859 4.663-.515 7.583-2.209a57.942 57.942 0 006.062-4.025z"/><path fill="#eefaff" d="M69.031 152.355c-2.577-1.5-4.786-1.742-6.553-.712-.147.1-.294.2-.466.294a6.039 6.039 0 00-.933.859 9.1 9.1 0 00-1.473 2.405 16.54 16.54 0 00-.908 2.7c-.54 2.062-.393 3.411.393 4.025a.534.534 0 00.2.123l3.485 2.037c-.074-.049-.123-.074-.2-.123-.785-.614-.933-1.988-.393-4.025a19.272 19.272 0 01.908-2.7 9.794 9.794 0 011.473-2.405 6.044 6.044 0 01.933-.859c.147-.1.294-.2.466-.294 1.767-1.031 3.976-.785 6.553.712z"/><g><path fill="#c9ebf7" d="M65.522 153.975c.147-.1.294-.2.466-.294 1.841-1.055 4.148-.761 6.847.883a21.214 21.214 0 013.829 3.092l.049.049-.1.074a65.2 65.2 0 01-5.89 3.951c-.1.049-.2.123-.295.172-4 2.307-6.626 2.994-7.829 2.061-.785-.614-.933-1.988-.393-4.025.739-2.895 1.843-4.908 3.316-5.963zm-2.847 9.866c1.4 1.1 4.712-.319 7.755-2.086a69.877 69.877 0 006.062-4.025c-.589-.614-6.283-6.381-10.528-3.927a4.27 4.27 0 00-.442.27c-1.423 1.031-2.5 2.994-3.24 5.841-.491 2.012-.368 3.338.393 3.927z"/></g><path fill="#fff" d="M61.915 152.036a4.071 4.071 0 00-.81.785 9.106 9.106 0 00-1.473 2.405c-.123.294-.245.589-.368.908l3.706 1.473c.049-.123.1-.245.147-.344a9.8 9.8 0 011.473-2.405 6.046 6.046 0 01.933-.859.4.4 0 01.172-.1zM58.97 156.945c-.1.319-.2.638-.27.957-.025.1-.049.2-.074.319l3.73 1.153c.123-.393.221-.761.344-1.1z" opacity=".45"/><g><path fill="#c9ebf7" d="M82.873 152.575a25.625 25.625 0 006.356-4.884 9.886 9.886 0 001.4-2.012 2.483 2.483 0 00.172-.368 5.107 5.107 0 00.172-3.976 3.847 3.847 0 00-1.448-2.062l3.485 2.037a3.979 3.979 0 011.448 2.062 5.106 5.106 0 01-.172 3.976c-.049.123-.123.245-.172.368a10.274 10.274 0 01-1.4 2.012 26.222 26.222 0 01-6.356 4.884 54.367 54.367 0 01-6.062 2.969l-3.485-2.037a49.99 49.99 0 006.062-2.969z"/><path fill="#eefaff" d="M80.173 157.656l-3.485-2.012-.049.1 3.485 2.037z"/><path fill="#eefaff" d="M80.464 148.134a42.176 42.176 0 014.54-6.749 9.959 9.959 0 012.282-2.012 1.627 1.627 0 01.466-.221 1.992 1.992 0 011.865.025l3.485 2.037a2 2 0 00-1.865-.025 8.27 8.27 0 01-.466.221 9.96 9.96 0 00-2.282 2.012 42.173 42.173 0 00-4.54 6.749 99.279 99.279 0 00-3.8 7.51l-3.485-2.037c.025-.049 1.644-3.681 3.8-7.51z"/><path fill="#c9ebf7" d="M83.976 150.171c2.675-4.761 4.982-7.706 6.823-8.761a1.628 1.628 0 01.466-.221c1.473-.614 2.577.1 3.338 2.111a5.4 5.4 0 01-.368 4.491c-1.178 2.307-3.8 4.663-7.8 6.97a1.832 1.832 0 00-.295.172 51.127 51.127 0 01-5.89 2.847l-.1.025.049-.123c-.002-.05 1.618-3.682 3.777-7.511zm2.405 4.442c3.043-1.767 6.356-4.172 7.755-6.872a5.141 5.141 0 00.344-4.344c-.736-1.988-1.841-2.675-3.264-2.086a1.859 1.859 0 00-.442.221c-4.246 2.454-9.89 14.75-10.479 16.05a51.743 51.743 0 006.086-2.97z"/><path fill="#fff" d="M85.012 141.385c.245-.27.491-.54.712-.761l3.338 2.184a6.672 6.672 0 00-.564.614 26.292 26.292 0 00-1.693 2.184l-3.393-2.182a19.749 19.749 0 011.6-2.039zM81.989 145.558c.417-.663.81-1.276 1.2-1.841l3.289 2.331c-.221.344-.466.687-.712 1.08a318.518 318.518 0 01-3.777-1.57z" opacity=".45"/><path fill="#c9ebf7" d="M80.836 154.54l3.485-2.037a20.189 20.189 0 00-4.025 3.19l-3.485 2.037a19.3 19.3 0 014.025-3.19z"/><g><path fill="#eefaff" d="M76.786 157.73l3.485-2.037a64.313 64.313 0 006.062 4.025c2.92 1.693 6.086 3.068 7.583 2.209l-3.485 2.037c-1.5.859-4.663-.515-7.583-2.209a64.292 64.292 0 01-6.062-4.025z"/></g><path fill="#eefaff" d="M84.272 152.355c2.577-1.5 4.786-1.742 6.553-.712.147.1.294.2.466.294a6.036 6.036 0 01.933.859 9.1 9.1 0 011.473 2.405 16.543 16.543 0 01.908 2.7c.54 2.062.393 3.411-.393 4.025a.535.535 0 01-.2.123l-3.485 2.037c.074-.049.123-.074.2-.123.785-.614.933-1.988.393-4.025a19.272 19.272 0 00-.908-2.7 9.794 9.794 0 00-1.473-2.405 6.045 6.045 0 00-.933-.859c-.147-.1-.294-.2-.466-.294-1.767-1.031-3.976-.785-6.553.712z"/><g><path fill="#c9ebf7" d="M91.09 159.939c.54 2.061.393 3.411-.393 4.025-1.2.933-3.828.245-7.829-2.061-.1-.049-.2-.123-.294-.172-3.092-1.816-5.865-3.951-5.89-3.951l-.1-.074.049-.049a20.092 20.092 0 013.828-3.092c2.7-1.644 5.007-1.939 6.847-.883.147.1.295.2.466.294 1.455 1.054 2.584 3.067 3.316 5.963zm-.466 3.9c.761-.614.883-1.914.368-3.927-.736-2.822-1.816-4.786-3.24-5.841a4.276 4.276 0 00-.442-.27c-4.246-2.454-9.939 3.289-10.528 3.927a64.309 64.309 0 006.062 4.025c3.043 1.767 6.381 3.19 7.78 2.086z"/></g><path fill="#fff" d="M91.388 152.036a4.072 4.072 0 01.81.785 9.105 9.105 0 011.473 2.405c.123.294.245.589.368.908l-3.706 1.473a6.133 6.133 0 00-.147-.344 9.794 9.794 0 00-1.473-2.405 6.044 6.044 0 00-.933-.859.4.4 0 00-.172-.1zM94.333 156.945c.1.319.2.638.27.957.025.1.049.2.074.319l-3.73 1.153c-.123-.393-.221-.761-.344-1.1z" opacity=".45"/></g></g><g><path fill="#d8e1e6" d="M116.377 235.575l-24.91 14.455-90.215-51.857 24.91-14.455z"/><path fill="#dff1f0" d="M90.166 218.96l-42.972-24.836a74.1 74.1 0 01-18.185-15.363 103.333 103.333 0 01-2.92-3.485L0 190.418a107.68 107.68 0 002.92 3.485 74.015 74.015 0 0018.186 15.363l43 24.812c10.8 6.234 21.253 9.669 31.094 10.258l26.088-15.167c-9.869-.54-20.324-4-31.122-10.209z"/><path fill="#afbdc4" d="M48.739 199.205l-19.093 11.093-1.693-.982 19.092-11.093zM43.511 210.42l-6.8 3.951-1.693-.957 6.8-3.951zM46.996 204.309l-13.817 8.025-1.693-.957 13.817-8.05zM53.28 212.899l-9.547 5.547-1.669-.982 9.522-5.546zM67.783 208.58l-8.148 4.737-1.693-.982 8.148-4.737zM64.249 206.518l-8.148 4.737-1.693-.957 8.148-4.737zM53.991 216.58l-6.724 3.9-1.669-.982 6.7-3.9zM62.016 220.09l-7.682 4.467-1.693-.982 7.706-4.466zM65.182 226.446l-3.779 2.184-1.693-.957 3.779-2.209zM91.933 225.955l-14.553 8.467-1.669-.982 14.529-8.442zM83.491 225.169l-7.485 4.344-1.693-.957 7.485-4.344zM85.011 227.133l-5.62 3.264-1.693-.957 5.62-3.289zM84.227 219.23l-18.48 10.753-.27-.147 18.48-10.749zM73.723 221.489L66.9 225.44l-1.693-.982 6.823-3.951zM71.685 218.568l-13.817 8.025-1.693-.982 13.817-8.025zM59.707 217.341l-8.909 5.178-1.693-.982 8.909-5.178zM39.561 192.284l-9.547 5.522-1.693-.957 9.547-5.546zM26.725 203.819l-4.148 2.405-1.693-.982 4.148-2.405zM35.018 203.082l-8.909 5.178-1.693-.982 8.909-5.154zM27.192 199.45l-8.148 4.737-1.669-.983 8.148-4.737zM57.206 202.469l-3.779 2.209-1.694-.982 3.779-2.209z"/><path fill="#fff" d="M25.94 176.429L1.963 190.81l6.8 7.485 25.867-12.688zM118.143 229.611l-23.067 14.234-10.8-2.258 26.235-12.884z" opacity=".5"/></g></svg>