<svg xmlns="http://www.w3.org/2000/svg" xmlns:xlink="http://www.w3.org/1999/xlink" width="110" height="110" viewBox="0 0 110 110"><defs><linearGradient id="a" x1="0.174" y1="0.127" x2="0.821" y2="0.878" gradientUnits="objectBoundingBox"><stop offset="0" stop-color="#440538"/><stop offset="1" stop-color="#1e223c"/></linearGradient><linearGradient id="b" x1="0.5" x2="0.5" y2="1" gradientUnits="objectBoundingBox"><stop offset="0" stop-color="#480036"/><stop offset="1" stop-color="#2a3149"/></linearGradient><linearGradient id="c" x1="0.127" y1="0.228" x2="0.825" y2="0.815" gradientUnits="objectBoundingBox"><stop offset="0" stop-color="#ffc4a6"/><stop offset="1" stop-color="#fb919d"/></linearGradient></defs><g transform="translate(-776 -740)"><path d="M55,0A55,55,0,1,1,0,55,55,55,0,0,1,55,0Z" transform="translate(776 740)" opacity="0.097" fill="url(#a)"/><g transform="translate(-14 -86)"><g transform="translate(665 741)"><g transform="translate(-244.8 824.26)"><path d="M465.725-636.8H436.013a5,5,0,0,1-5-5v-59.415a5,5,0,0,1,5-5h29.713a5,5,0,0,1,5,5V-641.8A5,5,0,0,1,465.725-636.8Z" transform="translate(-21.722 -8.064)" fill="#fff"/><path d="M467.48-637.1H440.672a3.279,3.279,0,0,1-3.282-3.282v-55.845a3.279,3.279,0,0,1,3.282-3.282H467.48a3.279,3.279,0,0,1,3.282,3.282v55.845A3.279,3.279,0,0,1,467.48-637.1Z" transform="translate(-24.93 -11.437)" fill="url(#b)"/><path d="M469.513-581.309h-9.324a1.068,1.068,0,0,1-1.069-1.069v-.5a1.068,1.068,0,0,1,1.069-1.069h9.324a1.068,1.068,0,0,1,1.069,1.069v.5A1.064,1.064,0,0,1,469.513-581.309Z" transform="translate(-35.854 -69.531)" fill="#fff"/><path d="M469.975-697.925h-14.61a1.012,1.012,0,0,1-1.014-1.014V-700.5a1.012,1.012,0,0,1,1.014-1.014h14.61a1.012,1.012,0,0,1,1.014,1.014v1.556A1.016,1.016,0,0,1,469.975-697.925Z" transform="translate(-33.456 -10.431)" fill="#fff"/><circle cx="13.874" cy="13.874" r="13.874" transform="translate(433.595 -722.26)" fill="url(#c)"/><path d="M425.116-631.768H390.048a2.249,2.249,0,0,1-2.248-2.248v-22.656a2.249,2.249,0,0,1,2.248-2.248h35.068a2.249,2.249,0,0,1,2.248,2.248v22.656A2.252,2.252,0,0,1,425.116-631.768Z" transform="translate(0 -31.842)" fill="#fff"/></g><line x2="29" transform="translate(148.5 140.5)" fill="none" stroke="#e472c7" stroke-width="1"/><line x2="29" transform="translate(148.5 145.5)" fill="none" stroke="#bc8dff" stroke-width="1"/><line x2="15" transform="translate(148.5 150.5)" fill="none" stroke="#bc8dff" stroke-width="1"/><line x2="15" transform="translate(148.5 155.5)" fill="none" stroke="#ede9f7" stroke-width="1"/><g transform="translate(198.852 119.873) rotate(-88)"><ellipse cx="3.939" cy="3.573" rx="3.939" ry="3.573" fill="none"/><path d="M0,2.651,3.079,6,8.89,0" transform="translate(6.72 -0.006) rotate(90)" fill="none" stroke="#fff" stroke-width="1"/></g></g></g></g></svg>