<svg xmlns="http://www.w3.org/2000/svg" xmlns:xlink="http://www.w3.org/1999/xlink" width="54.762" height="81.023" viewBox="0 0 54.762 81.023"><defs><linearGradient id="a" x1="0.174" y1="0.127" x2="0.821" y2="0.878" gradientUnits="objectBoundingBox"><stop offset="0" stop-color="#440538"/><stop offset="1" stop-color="#1e223c"/></linearGradient><linearGradient id="b" x1="1" x2="0" y2="1" gradientUnits="objectBoundingBox"><stop offset="0" stop-color="#410939"/><stop offset="1" stop-color="#2c2644"/></linearGradient><linearGradient id="d" x1="1" x2="0" y2="1" gradientUnits="objectBoundingBox"><stop offset="0" stop-color="#410939"/><stop offset="1" stop-color="#2d2643"/></linearGradient><linearGradient id="e" x1="1" x2="0" y2="1" gradientUnits="objectBoundingBox"><stop offset="0" stop-color="#410939"/><stop offset="1" stop-color="#2d2543"/></linearGradient><linearGradient id="f" y1="1" x2="1" gradientUnits="objectBoundingBox"><stop offset="0" stop-color="#2c2644"/><stop offset="1" stop-color="#410939"/></linearGradient></defs><g transform="translate(-1888 -720)"><g transform="translate(668 -61)"><g transform="translate(1220 781)"><path d="M27.381,0A27.381,27.381,0,1,1,0,27.381,27.381,27.381,0,0,1,27.381,0Z" opacity="0.097" fill="url(#a)"/></g></g><text transform="translate(1915 797.023)" font-size="14" font-family="Roboto-Regular, Roboto"><tspan x="-21.984" y="0">Extrato</tspan></text><path d="M5114.976,586.627c5.338-2.5,5.065,2.4,7.946-.906,1.045-1.2,2.806-.636,4.308-1.858,1.092-.886,1.917-3.561,2.627-4.982.534-1.07.7-3.457,1.888-5.551a13.7,13.7,0,0,1,4.231-4.384c2.047-1.117,5.249,1.749,6.056,6.5.909,5.344-.8,13.069,0,13.717.435.372,2.352-2.213,4.934-5.3,2.03-2.426,4.662-5.314,6.89-6.271" transform="translate(-3219.976 159.958)" fill="none" stroke="#fa9da4" stroke-width="1"/><rect width="4.689" height="13.55" transform="translate(1900.925 748.096)" fill="url(#b)"/><rect width="4.301" height="15.759" transform="translate(1907.699 745.881)" fill="url(#b)"/><rect width="4.559" height="28.14" transform="translate(1913.95 733.506)" fill="url(#d)"/><rect width="4.559" height="9.507" transform="translate(1920.202 752.133)" fill="url(#e)"/><rect width="4.559" height="16.805" transform="translate(1926.847 744.835)" fill="url(#f)"/><circle cx="1.951" cy="1.951" r="1.951" transform="translate(1900.875 743.579)" fill="#fa9da4"/><path d="M204.37,258.65" transform="translate(1692.906 484.234)"/><rect width="30.481" height="1.175" transform="translate(1900.925 763.726)" fill="#410939"/><circle cx="0.975" cy="0.975" r="0.975" transform="translate(1901.85 744.555)" fill="#fff"/><circle cx="1.951" cy="1.951" r="1.951" transform="translate(1907.702 737.728)" fill="#fa9da4"/><circle cx="0.975" cy="0.975" r="0.975" transform="translate(1908.677 738.703)" fill="#fff"/><circle cx="1.951" cy="1.951" r="1.951" transform="translate(1914.528 727)" fill="#fa9da4"/><circle cx="0.975" cy="0.975" r="0.975" transform="translate(1915.504 727.975)" fill="#fff"/><circle cx="1.951" cy="1.951" r="1.951" transform="translate(1920.38 746.505)" fill="#fa9da4"/><circle cx="0.975" cy="0.975" r="0.975" transform="translate(1921.355 747.48)" fill="#fff"/><circle cx="1.951" cy="1.951" r="1.951" transform="translate(1927.207 738.703)" fill="#fa9da4"/><circle cx="0.975" cy="0.975" r="0.975" transform="translate(1928.182 739.678)" fill="#fff"/></g></svg>