<svg xmlns="http://www.w3.org/2000/svg" xmlns:xlink="http://www.w3.org/1999/xlink" width="110" height="110" viewBox="0 0 110 110"><defs><linearGradient id="a" x1="0.174" y1="0.127" x2="0.821" y2="0.878" gradientUnits="objectBoundingBox"><stop offset="0" stop-color="#440538"/><stop offset="1" stop-color="#1e223c"/></linearGradient><linearGradient id="b" y1="1" x2="1" y2="0.052" gradientUnits="objectBoundingBox"><stop offset="0" stop-color="#2b2e47"/><stop offset="1" stop-color="#470036"/></linearGradient><linearGradient id="c" x1="0.127" y1="0.228" x2="0.825" y2="0.815" gradientUnits="objectBoundingBox"><stop offset="0" stop-color="#ffc4a6"/><stop offset="1" stop-color="#fb919d"/></linearGradient></defs><g transform="translate(-1220 -781)"><g transform="translate(81 -32)"><g transform="translate(216 87)"><g transform="translate(147 -14)"><path d="M55,0A55,55,0,1,1,0,55,55,55,0,0,1,55,0Z" transform="translate(776 740)" opacity="0.097" fill="url(#a)"/></g></g></g><g transform="translate(55 64)"><g transform="translate(791.712 1456.284)"><path d="M465.725-636.8H436.013a5,5,0,0,1-5-5v-59.415a5,5,0,0,1,5-5h29.713a5,5,0,0,1,5,5V-641.8A5,5,0,0,1,465.725-636.8Z" transform="translate(-21.722 -8.064)" fill="#fff"/><path d="M467.48-637.1H440.672a3.279,3.279,0,0,1-3.282-3.282v-55.845a3.279,3.279,0,0,1,3.282-3.282H467.48a3.279,3.279,0,0,1,3.282,3.282v55.845A3.279,3.279,0,0,1,467.48-637.1Z" transform="translate(-24.93 -11.437)" fill="url(#b)"/><path d="M469.513-581.309h-9.324a1.068,1.068,0,0,1-1.069-1.069v-.5a1.068,1.068,0,0,1,1.069-1.069h9.324a1.068,1.068,0,0,1,1.069,1.069v.5A1.064,1.064,0,0,1,469.513-581.309Z" transform="translate(-35.854 -69.531)" fill="#fff"/><path d="M469.975-697.925h-14.61a1.012,1.012,0,0,1-1.014-1.014V-700.5a1.012,1.012,0,0,1,1.014-1.014h14.61a1.012,1.012,0,0,1,1.014,1.014v1.556A1.016,1.016,0,0,1,469.975-697.925Z" transform="translate(-33.456 -10.431)" fill="#fff"/></g><circle cx="13.874" cy="13.874" r="13.874" transform="translate(1224.795 733)" fill="url(#c)"/><g transform="translate(1234.852 750.873) rotate(-88)"><ellipse cx="3.939" cy="3.573" rx="3.939" ry="3.573" fill="none"/><path d="M0,2.651,3.079,6,8.89,0" transform="translate(6.72 -0.006) rotate(90)" fill="none" stroke="#fff" stroke-width="1"/></g><g transform="translate(1168 313)"><g transform="translate(40 453)"><path d="M228.492,435.9v0h7.161a1.609,1.609,0,0,0,.556-.078,1.985,1.985,0,0,0,1.326-1.855c-.027-.888-.005-1.779-.005-2.666v-5.124a.266.266,0,0,0-.081-.229q-2.219-1.928-4.434-3.86t-4.423-3.84c-.071-.062-.1-.057-.163,0-.551.486-1.108.967-1.664,1.45-1,.868-2.01,1.727-3.007,2.6q-.661.58-1.323,1.156c-.94.818-1.876,1.644-2.819,2.459a.321.321,0,0,0-.125.272q0,3.945,0,7.889a1.469,1.469,0,0,0,.063.462A2,2,0,0,0,221.4,435.9C223.761,435.885,226.127,435.9,228.492,435.9Z" transform="translate(-215.876 -414.247)" fill="#f5f6f8"/><path d="M205.293,391.589a1.694,1.694,0,0,1,.162.12q1.2,1.043,2.4,2.08l2.041,1.774q.817.711,1.636,1.422,2.007,1.746,4.011,3.494a.306.306,0,0,0,.217.082c.415,0,.83,0,1.245,0a.924.924,0,0,0,.632-1.641c-.7-.629-1.42-1.242-2.133-1.862q-1.425-1.237-2.851-2.471a.341.341,0,0,1-.124-.288q.006-1.827,0-3.654a.9.9,0,0,0-.741-.878c-.333-.043-.667-.009-1-.022a.916.916,0,0,0-.966.965c.008.259,0,.517,0,.776v.632c-1.055-.918-2.091-1.788-3.092-2.7a2.047,2.047,0,0,0-2.571-.216c-.356.259-.675.569-1.009.858q-2.255,1.958-4.511,3.919c-.945.822-1.885,1.651-2.828,2.474s-1.874,1.628-2.811,2.443a.948.948,0,0,0-.251,1.1.906.906,0,0,0,.861.563c.42-.008.841,0,1.261,0a.264.264,0,0,0,.189-.071q.576-.505,1.153-1.006,1.479-1.285,2.957-2.569,1.207-1.049,2.413-2.1,1.36-1.186,2.722-2.371C204.634,392.155,204.965,391.872,205.293,391.589Z" transform="translate(-192.668 -388.845)" fill="#f5f6f8"/><path d="M228.483,435.878c-2.366,0-4.731-.011-7.1.005a2,2,0,0,1-1.843-1.365,1.469,1.469,0,0,1-.063-.462q0-3.945,0-7.889a.321.321,0,0,1,.125-.272c.943-.815,1.878-1.641,2.819-2.459q.663-.576,1.323-1.156c1-.874,2-1.735,3.007-2.6.556-.481,1.112-.962,1.664-1.45.067-.059.092-.065.163,0q2.209,1.924,4.423,3.84t4.434,3.86a.262.262,0,0,1,.081.229q0,2.563,0,5.124c0,.889-.022,1.779.005,2.666A1.987,1.987,0,0,1,236.2,435.8a1.609,1.609,0,0,1-.556.078h-7.161S228.483,435.878,228.483,435.878Z" transform="translate(-215.867 -414.229)" fill="#fff"/><path d="M268.994,488.846c.835,0,1.671,0,2.506,0,.16,0,.21-.036.21-.2-.007-1.417,0-2.835-.005-4.252a1.861,1.861,0,0,0-.267-.988,1.731,1.731,0,0,0-1.5-.879c-.624-.02-1.25-.008-1.876,0a1.636,1.636,0,0,0-.775.19,1.791,1.791,0,0,0-1,1.677c0,1.428,0,2.856,0,4.285,0,.136.04.174.174.172C267.3,488.843,268.147,488.846,268.994,488.846Z" transform="translate(-256.361 -469.895)" fill="#36173e"/><path d="M205.289,391.6c-.327.283-.659.566-.989.853q-1.362,1.184-2.722,2.371-1.207,1.051-2.413,2.1-1.477,1.285-2.957,2.569-.578.5-1.153,1.007a.264.264,0,0,1-.189.071c-.42,0-.841-.008-1.261,0a.905.905,0,0,1-.861-.563.946.946,0,0,1,.251-1.1q1.4-1.223,2.811-2.443c.945-.823,1.884-1.651,2.828-2.474q2.254-1.962,4.511-3.92c.334-.29.653-.6,1.009-.858a2.047,2.047,0,0,1,2.571.216c1,.909,2.037,1.78,3.092,2.7v-.632c0-.259.007-.517,0-.776a.916.916,0,0,1,.966-.965c.333.012.667-.022,1,.022a.9.9,0,0,1,.741.879c0,1.218,0,2.436,0,3.654a.341.341,0,0,0,.124.288q1.429,1.233,2.851,2.471c.713.618,1.43,1.232,2.133,1.862a.924.924,0,0,1-.632,1.641c-.415,0-.83,0-1.245,0a.3.3,0,0,1-.217-.082q-2-1.75-4.011-3.494-.816-.711-1.636-1.422-1.021-.887-2.041-1.774-1.2-1.041-2.4-2.08A1.484,1.484,0,0,0,205.289,391.6Z" transform="translate(-192.665 -388.853)" fill="#fff"/></g></g></g></g></svg>