<svg xmlns="http://www.w3.org/2000/svg" width="45" height="45" viewBox="0 0 45 45"><g transform="translate(-636 -822)"><circle cx="22.5" cy="22.5" r="22.5" transform="translate(636 822)" fill="#f3fafd"/><g transform="translate(-61.488 -37.976)"><path d="M446.946-674.353H433.306a2.3,2.3,0,0,1-2.3-2.3v-27.274a2.3,2.3,0,0,1,2.3-2.3h13.639a2.3,2.3,0,0,1,2.3,2.3v27.274A2.3,2.3,0,0,1,446.946-674.353Z" transform="translate(279.478 1573.196)" fill="#5cadff"/><path d="M451.2-670.861H438.9a1.505,1.505,0,0,1-1.507-1.507V-698a1.505,1.505,0,0,1,1.507-1.507H451.2A1.505,1.505,0,0,1,452.71-698v25.635A1.505,1.505,0,0,1,451.2-670.861Z" transform="translate(274.554 1568.018)" fill="#c2dffc"/><path d="M463.891-582.738h-4.28a.49.49,0,0,1-.491-.491v-.231a.49.49,0,0,1,.491-.491h4.28a.49.49,0,0,1,.491.491v.231A.489.489,0,0,1,463.891-582.738Z" transform="translate(257.784 1478.838)" fill="#5cadff"/><path d="M461.522-699.864h-6.707a.465.465,0,0,1-.466-.466v-.715a.465.465,0,0,1,.466-.466h6.707a.465.465,0,0,1,.466.466v.715A.466.466,0,0,1,461.522-699.864Z" transform="translate(261.465 1569.562)" fill="#5cadff"/></g></g></svg>