<svg xmlns="http://www.w3.org/2000/svg" xmlns:xlink="http://www.w3.org/1999/xlink" width="110" height="110" viewBox="0 0 110 110"><defs><linearGradient id="a" x1="0.174" y1="0.127" x2="0.821" y2="0.878" gradientUnits="objectBoundingBox"><stop offset="0" stop-color="#440538"/><stop offset="1" stop-color="#1e223c"/></linearGradient><linearGradient id="b" y1="1" x2="1" y2="0.052" gradientUnits="objectBoundingBox"><stop offset="0" stop-color="#2b2e47"/><stop offset="1" stop-color="#470036"/></linearGradient><linearGradient id="c" x1="0.127" y1="0.228" x2="0.825" y2="0.815" gradientUnits="objectBoundingBox"><stop offset="0" stop-color="#ffc4a6"/><stop offset="1" stop-color="#fb919d"/></linearGradient></defs><g transform="translate(-2246 -953)"><g transform="translate(1026 172)"><g transform="translate(81 -32)"><g transform="translate(216 87)"><g transform="translate(147 -14)"><path d="M55,0A55,55,0,1,1,0,55,55,55,0,0,1,55,0Z" transform="translate(776 740)" opacity="0.097" fill="url(#a)"/></g></g></g><g transform="translate(55 64)"><g transform="translate(791.712 1456.284)"><path d="M465.725-636.8H436.013a5,5,0,0,1-5-5v-59.415a5,5,0,0,1,5-5h29.713a5,5,0,0,1,5,5V-641.8A5,5,0,0,1,465.725-636.8Z" transform="translate(-21.722 -8.064)" fill="#fff"/><path d="M467.48-637.1H440.672a3.279,3.279,0,0,1-3.282-3.282v-55.845a3.279,3.279,0,0,1,3.282-3.282H467.48a3.279,3.279,0,0,1,3.282,3.282v55.845A3.279,3.279,0,0,1,467.48-637.1Z" transform="translate(-24.93 -11.437)" fill="url(#b)"/><path d="M469.513-581.309h-9.324a1.068,1.068,0,0,1-1.069-1.069v-.5a1.068,1.068,0,0,1,1.069-1.069h9.324a1.068,1.068,0,0,1,1.069,1.069v.5A1.064,1.064,0,0,1,469.513-581.309Z" transform="translate(-35.854 -69.531)" fill="#fff"/><path d="M469.975-697.925h-14.61a1.012,1.012,0,0,1-1.014-1.014V-700.5a1.012,1.012,0,0,1,1.014-1.014h14.61a1.012,1.012,0,0,1,1.014,1.014v1.556A1.016,1.016,0,0,1,469.975-697.925Z" transform="translate(-33.456 -10.431)" fill="#fff"/></g><circle cx="13.874" cy="13.874" r="13.874" transform="translate(1224.795 733)" fill="url(#c)"/><g transform="translate(1234.852 750.873) rotate(-88)"><ellipse cx="3.939" cy="3.573" rx="3.939" ry="3.573" fill="none"/><path d="M0,2.651,3.079,6,8.89,0" transform="translate(6.72 -0.006) rotate(90)" fill="none" stroke="#fff" stroke-width="1"/></g></g></g><g transform="translate(-63 -220)"><g transform="translate(2351 1222)"><path d="M86.135,126.774a1.167,1.167,0,1,0,1.167,1.167A1.168,1.168,0,0,0,86.135,126.774Z" transform="translate(-78.717 -121.162)" fill="#fff"/><path d="M0,50.5v4.3H1.72V70.987H5.266V61.816h5.15v9.172H26.2V54.8h1.72V50.5Zm14.127,5.83H23.5v2.5h-9.37Zm-3.5.753-.005.042c0,.022-.018.127-.024.154l-.019.081a6.088,6.088,0,0,1-1.413,1.489c-.084.034-1.459.249-1.54.244l-.152-.014c-.048-.006-.106-.014-.155-.022a10.444,10.444,0,0,1-1.935-1.212,1.464,1.464,0,0,1-.079-.182,5.8,5.8,0,0,0,.649.568,2.2,2.2,0,0,0,.234.107c-.246-.285,2.85-1.954,2.85-1.059a1.612,1.612,0,0,1-.224.821,1.664,1.664,0,0,0,.55-.523.817.817,0,0,0,.139-.425c0-.049-.005-.138-.005-.138h1.138S10.635,57.037,10.63,57.082ZM16.387,63.3H14.127V60.8h2.261Zm3.679,0H17.805V60.8h2.261Zm3.679,0H21.484V60.8h2.261Z" transform="translate(0 -50.499)" fill="#fff"/></g><rect width="8" height="4" transform="translate(2355 1228)" fill="#fff"/></g></g></svg>