<svg xmlns="http://www.w3.org/2000/svg" xmlns:xlink="http://www.w3.org/1999/xlink" width="110" height="110" viewBox="0 0 110 110"><defs><linearGradient id="a" x1="0.174" y1="0.127" x2="0.821" y2="0.878" gradientUnits="objectBoundingBox"><stop offset="0" stop-color="#440538"/><stop offset="1" stop-color="#1e223c"/></linearGradient><linearGradient id="b" y1="1" x2="1" y2="0.052" gradientUnits="objectBoundingBox"><stop offset="0" stop-color="#2a3048"/><stop offset="1" stop-color="#470036"/></linearGradient><linearGradient id="c" x1="0.913" y1="0.801" x2="0.108" y2="0.216" gradientUnits="objectBoundingBox"><stop offset="0" stop-color="#fb919d"/><stop offset="1" stop-color="#ffc4a6"/></linearGradient><linearGradient id="d" x1="0.913" y1="0.801" x2="0.108" y2="0.216" gradientUnits="objectBoundingBox"><stop offset="0" stop-color="#62c9a1"/><stop offset="1" stop-color="#c8ffa6"/></linearGradient><linearGradient id="e" x1="0.913" y1="0.801" x2="0.108" y2="0.216" gradientUnits="objectBoundingBox"><stop offset="0" stop-color="#de91fb"/><stop offset="1" stop-color="#f5a6ff"/></linearGradient><linearGradient id="f" x1="0.913" y1="0.801" x2="0.108" y2="0.216" gradientUnits="objectBoundingBox"><stop offset="0" stop-color="#91a5fb"/><stop offset="1" stop-color="#a6f5ff"/></linearGradient></defs><g transform="translate(-923 -726)"><g transform="translate(147 -14)"><path d="M55,0A55,55,0,1,1,0,55,55,55,0,0,1,55,0Z" transform="translate(776 740)" opacity="0.097" fill="url(#a)"/></g><g transform="translate(75 -112)"><g transform="translate(474.712 1573.284)"><path d="M465.725-636.8H436.013a5,5,0,0,1-5-5v-59.415a5,5,0,0,1,5-5h29.713a5,5,0,0,1,5,5V-641.8A5,5,0,0,1,465.725-636.8Z" transform="translate(-21.722 -8.064)" fill="#fff"/><path d="M467.48-637.1H440.672a3.279,3.279,0,0,1-3.282-3.282v-55.845a3.279,3.279,0,0,1,3.282-3.282H467.48a3.279,3.279,0,0,1,3.282,3.282v55.845A3.279,3.279,0,0,1,467.48-637.1Z" transform="translate(-24.93 -11.437)" fill="url(#b)"/><path d="M469.513-581.309h-9.324a1.068,1.068,0,0,1-1.069-1.069v-.5a1.068,1.068,0,0,1,1.069-1.069h9.324a1.068,1.068,0,0,1,1.069,1.069v.5A1.064,1.064,0,0,1,469.513-581.309Z" transform="translate(-35.854 -69.531)" fill="#fff"/><path d="M469.975-697.925h-14.61a1.012,1.012,0,0,1-1.014-1.014V-700.5a1.012,1.012,0,0,1,1.014-1.014h14.61a1.012,1.012,0,0,1,1.014,1.014v1.556A1.016,1.016,0,0,1,469.975-697.925Z" transform="translate(-33.456 -10.431)" fill="#fff"/></g><g transform="translate(721 753)"><circle cx="9" cy="9" r="9" transform="translate(139 130)" fill="url(#c)"/><text transform="translate(148 143)" fill="#fff" font-size="10" font-family="Roboto-Bold, Roboto" font-weight="700"><tspan x="-2.869" y="0">1</tspan></text></g><g transform="translate(744 753)"><circle cx="9" cy="9" r="9" transform="translate(139 130)" fill="url(#d)"/><text transform="translate(148 143)" fill="#fff" font-size="10" font-family="Roboto-Bold, Roboto" font-weight="700"><tspan x="-2.869" y="0">9</tspan></text></g><g transform="translate(767 753)"><circle cx="9" cy="9" r="9" transform="translate(139 130)" fill="url(#e)"/><text transform="translate(148 143)" fill="#fff" font-size="10" font-family="Roboto-Bold, Roboto" font-weight="700"><tspan x="-2.869" y="0">7</tspan></text></g><g transform="translate(790 753)"><circle cx="9" cy="9" r="9" transform="translate(139 130)" fill="url(#f)"/><text transform="translate(148 143)" fill="#fff" font-size="10" font-family="Roboto-Bold, Roboto" font-weight="700"><tspan x="-2.869" y="0">6</tspan></text></g></g></g></svg>