<svg xmlns="http://www.w3.org/2000/svg" width="45" height="45" viewBox="0 0 45 45"><g transform="translate(-636 -822)"><circle cx="22.5" cy="22.5" r="22.5" transform="translate(636 822)" fill="#f3fdf7"/><path d="M225.879,395.616c-.265-.023-.378.152-.5.28a49.257,49.257,0,0,1-4.826,4.223c-.42.335-.849.658-1.281.977a.628.628,0,0,0-.276.627c.1,1.238.175,2.479.261,3.741-.3.105-.588.21-.93.331-.568-.841-1.207-1.654-1.7-2.546a5.854,5.854,0,0,0-2.125-1.958c-.708-.471-1.409-.954-2.1-1.425.28-1.191.183-.938,1.2-.876.993.062,1.989.121,2.982.2a.481.481,0,0,0,.459-.241,77.272,77.272,0,0,1,5.418-6.454.677.677,0,0,0,.062-.179c-.7-.362-1.405-.732-2.117-1.09q-2.954-1.483-5.909-2.958c-.452-.226-.907-.444-1.343-.693-.716-.409-.763-.985-.272-1.475a2.168,2.168,0,0,1,2.258-.673c.736.191,1.495.272,2.242.413.179.035.249-.031.366-.171a4.353,4.353,0,0,1,1.569-1.327c.14-.062.253-.132.346.035.16.292.463.448.666.7a3.027,3.027,0,0,1-.634,1.1c.8.245,1.615.269,2.4.444.175.039.257-.109.327-.218a4.065,4.065,0,0,1,1.833-1.537c.226.234.467.467.689.72.148.167.074.35-.035.51-.191.28-.389.553-.619.876l3.052.564c.175.031.245-.1.343-.191,1.884-1.7,3.779-3.379,5.73-5a4.1,4.1,0,0,1,1.927-1.028c1.2-.2,1.713.331,1.518,1.51a4.713,4.713,0,0,1-1.261,2.211c-1.58,1.876-3.188,3.729-4.854,5.531-.128.14-.093.265-.066.424.175.946.335,1.9.51,2.884a7.215,7.215,0,0,1,1.257-.771c.288.222.475.584.856.763a3.6,3.6,0,0,1-1.428,1.822c-.253.183-.362.346-.284.642.179.689.175,1.417.389,2.078.1.066.132,0,.175-.039.829-.669,1.051-.646,1.7.167.1.128.023.218-.027.331a4.308,4.308,0,0,1-1.32,1.549.337.337,0,0,0-.156.409c.167.852.335,1.7.475,2.565a2.04,2.04,0,0,1-1.039,2.11c-.416.292-.9.074-1.187-.479q-1.08-2.125-2.152-4.254-1.2-2.382-2.39-4.768C226,395.885,225.945,395.757,225.879,395.616Z" transform="translate(433.6 450.725)" fill="#75d1a0"/></g></svg>