<svg xmlns="http://www.w3.org/2000/svg" width="45" height="45" viewBox="0 0 45 45"><g transform="translate(-636 -822)"><circle cx="22.5" cy="22.5" r="22.5" transform="translate(636 822)" fill="#fdf3fa"/><g transform="translate(645.088 833.684)"><path d="M193.743,383.606h2.7c.189.637.366,1.228.543,1.818l.449-.071c.319-2.207.637-4.426.98-6.763.378-.035.791-.106,1.192-.106,5.146-.012,10.292.024,15.438-.024,1.027-.012,1.428.319,1.5,1.346.106,1.546.319,3.092.531,4.627a5.08,5.08,0,0,0,.366.968c.118-.024.236-.047.366-.071.106-.531.2-1.05.33-1.676h2.892c.437,1.924.4,1.971-1.546,2.054a12.232,12.232,0,0,0-1.735.354c.932,1.157.7,2.786,2.384,3.033.177.024.354.708.366,1.1.047,1.228.024,2.455.012,3.683,0,.236.059.578-.059.685-1.605,1.357-.826,3.187-.932,4.816-.118,1.959-.165,2.089-2.125,2.1-3.435.035-3.022.071-2.892-2.986.059-1.357-.342-1.782-1.723-1.759-3.73.094-7.46.071-11.189.012-1.074-.012-1.393.342-1.381,1.381.047,3.942.3,3.222-3.612,3.317a1.042,1.042,0,0,1-1.227-1.18c-.024-1.086-.024-2.172-.012-3.258.012-.85.13-1.7-.932-2.113-.212-.083-.3-.649-.319-.991-.047-.944,0-1.888-.024-2.833-.024-1.039-.118-1.936,1.3-2.4.6-.2.85-1.534,1.251-2.349a4.42,4.42,0,0,0-1.346-.614C193.448,385.6,193.436,385.636,193.743,383.606Zm4.981,1.593H216.1c-.236-2.007-.449-3.895-.673-5.843H200.777a1.7,1.7,0,0,0-.7.024c-.319.165-.814.4-.85.649C199.007,381.706,198.889,383.394,198.724,385.2Zm2.018,3.86c-.012-.2-.012-.4-.024-.6-.555-.378-1.192-1.133-1.652-1.039-.59.118-1.027.921-1.534,1.428.5.484.98,1.334,1.487,1.357C199.574,390.228,200.164,389.472,200.742,389.059Zm16.607-.035c-.012-.224-.024-.449-.035-.685-.555-.342-1.074-.9-1.652-.956a1.128,1.128,0,0,0-1.275,1.416c.153.578.85,1.381,1.322,1.393C216.239,390.2,216.806,389.449,217.349,389.024Zm-8.309,2.29a13.5,13.5,0,0,0-.024-1.829c-.035-.283-.366-.531-.555-.791-.165.236-.46.472-.472.72-.047,1.263-.047,2.538-.012,3.8.012.248.307.484.484.72.189-.26.519-.508.555-.791A13.52,13.52,0,0,0,209.04,391.314Zm-4.591,2.974c0-1.971.012-3.612-.024-5.252,0-.118-.342-.342-.5-.307a.611.611,0,0,0-.413.449c-.035,1.452-.035,2.9.012,4.355C203.528,393.7,203.905,393.851,204.448,394.288Zm1.464-.425c.2.047.4.083.6.13.649-1.452.189-3.069.271-4.6.012-.248-.342-.519-.531-.791-.118.047-.224.106-.342.153Zm5.134-5.193c-.873.4-1.1,1.723-.814,4.45a2.515,2.515,0,0,0,.5.873l.319-.177Zm-9.714,4.721c-.366.5-.791.826-.755,1.086.047.319.484.578.755.862.3-.307.72-.567.826-.921C202.217,394.217,201.734,393.863,201.332,393.391Zm13.219,1.169c-.508-.4-.791-.814-1.074-.814s-.791.4-.8.649c-.012.3.366.873.59.885C213.619,395.279,213.973,394.913,214.552,394.559Z" transform="translate(-193.593 -378.46)" fill="#d575dd"/><path d="M197.94,385.066c.165-1.818.283-3.494.508-5.17.035-.26.531-.5.85-.649a1.7,1.7,0,0,1,.7-.024h14.648c.224,1.948.437,3.836.673,5.843Z" transform="translate(-192.809 -378.327)" fill="#edb7fa"/><path d="M200.14,387.692c-.578.413-1.169,1.169-1.723,1.145-.508-.024-.991-.873-1.487-1.357.508-.508.956-1.322,1.534-1.428.46-.094,1.1.661,1.652,1.039C200.129,387.291,200.129,387.491,200.14,387.692Z" transform="translate(-192.992 -377.093)" fill="#fff"/><path d="M214.179,387.662c-.543.425-1.109,1.18-1.641,1.168-.472-.012-1.18-.814-1.322-1.393a1.131,1.131,0,0,1,1.275-1.416c.578.071,1.109.626,1.652.956C214.155,387.213,214.167,387.438,214.179,387.662Z" transform="translate(-190.423 -377.098)" fill="#fff"/><path d="M206.847,389.75a13.5,13.5,0,0,1-.024,1.829c-.035.283-.366.531-.555.791-.165-.236-.472-.472-.484-.72-.047-1.263-.047-2.538.012-3.8.012-.248.307-.484.472-.72.189.26.519.508.555.791A13.49,13.49,0,0,1,206.847,389.75Z" transform="translate(-191.401 -376.896)" fill="#fff"/><path d="M202.936,392.72c-.555-.437-.921-.59-.921-.755-.047-1.452-.047-2.9-.012-4.355a.631.631,0,0,1,.413-.448c.153-.024.5.2.5.307C202.948,389.108,202.936,390.748,202.936,392.72Z" transform="translate(-192.081 -376.891)" fill="#fff"/><path d="M204.03,392.312v-5.1c.118-.047.224-.106.342-.153.189.26.543.531.531.791-.094,1.534.378,3.14-.271,4.6C204.419,392.407,204.231,392.36,204.03,392.312Z" transform="translate(-191.711 -376.909)" fill="#fff"/><path d="M208.522,387.11v5.158l-.319.177c-.165-.3-.46-.567-.5-.873C207.424,388.833,207.649,387.511,208.522,387.11Z" transform="translate(-191.069 -376.9)" fill="#fff"/><path d="M200.266,391.11c.4.472.885.826.826,1.027-.106.354-.531.614-.826.921-.271-.283-.708-.543-.755-.862C199.475,391.936,199.9,391.606,200.266,391.11Z" transform="translate(-192.527 -376.179)" fill="#fff"/><path d="M211.637,392.224c-.59.354-.944.732-1.287.72-.224-.012-.6-.578-.59-.885.012-.248.508-.637.8-.649S211.141,391.823,211.637,392.224Z" transform="translate(-190.678 -376.125)" fill="#fff"/></g></g></svg>