<svg xmlns="http://www.w3.org/2000/svg" xmlns:xlink="http://www.w3.org/1999/xlink" width="110" height="110" viewBox="0 0 110 110"><defs><linearGradient id="a" y1="1" x2="1" y2="0.052" gradientUnits="objectBoundingBox"><stop offset="0" stop-color="#2b2945"/><stop offset="1" stop-color="#420839"/></linearGradient><linearGradient id="b" x1="0.174" y1="0.127" x2="0.821" y2="0.878" gradientUnits="objectBoundingBox"><stop offset="0" stop-color="#440538"/><stop offset="1" stop-color="#1e223c"/></linearGradient></defs><g transform="translate(-1265 -906)"><g transform="translate(1140 828)"><g transform="translate(-266.288 827.284)"><path d="M495.444-650.177H440.3c-5.132,0-9.285-1.807-9.285-4.039v-47.966c0-2.232,4.153-4.039,9.285-4.039h55.148c5.132,0,9.285,1.807,9.285,4.039v47.966C504.729-651.988,500.575-650.177,495.444-650.177Z" transform="translate(-21.722 -8.064)" fill="#fff"/><path d="M498.138-650.479H444.016c-3.664,0-6.626-1.152-6.626-2.579v-43.874c0-1.426,2.962-2.579,6.626-2.579h54.122c3.664,0,6.626,1.153,6.626,2.579v43.874C504.763-651.631,501.8-650.479,498.138-650.479Z" transform="translate(-24.93 -11.437)" fill="url(#a)"/></g><circle cx="16" cy="16" r="16" transform="translate(164 97)" fill="#fff"/><g transform="translate(-2263 167)"><circle cx="4" cy="4" r="4" transform="translate(2439 -64)" fill="#2c2744"/><path d="M9,15c-2.67,0-8,1.34-8,4v2H17V19C17,16.34,11.67,15,9,15Z" transform="translate(2434 -69)" fill="#2c2744"/><path d="M0,0H24V24H0Z" transform="translate(2434 -69)" fill="none"/></g><line x2="52" transform="translate(153.5 136.5)" fill="none" stroke="#fff" stroke-width="2"/><line x2="45" transform="translate(153.5 146.5)" fill="none" stroke="#fff" stroke-width="2"/><line x2="30" transform="translate(153.5 156.5)" fill="none" stroke="#fff" stroke-width="2"/></g><g transform="translate(45 125)"><g transform="translate(81 -32)"><g transform="translate(216 87)"><g transform="translate(147 -14)"><path d="M55,0A55,55,0,1,1,0,55,55,55,0,0,1,55,0Z" transform="translate(776 740)" opacity="0.097" fill="url(#b)"/></g></g></g></g></g></svg>