<svg xmlns="http://www.w3.org/2000/svg" xmlns:xlink="http://www.w3.org/1999/xlink" width="54.762" height="81.023" viewBox="0 0 54.762 81.023"><defs><linearGradient id="a" x1="0.174" y1="0.127" x2="0.821" y2="0.878" gradientUnits="objectBoundingBox"><stop offset="0" stop-color="#440538"/><stop offset="1" stop-color="#1e223c"/></linearGradient><linearGradient id="b" x1="1" y1="0.087" x2="0" y2="1" gradientUnits="objectBoundingBox"><stop offset="0" stop-color="#2c2744"/><stop offset="1" stop-color="#410839"/></linearGradient><linearGradient id="c" y1="0.126" x2="1" y2="1" gradientUnits="objectBoundingBox"><stop offset="0" stop-color="#485272"/><stop offset="1" stop-color="#a24289"/></linearGradient><linearGradient id="d" x1="0.194" y1="0.138" x2="0.765" y2="0.85" gradientUnits="objectBoundingBox"><stop offset="0" stop-color="#ffc3a6"/><stop offset="1" stop-color="#fa98a4"/></linearGradient></defs><g transform="translate(-2076 -720)"><g transform="translate(856 -61)"><g transform="translate(1220 781)"><path d="M27.381,0A27.381,27.381,0,1,1,0,27.381,27.381,27.381,0,0,1,27.381,0Z" opacity="0.097" fill="url(#a)"/></g></g><rect width="22.169" height="12.596" rx="4" transform="matrix(0.956, -0.292, 0.292, 0.956, 2086, 735.482)" fill="#410939"/><path d="M2,0H25.734a5,5,0,0,1,5,5V20.7a5,5,0,0,1-5,5H2a2,2,0,0,1-2-2V2A2,2,0,0,1,2,0Z" transform="translate(2086.368 735.672)" fill="url(#b)"/><path d="M0,0H23.207a4,4,0,0,1,4,4V15.65a4,4,0,0,1-4,4H0a0,0,0,0,1,0,0V0A0,0,0,0,1,0,0Z" transform="translate(2086.368 738.695)" fill="url(#c)"/><circle cx="2.015" cy="2.015" r="2.015" transform="translate(2091.406 746.756)" fill="#fff"/><circle cx="9.321" cy="9.321" r="9.321" transform="translate(2102.49 747.26)" fill="url(#d)"/><rect width="6.046" height="1.008" transform="translate(2109.04 756.329)" fill="#fff"/><text transform="translate(2103 797.023)" font-size="14" font-family="Roboto-Regular, Roboto"><tspan x="-17.801" y="0">Sacar</tspan></text></g></svg>