<svg xmlns="http://www.w3.org/2000/svg" width="45" height="45" viewBox="0 0 45 45"><g transform="translate(-636 -822)"><circle cx="22.5" cy="22.5" r="22.5" transform="translate(636 822)" fill="#fef2f6"/><g transform="translate(-2.556)"><path d="M189.237,461.445a30.465,30.465,0,0,0-1.38,3.262,1.189,1.189,0,0,1-1.443.983,12.572,12.572,0,0,0-2.51.01,2.252,2.252,0,0,1-2.687-1.589,9.44,9.44,0,0,1-.732-6.8c1.119-3.587,4.078-4.789,7.56-4.371a7.131,7.131,0,0,1,5.186,3,7.6,7.6,0,0,1,6.588-3.064,6.333,6.333,0,0,1,6.483,7.3,22.228,22.228,0,0,1-1.349,4.528,1.484,1.484,0,0,1-1.652,1.014c-1.286-.1-2.729.324-3.848-.136-1-.408-1.642-1.694-2.52-2.687-.491,1.014-.962,2-1.443,2.98l-.293.031q-.925-4.172-1.851-8.355c-.136-.01-.272-.01-.408-.021-.575,3-1.161,6-1.736,8.993l-.261-.063c-.46-1.663-.92-3.315-1.391-4.977C189.447,461.466,189.342,461.455,189.237,461.445Z" transform="translate(467.422 381.136)" fill="#f76292"/><path d="M193.166,462.611c.481,2.185.972,4.36,1.453,6.546.115,0,.24.01.355.01.68-1.453,1.359-2.917,2.185-4.684.491,1.767,1.568,1.976,2.865,1.861,1.035-.084,2.081-.021,3.4-.021a14.581,14.581,0,0,1-1.558,2.07c-2.666,2.415-5.375,4.779-8.1,7.121a1.259,1.259,0,0,1-1.161.146,39.817,39.817,0,0,1-9.421-8.689,2.757,2.757,0,0,1-.24-.648c1.087,0,2.07-.052,3.043.01,1.422.094,2.7.063,3.106-1.767.638,2.175,1.276,4.339,1.914,6.514l.345-.063c.544-2.813,1.087-5.615,1.631-8.428A.683.683,0,0,0,193.166,462.611Z" transform="translate(467.55 381.58)" fill="#f76292"/></g></g></svg>