<svg xmlns="http://www.w3.org/2000/svg" xmlns:xlink="http://www.w3.org/1999/xlink" width="110" height="110" viewBox="0 0 110 110"><defs><linearGradient id="a" y1="1" x2="1" y2="0.052" gradientUnits="objectBoundingBox"><stop offset="0" stop-color="#2b2e47"/><stop offset="1" stop-color="#470036"/></linearGradient><linearGradient id="b" x1="0.127" y1="0.228" x2="0.825" y2="0.815" gradientUnits="objectBoundingBox"><stop offset="0" stop-color="#ffc4a6"/><stop offset="1" stop-color="#fb919d"/></linearGradient><linearGradient id="c" x1="0.5" x2="0.5" y2="1" gradientUnits="objectBoundingBox"><stop offset="0" stop-color="#93adfb"/><stop offset="1" stop-color="#a5f2ff"/></linearGradient><linearGradient id="d" x1="0.5" x2="0.5" y2="1" gradientUnits="objectBoundingBox"><stop offset="0" stop-color="#73d2a2"/><stop offset="1" stop-color="#bcf9a5"/></linearGradient><linearGradient id="e" x1="0.174" y1="0.127" x2="0.821" y2="0.878" gradientUnits="objectBoundingBox"><stop offset="0" stop-color="#440538"/><stop offset="1" stop-color="#1e223c"/></linearGradient></defs><g transform="translate(-1061 -797)"><g transform="translate(937 716)"><g transform="translate(-249.288 820.284)"><path d="M465.725-636.8H436.013a5,5,0,0,1-5-5v-59.415a5,5,0,0,1,5-5h29.713a5,5,0,0,1,5,5V-641.8A5,5,0,0,1,465.725-636.8Z" transform="translate(-21.722 -8.064)" fill="#fff"/><path d="M467.48-637.1H440.672a3.279,3.279,0,0,1-3.282-3.282v-55.845a3.279,3.279,0,0,1,3.282-3.282H467.48a3.279,3.279,0,0,1,3.282,3.282v55.845A3.279,3.279,0,0,1,467.48-637.1Z" transform="translate(-24.93 -11.437)" fill="url(#a)"/><path d="M469.513-581.309h-9.324a1.068,1.068,0,0,1-1.069-1.069v-.5a1.068,1.068,0,0,1,1.069-1.069h9.324a1.068,1.068,0,0,1,1.069,1.069v.5A1.064,1.064,0,0,1,469.513-581.309Z" transform="translate(-35.854 -69.531)" fill="#fff"/><path d="M469.975-697.925h-14.61a1.012,1.012,0,0,1-1.014-1.014V-700.5a1.012,1.012,0,0,1,1.014-1.014h14.61a1.012,1.012,0,0,1,1.014,1.014v1.556A1.016,1.016,0,0,1,469.975-697.925Z" transform="translate(-33.456 -10.431)" fill="#fff"/></g><g transform="translate(167 126.992)"><path d="M12.823,1,3,5.366v6.549c0,6.058,4.191,11.722,9.823,13.1a12.671,12.671,0,0,0,7.056-4.836,13.916,13.916,0,0,0,2.768-8.262V5.366Zm0,12h7.64c-.578,4.5-3.58,8.5-7.64,9.758V13.006H5.183V6.785l7.64-3.394V13Z" transform="translate(0.274 0.091)" fill="#fff"/><path d="M0,0H26.2V26.2H0Z" fill="none"/></g><circle cx="13.874" cy="13.874" r="13.874" transform="translate(183.795 97)" fill="url(#b)"/><g transform="translate(193.852 114.873) rotate(-88)"><ellipse cx="3.939" cy="3.573" rx="3.939" ry="3.573" fill="none"/><path d="M0,2.651,3.079,6,8.89,0" transform="translate(6.72 -0.006) rotate(90)" fill="none" stroke="#fff" stroke-width="1"/></g><path d="M18,8H17V6A5,5,0,0,0,7,6V8H6a2.006,2.006,0,0,0-2,2V20a2.006,2.006,0,0,0,2,2H18a2.006,2.006,0,0,0,2-2V10A2.006,2.006,0,0,0,18,8ZM8.9,6a3.1,3.1,0,0,1,6.2,0V8H8.9ZM11,13.324h0v2.617l2,1.991V14H11l1-.676H11Z" transform="translate(134 111)" fill="url(#c)"/><path d="M13.847,5.924h-.7V4.517a3.517,3.517,0,0,0-7.034,0V5.924h-.7A1.411,1.411,0,0,0,4,7.33v7.034a1.411,1.411,0,0,0,1.407,1.407h8.44a1.411,1.411,0,0,0,1.407-1.407V7.33A1.411,1.411,0,0,0,13.847,5.924Zm-6.4-1.407a2.18,2.18,0,0,1,4.361,0V5.924H7.447ZM8.924,9.668h0v1.84l1.407,1.4V10.144H8.924l.7-.475h-.7Z" transform="translate(205 142)" fill="url(#d)"/><path d="M11,4.5h-.5v-1a2.5,2.5,0,0,0-5,0v1H5a1,1,0,0,0-1,1v5a1,1,0,0,0,1,1h6a1,1,0,0,0,1-1v-5A1,1,0,0,0,11,4.5Zm-4.55-1a1.55,1.55,0,0,1,3.1,0v1H6.45ZM7.5,7.162h0V8.47l1,1V7.5h-1L8,7.162H7.5Z" transform="translate(137 158)" fill="#e092fb"/><circle cx="1.5" cy="1.5" r="1.5" transform="translate(145 124)" fill="#fff"/><line y2="4" transform="translate(146.5 124.5)" fill="none" stroke="#fff" stroke-width="1"/></g><g transform="translate(138 71)"><g transform="translate(147 -14)"><path d="M55,0A55,55,0,1,1,0,55,55,55,0,0,1,55,0Z" transform="translate(776 740)" opacity="0.097" fill="url(#e)"/></g></g></g></svg>