<svg xmlns="http://www.w3.org/2000/svg" xmlns:xlink="http://www.w3.org/1999/xlink" width="263.089" height="250.03" viewBox="0 0 263.089 250.03"><defs><clipPath id="a"><path d="M822.816,612.221l.417-1.792-1.2-2.8-3.559-2.037-4.295-.294-6.184,3.387-2.945,5.129-1.35,4.368,1.988,1.988c-.687.466-1.374.933-2.086,1.448l3.828,2.209c6.013-4.295,10.627-6.626,17.719-10.307Z" transform="translate(-803.6 -605.3)"/></clipPath><clipPath id="b"><path d="M499.591,290.839l-.025-5.939L467,303.723l.025,5.939,10.038-5.792.442.393,7.927,2.037,6.651-.908,3.387-5.056s-.123-4.393-.147-7.019Z" transform="translate(-467 -284.9)"/></clipPath></defs><g transform="translate(31.634 87.42)"><path d="M252.577,724.5l5.792,2.258-50.237,29.18-6.43-7.043-10.6-2.724,10.136-5.424Z" transform="translate(-191.1 -663.44)" fill="#d8e1e6"/><path d="M214.7,500.438l10.209,1.669,2.871,5.939,42.825-24.738L260.4,481.639l-2.871-5.939Z" transform="translate(-208.908 -475.7)" fill="#fee47f"/><path d="M222.8,503.013,263.343,479.6l2.552,5.276.147.319.344.049,8.344,1.374-40.543,23.413-2.552-5.276-.172-.319-.344-.049Z" transform="translate(-215.02 -478.643)" fill="#fec007"/><path d="M337.4,500.362,349.818,479.6l4.81,10.823Z" transform="translate(-301.496 -478.643)" fill="#fe9f00"/><path d="M305.241,506.7l4.123,55.857L260.6,590.706l1.816-59.268Z" transform="translate(-243.544 -499.092)" fill="#feb200"/><path d="M201.948,576.5,197.8,634.443l9.3,2.331,5.056-58.606Z" transform="translate(-196.156 -551.762)" fill="#feb200"/><path d="M240.756,583.3,235.7,641.905l6.111,6.6,1.816-59.268Z" transform="translate(-224.754 -556.893)" fill="#fe9f00"/><path d="M398.547,502.4l.344.049,8.344,1.374-8.835,5.1Z" transform="translate(-347.525 -495.847)" fill="#fe9f00"/><path d="M387.925,479.6l2.552,5.276.147.319-.147,6.528L387.9,493.2Z" transform="translate(-339.602 -478.643)" fill="#fe8e00"/><path d="M208.8,640.237,220.457,583.3,215.4,641.905Z" transform="translate(-204.456 -556.893)" fill="#fec007"/><g transform="translate(30.088 15.754)"><g transform="translate(0.761 1.205)"><path d="M326.592,578.888h.123c8.663-.294,10.111-25.352,10.185-34.088h-.687c-.074,8.2-1.546,33.524-9.547,33.794-6.234.2-8.663-16.026-9.179-22.357l-.687.049C317.438,563.574,319.99,578.888,326.592,578.888Z" transform="translate(-316.8 -544.8)" fill="#dbdbdb"/></g><g transform="translate(19.437)"><path d="M393.857,540.016a2.105,2.105,0,0,0-.957,1.644c0,.614.442.859.957.54a2.1,2.1,0,0,0,.957-1.644C394.814,539.967,394.372,539.722,393.857,540.016Z" transform="translate(-392.9 -539.891)" fill="#fff"/></g><g transform="translate(0 11.495)"><path d="M314.657,586.869a2.1,2.1,0,0,0-.957,1.644c0,.614.442.859.957.54a2.1,2.1,0,0,0,.957-1.644C315.614,586.8,315.2,586.55,314.657,586.869Z" transform="translate(-313.7 -586.729)" fill="#fff"/></g></g></g><g transform="translate(166.497 88.747)"><path d="M759.717,499.8c.589-4.049-1.374-7.632-4.491-8.491l-2.16-.614c3.141.884,5.1,4.442,4.491,8.491-.663,4.491-4.221,7.878-7.927,7.559a4.517,4.517,0,0,1-1.031-.2l2.16.614a7.62,7.62,0,0,0,1.031.2C755.5,507.683,759.055,504.3,759.717,499.8Z" transform="translate(-742.907 -489.179)" fill="#f79826"/><g transform="translate(2.648 1.699)"><path d="M744.219,491.445c3.706.319,6.184,4.2,5.546,8.688-.663,4.491-4.221,7.878-7.927,7.559s-6.184-4.2-5.546-8.688C736.955,494.537,740.489,491.151,744.219,491.445Z" transform="translate(-736.192 -491.427)" fill="#feb200"/></g><g transform="translate(6.953 3.852)"><path d="M758.464,500.3l-.2,1.4a2.379,2.379,0,0,1,.834.393,2,2,0,0,1,.589.687,2.742,2.742,0,0,1,.295.957,3.823,3.823,0,0,1-.025,1.178l-1.841-.147a2.927,2.927,0,0,0,.025-.638,1.3,1.3,0,0,0-.123-.466.625.625,0,0,0-.221-.27.7.7,0,0,0-.319-.1.9.9,0,0,0-.368.049,1.09,1.09,0,0,0-.27.2,1.323,1.323,0,0,0-.172.319,1.838,1.838,0,0,0-.1.393,2.39,2.39,0,0,0-.025.393,1.012,1.012,0,0,0,.344.663,2.051,2.051,0,0,0,.417.319,8.507,8.507,0,0,1,.908.638,3.639,3.639,0,0,1,.687.687,2.117,2.117,0,0,1,.393.859,2.968,2.968,0,0,1,.025,1.153,2.677,2.677,0,0,1-.319,1.031,2.923,2.923,0,0,1-.564.761,2.837,2.837,0,0,1-.785.491,3.02,3.02,0,0,1-.957.2l-.2,1.325-.884-.074.2-1.325a2.761,2.761,0,0,1-.884-.344,2.193,2.193,0,0,1-.712-.638,2.492,2.492,0,0,1-.417-1.006,3.807,3.807,0,0,1,0-1.4l1.841.147a2.556,2.556,0,0,0-.025.736,1.284,1.284,0,0,0,.172.491.624.624,0,0,0,.294.27,1.03,1.03,0,0,0,.393.1.838.838,0,0,0,.368-.049.7.7,0,0,0,.27-.2,1.237,1.237,0,0,0,.2-.295,1.839,1.839,0,0,0,.1-.393,3.3,3.3,0,0,0,.025-.466,1.086,1.086,0,0,0-.123-.368,1.4,1.4,0,0,0-.245-.319,2.717,2.717,0,0,0-.393-.295c-.344-.2-.638-.417-.932-.614a3.041,3.041,0,0,1-.687-.687,2.117,2.117,0,0,1-.393-.859,3.544,3.544,0,0,1-.025-1.153,2.693,2.693,0,0,1,.319-1.006,2.266,2.266,0,0,1,.589-.761,2.471,2.471,0,0,1,.81-.491,3.174,3.174,0,0,1,.982-.2l.2-1.374Z" transform="translate(-753.736 -500.2)" fill="#fee47f"/></g><path d="M738.4,520.019c.417,3.019,2.43,5.35,5.178,5.571,3.46.294,6.773-2.871,7.412-7.068a9.042,9.042,0,0,0-.025-2.822Z" transform="translate(-735.21 -508.044)" fill="#fff" opacity="0.3"/><path d="M727.685,493.9c.761-5.2,4.884-9.13,9.179-8.761a4.955,4.955,0,0,1,1.2.221l-2.16-.614a9.464,9.464,0,0,0-1.2-.221c-4.295-.368-8.418,3.559-9.179,8.761-.687,4.712,1.6,8.835,5.2,9.841l2.16.614C729.255,502.736,726.973,498.613,727.685,493.9Z" transform="translate(-725.403 -484.503)" fill="#fee47f"/><g transform="translate(2.153 0.617)"><path d="M743.483,487.036c4.319.368,7.191,4.859,6.405,10.062-.761,5.2-4.884,9.13-9.179,8.761S733.519,501,734.3,495.8C735.065,490.619,739.164,486.692,743.483,487.036Zm-2.577,17.547c3.706.319,7.264-3.068,7.927-7.559s-1.816-8.369-5.546-8.688c-3.706-.319-7.264,3.068-7.927,7.559s1.816,8.369,5.546,8.688Z" transform="translate(-734.176 -487.015)" fill="#fed44f"/></g><g transform="translate(0.146 1.865)" opacity="0.3"><path d="M728.945,510.623l-2.356-.123a10.6,10.6,0,0,0-.589,2.184l2.282-.1A13.182,13.182,0,0,1,728.945,510.623Z" transform="translate(-726 -505.984)" fill="#fff"/><path d="M732.873,492.1a10.77,10.77,0,0,0-2.773,3.534l2.356.2a10.345,10.345,0,0,1,2.651-3.215Z" transform="translate(-729.094 -492.1)" fill="#fff"/></g><path d="M735.453,495.961c.663-4.491,4.221-7.878,7.927-7.559a5.668,5.668,0,0,1,4.148,2.405c.393-.172.785-.344,1.129-.491a6.627,6.627,0,0,0-5.1-3.19c-4.295-.368-8.418,3.559-9.179,8.761-.025.245-.074.491-.074.736.344-.147.736-.319,1.129-.491A.477.477,0,0,0,735.453,495.961Z" transform="translate(-732.117 -486.465)" fill="#fff" opacity="0.3"/></g><g transform="translate(155.265 76.651)"><path d="M702.717,442.832c-3.362-2.356-7.436-2.184-9.62.2l-1.5,1.644c2.184-2.405,6.258-2.552,9.62-.2,3.706,2.6,5.154,7.289,3.215,10.479a5.355,5.355,0,0,1-.638.834l1.5-1.644a7.475,7.475,0,0,0,.638-.834C707.871,450.121,706.423,445.434,702.717,442.832Z" transform="translate(-688.9 -439.956)" fill="#f79826"/><g transform="translate(2.252 1.612)"><path d="M690.638,445.585c1.939-3.19,6.528-3.657,10.234-1.055s5.154,7.289,3.215,10.479-6.528,3.657-10.234,1.055C690.123,453.463,688.7,448.775,690.638,445.585Z" transform="translate(-689.773 -442.848)" fill="#feb200"/></g><g transform="translate(5.056 4.447)"><path d="M701.691,454.4l1.178.81a2.276,2.276,0,0,1,.736-.564,2.6,2.6,0,0,1,.884-.221,3.53,3.53,0,0,1,.982.147,4.785,4.785,0,0,1,1.055.54l-.957,1.6a2.693,2.693,0,0,0-.564-.319,1.138,1.138,0,0,0-.466-.1.712.712,0,0,0-.344.074.78.78,0,0,0-.245.245.968.968,0,0,0-.123.344,1.241,1.241,0,0,0,.049.319,2.051,2.051,0,0,0,.2.294,2.935,2.935,0,0,0,.294.27c.123.074.245.147.344.2a.564.564,0,0,0,.344.049,1.219,1.219,0,0,0,.393-.074,2.618,2.618,0,0,0,.466-.221q.515-.295.957-.515a3.421,3.421,0,0,1,.933-.294,2.515,2.515,0,0,1,.957.025,3.607,3.607,0,0,1,1.816,1.227,2.423,2.423,0,0,1,.417.834,2.25,2.25,0,0,1,.074.908,3.282,3.282,0,0,1-.245.933l1.08.761-.466.736-1.1-.761a2.836,2.836,0,0,1-.687.638,2.292,2.292,0,0,1-.883.344,2.769,2.769,0,0,1-1.08-.074,3.677,3.677,0,0,1-1.252-.614l.957-1.571a2.145,2.145,0,0,0,.663.344,1.373,1.373,0,0,0,.515.074,1.084,1.084,0,0,0,.393-.147,1.046,1.046,0,0,0,.27-.294.731.731,0,0,0,.123-.344.835.835,0,0,0-.049-.344.777.777,0,0,0-.2-.295,1.608,1.608,0,0,0-.295-.27,2.328,2.328,0,0,0-.417-.221.644.644,0,0,0-.368-.049.841.841,0,0,0-.393.1,1.86,1.86,0,0,0-.442.221,10.028,10.028,0,0,1-.957.54,3.347,3.347,0,0,1-.908.319,2.534,2.534,0,0,1-.957-.025,3.246,3.246,0,0,1-1.031-.491,3.117,3.117,0,0,1-.761-.736,2.533,2.533,0,0,1-.417-.859,2.371,2.371,0,0,1-.074-.933,2.812,2.812,0,0,1,.27-.957l-1.153-.785Z" transform="translate(-701.2 -454.4)" fill="#fee47f"/></g><path d="M716.9,459.479c2.9.982,5.865.221,7.313-2.135,1.816-2.97.466-7.362-2.994-9.792a9.332,9.332,0,0,0-2.528-1.252Z" transform="translate(-707.991 -443.841)" fill="#fff" opacity="0.3"/><path d="M686.807,458.33c-4.295-3.019-5.964-8.442-3.706-12.148a7.318,7.318,0,0,1,.736-.982l-1.5,1.644a6.026,6.026,0,0,0-.736.982c-2.258,3.681-.589,9.13,3.706,12.148,3.878,2.724,8.614,2.552,11.142-.245l1.5-1.644C695.421,460.858,690.709,461.054,686.807,458.33Z" transform="translate(-680.597 -443.011)" fill="#fee47f"/><g transform="translate(1.497)"><path d="M687.7,439.451c2.258-3.681,7.559-4.246,11.878-1.227,4.295,3.019,5.964,8.442,3.706,12.148-2.258,3.681-7.559,4.221-11.878,1.227C687.115,448.58,685.446,443.132,687.7,439.451Zm14.5,10.185c1.939-3.19.515-7.878-3.215-10.479-3.706-2.6-8.3-2.135-10.234,1.055s-.515,7.878,3.215,10.479c3.706,2.577,8.3,2.111,10.234-1.055Z" transform="translate(-686.697 -436.28)" fill="#fed44f"/></g><g transform="translate(0.197 8.668)" opacity="0.3"><path d="M693.253,490.4l-1.153,2.037a9.983,9.983,0,0,0,1.693,1.5l.957-2.086A10.481,10.481,0,0,1,693.253,490.4Z" transform="translate(-689.474 -485.786)" fill="#fff"/><path d="M681.4,473.367a10.566,10.566,0,0,0,1.914,4.049l1.252-2.012a10.55,10.55,0,0,1-1.693-3.8Z" transform="translate(-681.4 -471.6)" fill="#fff"/></g><path d="M691.974,450.832c-3.706-2.6-5.154-7.289-3.215-10.479a5.584,5.584,0,0,1,4-2.626c.025-.442.049-.859.074-1.227a6.616,6.616,0,0,0-5.129,3.117c-2.258,3.681-.589,9.13,3.706,12.148.2.147.417.27.614.417.025-.393.049-.81.074-1.227Z" transform="translate(-685.2 -436.446)" fill="#fff" opacity="0.3"/></g><g transform="translate(145.763 217.684)"><path d="M659.707,1012.25a15.441,15.441,0,0,0-13.989,0c-1.939,1.129-3.019,2.675-3.019,4.319,0,1.669,1.08,3.215,3.068,4.344a14.176,14.176,0,0,0,6.994,1.669,14.446,14.446,0,0,0,6.994-1.669c1.939-1.129,3.019-2.675,3.019-4.319C662.775,1014.925,661.671,1013.379,659.707,1012.25Z" transform="translate(-642.7 -1007.391)" fill="#d8e1e6"/><g transform="translate(1.792 0.761)"><path d="M666.492,1005.51v3.141c0-1.227-.81-2.454-2.43-3.411a12.843,12.843,0,0,0-11.657,0c-1.6.933-2.405,2.135-2.405,3.362v-3.141c0-1.2.81-2.43,2.405-3.362a12.843,12.843,0,0,1,11.657,0,4.15,4.15,0,0,1,2.43,3.411Z" transform="translate(-650 -1000.7)" fill="#f79826"/></g><g transform="translate(1.81 1.301)"><path d="M664.119,1004.3c3.24,1.865,3.24,4.884.049,6.749a12.842,12.842,0,0,1-11.657,0c-3.239-1.865-3.239-4.884-.049-6.749A12.842,12.842,0,0,1,664.119,1004.3Z" transform="translate(-650.075 -1002.9)" fill="#feb200"/></g><g transform="translate(0.466 5.497)"><path d="M663.718,1020.074v3.141c0,1.4-.933,2.822-2.773,3.878a14.921,14.921,0,0,1-13.522,0c-1.89-1.08-2.822-2.5-2.822-3.951V1020c0,1.423.933,2.847,2.822,3.951a14.922,14.922,0,0,0,13.522,0c1.841-1.08,2.773-2.479,2.773-3.878Z" transform="translate(-644.6 -1020)" fill="#fed44f"/></g><g transform="translate(5.694 2.577)"><path d="M671.643,1009.033l-1.571.908a4.877,4.877,0,0,0-.515-.245,3.987,3.987,0,0,0-.466-.1,2.246,2.246,0,0,0-.417.025,1.42,1.42,0,0,0-.344.123,1.2,1.2,0,0,0-.245.2.33.33,0,0,0-.049.2.434.434,0,0,0,.123.2,2.141,2.141,0,0,0,.245.2,1.848,1.848,0,0,0,.319.147,1.479,1.479,0,0,0,.368.049,3.3,3.3,0,0,0,.466-.025c.172-.025.368-.049.589-.1.442-.1.834-.2,1.227-.27a6.1,6.1,0,0,1,1.129-.123,4.6,4.6,0,0,1,1.031.1,3.664,3.664,0,0,1,.982.368,2.255,2.255,0,0,1,.614.515.984.984,0,0,1,.2.564,1.046,1.046,0,0,1-.2.564,2.177,2.177,0,0,1-.589.565l.957.54-.736.442-.957-.54a5.5,5.5,0,0,1-.957.344,3.951,3.951,0,0,1-1.08.147,4.491,4.491,0,0,1-2.331-.589l1.571-.908a5.785,5.785,0,0,0,.589.27,2.195,2.195,0,0,0,.54.074,1.43,1.43,0,0,0,.466-.074,1.908,1.908,0,0,0,.393-.172.736.736,0,0,0,.245-.221.25.25,0,0,0,.049-.221.3.3,0,0,0-.1-.2,1.073,1.073,0,0,0-.245-.2,2.486,2.486,0,0,0-.368-.172,1.86,1.86,0,0,0-.393-.074,3.13,3.13,0,0,0-.466.025c-.172.025-.344.049-.564.1-.442.1-.834.2-1.227.27a6.08,6.08,0,0,1-1.1.123,3.676,3.676,0,0,1-1.031-.1,3.289,3.289,0,0,1-.982-.393,1.541,1.541,0,0,1-.589-.515.811.811,0,0,1-.172-.564.979.979,0,0,1,.221-.589,2.835,2.835,0,0,1,.614-.589l-.982-.564.736-.442,1.006.589a3.484,3.484,0,0,1,.982-.295,3.655,3.655,0,0,1,1.031-.074,5.018,5.018,0,0,1,1.031.172A7.751,7.751,0,0,0,671.643,1009.033Z" transform="translate(-665.9 -1008.1)" fill="#fee47f"/></g><path d="M666.338,1018.949l-14.013-4.049c-1.325,1.669-.785,3.706,1.6,5.08a12.167,12.167,0,0,0,11.044,0A5.587,5.587,0,0,0,666.338,1018.949Z" transform="translate(-649.429 -1010.654)" fill="#fff" opacity="0.3"/><g transform="translate(0.466)"><path d="M660.9,999.22c3.755,2.16,3.755,5.669.049,7.829a14.921,14.921,0,0,1-13.522,0c-3.755-2.16-3.755-5.669-.049-7.829A14.921,14.921,0,0,1,660.9,999.22Zm-12.541,7.289a12.843,12.843,0,0,0,11.657,0c3.215-1.865,3.19-4.884-.049-6.749a12.842,12.842,0,0,0-11.657,0c-3.19,1.865-3.19,4.884.049,6.749Z" transform="translate(-644.6 -997.6)" fill="#fee47f"/></g><path d="M659.213,1022.244a12.973,12.973,0,0,1-10.847-.417c-1.693-.982-2.5-2.282-2.43-3.558l-1.276-.368c-.27,1.6.663,3.24,2.773,4.467a14.981,14.981,0,0,0,13.032.245Z" transform="translate(-644.145 -1012.918)" fill="#fff" opacity="0.3"/><g transform="translate(2.061 8.786)"><path d="M666.692,1041.921c-.368-.074-.712-.147-1.055-.221l-.736,2.5c.319.1.663.2,1.006.27Z" transform="translate(-661.513 -1039.663)" fill="#fff" opacity="0.3"/><path d="M654.094,1037.793l.638-2.5a10.362,10.362,0,0,1-2.381-1.006,8.1,8.1,0,0,1-1.252-.883l.1,2.8a8.267,8.267,0,0,0,1.129.785A9.7,9.7,0,0,0,654.094,1037.793Z" transform="translate(-651.1 -1033.4)" fill="#fff" opacity="0.3"/></g></g><g transform="translate(107.722 208.898)"><path d="M508.207,976.35a15.441,15.441,0,0,0-13.989,0c-1.939,1.129-3.019,2.675-3.019,4.319,0,1.669,1.08,3.215,3.068,4.344a14.176,14.176,0,0,0,6.994,1.669,14.445,14.445,0,0,0,6.994-1.669c1.939-1.129,3.019-2.675,3.019-4.319C511.275,979.025,510.2,977.479,508.207,976.35Z" transform="translate(-491.2 -971.515)" fill="#d8e1e6"/><g transform="translate(1.792 0.736)"><path d="M514.992,969.61v3.141c0-1.227-.81-2.454-2.43-3.411a12.842,12.842,0,0,0-11.657,0c-1.6.933-2.405,2.135-2.405,3.362v-3.141c0-1.2.81-2.43,2.405-3.362a12.842,12.842,0,0,1,11.657,0c1.62.957,2.43,2.184,2.43,3.411Z" transform="translate(-498.5 -964.8)" fill="#f79826"/></g><g transform="translate(1.81 1.276)"><path d="M512.619,968.4c3.24,1.865,3.24,4.884.049,6.749a12.843,12.843,0,0,1-11.657,0c-3.239-1.865-3.239-4.884-.049-6.749A12.843,12.843,0,0,1,512.619,968.4Z" transform="translate(-498.575 -967)" fill="#feb200"/></g><g transform="translate(0.466 5.473)"><path d="M512.218,984.174v3.141c0,1.4-.933,2.822-2.773,3.877a14.921,14.921,0,0,1-13.522,0c-1.89-1.08-2.822-2.5-2.822-3.951V984.1c0,1.423.933,2.847,2.822,3.951a14.921,14.921,0,0,0,13.522,0c1.865-1.055,2.773-2.454,2.773-3.878Z" transform="translate(-493.1 -984.1)" fill="#fed44f"/></g><g transform="translate(5.694 2.577)"><path d="M520.143,973.232l-1.571.908a4.881,4.881,0,0,0-.515-.245,3.992,3.992,0,0,0-.466-.1,2.246,2.246,0,0,0-.417.025,1.42,1.42,0,0,0-.344.123,1.2,1.2,0,0,0-.245.2.33.33,0,0,0-.049.2.434.434,0,0,0,.123.2,2.135,2.135,0,0,0,.245.2,1.853,1.853,0,0,0,.319.147,1.486,1.486,0,0,0,.368.049,3.3,3.3,0,0,0,.466-.025c.172-.025.368-.049.589-.1.442-.1.834-.2,1.227-.27A6.1,6.1,0,0,1,521,974.41a4.6,4.6,0,0,1,1.031.1,3.663,3.663,0,0,1,.982.368,2.252,2.252,0,0,1,.614.515.983.983,0,0,1,.2.564,1.046,1.046,0,0,1-.2.564,2.177,2.177,0,0,1-.589.564l.957.54-.736.442-.957-.54a5.5,5.5,0,0,1-.957.344,3.955,3.955,0,0,1-1.08.147,4.493,4.493,0,0,1-2.331-.589l1.571-.908a5.776,5.776,0,0,0,.589.27,2.189,2.189,0,0,0,.54.074,1.429,1.429,0,0,0,.466-.074,1.9,1.9,0,0,0,.393-.172.736.736,0,0,0,.245-.221.25.25,0,0,0,.049-.221.3.3,0,0,0-.1-.2,1.068,1.068,0,0,0-.245-.2,2.477,2.477,0,0,0-.368-.172,1.861,1.861,0,0,0-.393-.074,3.131,3.131,0,0,0-.466.025c-.172.025-.344.049-.564.1-.442.1-.834.2-1.227.27a6.074,6.074,0,0,1-1.1.123,3.676,3.676,0,0,1-1.031-.1,3.289,3.289,0,0,1-.982-.393,1.541,1.541,0,0,1-.589-.515.811.811,0,0,1-.172-.564.979.979,0,0,1,.221-.589,2.838,2.838,0,0,1,.614-.589l-.982-.564.736-.442,1.006.589a3.481,3.481,0,0,1,.982-.295,3.654,3.654,0,0,1,1.031-.074,5.023,5.023,0,0,1,1.031.172C519.529,972.913,519.848,973.061,520.143,973.232Z" transform="translate(-514.4 -972.3)" fill="#fee47f"/></g><path d="M514.838,983.125,500.825,979.1c-1.325,1.669-.785,3.706,1.6,5.08a12.167,12.167,0,0,0,11.044,0A5.207,5.207,0,0,0,514.838,983.125Z" transform="translate(-497.929 -974.854)" fill="#fff" opacity="0.3"/><g transform="translate(0.491)"><path d="M509.5,963.42c3.755,2.16,3.755,5.669.049,7.829a14.921,14.921,0,0,1-13.522,0c-3.755-2.16-3.755-5.669-.049-7.829A14.921,14.921,0,0,1,509.5,963.42Zm-12.565,7.289a12.842,12.842,0,0,0,11.657,0c3.215-1.865,3.19-4.884-.049-6.749a12.842,12.842,0,0,0-11.657,0c-3.19,1.865-3.166,4.884.049,6.749Z" transform="translate(-493.2 -961.8)" fill="#fee47f"/></g><path d="M507.813,986.444a12.974,12.974,0,0,1-10.847-.417c-1.693-.982-2.5-2.282-2.43-3.559l-1.276-.368c-.27,1.6.663,3.239,2.773,4.467a14.981,14.981,0,0,0,13.032.245Z" transform="translate(-492.72 -977.118)" fill="#fff" opacity="0.3"/><g transform="translate(2.061 8.786)"><path d="M515.192,1006.021c-.368-.074-.712-.147-1.055-.221l-.736,2.5c.319.1.663.2,1.006.27Z" transform="translate(-510.013 -1003.788)" fill="#fff" opacity="0.3"/><path d="M502.594,1001.993l.638-2.5a10.366,10.366,0,0,1-2.381-1.006,8.1,8.1,0,0,1-1.252-.884l.1,2.8a8.278,8.278,0,0,0,1.129.785A11.7,11.7,0,0,0,502.594,1001.993Z" transform="translate(-499.6 -997.6)" fill="#fff" opacity="0.3"/></g></g><g transform="translate(116.152 177.742)"><g transform="translate(1.644 10.479)"><path d="M548.407,896.25a15.441,15.441,0,0,0-13.989,0c-1.939,1.129-3.019,2.675-3.019,4.319,0,1.669,1.08,3.215,3.068,4.344a14.175,14.175,0,0,0,6.994,1.669,14.445,14.445,0,0,0,6.994-1.669c1.939-1.129,3.019-2.675,3.019-4.319C551.475,898.925,550.4,897.379,548.407,896.25Z" transform="translate(-531.4 -891.415)" fill="#d8e1e6"/><g transform="translate(1.792 0.736)"><path d="M555.192,889.51v3.141c0-1.227-.81-2.454-2.43-3.411a12.842,12.842,0,0,0-11.657,0c-1.6.933-2.405,2.135-2.405,3.362v-3.141c0-1.2.81-2.43,2.405-3.362a12.843,12.843,0,0,1,11.657,0c1.62.957,2.43,2.184,2.43,3.411Z" transform="translate(-538.7 -884.7)" fill="#f79826"/></g><g transform="translate(1.81 1.276)"><path d="M552.819,888.3c3.24,1.865,3.24,4.884.049,6.749a12.843,12.843,0,0,1-11.657,0c-3.24-1.865-3.24-4.884-.049-6.749A12.843,12.843,0,0,1,552.819,888.3Z" transform="translate(-538.775 -886.9)" fill="#feb200"/></g><g transform="translate(0.466 5.473)"><path d="M552.418,904.074v3.141c0,1.4-.933,2.822-2.773,3.878a14.921,14.921,0,0,1-13.522,0c-1.89-1.08-2.822-2.5-2.822-3.951V904c0,1.423.933,2.847,2.822,3.951a14.921,14.921,0,0,0,13.522,0c1.841-1.055,2.773-2.479,2.773-3.878Z" transform="translate(-533.3 -904)" fill="#fed44f"/></g><g transform="translate(5.694 2.577)"><path d="M560.343,893.132l-1.571.908a4.877,4.877,0,0,0-.515-.245,3.985,3.985,0,0,0-.466-.1,2.245,2.245,0,0,0-.417.025,1.419,1.419,0,0,0-.344.123,1.191,1.191,0,0,0-.245.2.329.329,0,0,0-.049.2.337.337,0,0,0,.123.2,2.146,2.146,0,0,0,.245.2,1.842,1.842,0,0,0,.319.147,1.479,1.479,0,0,0,.368.049,3.3,3.3,0,0,0,.466-.025c.172-.025.368-.049.589-.1.442-.1.834-.2,1.227-.27a6.1,6.1,0,0,1,1.129-.123,4.6,4.6,0,0,1,1.031.1,3.665,3.665,0,0,1,.982.368,2.251,2.251,0,0,1,.614.515.983.983,0,0,1,.2.564,1.047,1.047,0,0,1-.2.564,2.178,2.178,0,0,1-.589.564l.957.54-.736.442-.957-.54a5.5,5.5,0,0,1-.957.344,3.951,3.951,0,0,1-1.08.147,4.492,4.492,0,0,1-2.331-.589l1.571-.908a5.732,5.732,0,0,0,.589.27,2.189,2.189,0,0,0,.54.074,1.43,1.43,0,0,0,.466-.074,1.9,1.9,0,0,0,.393-.172.737.737,0,0,0,.245-.221.25.25,0,0,0,.049-.221.3.3,0,0,0-.1-.2,1.069,1.069,0,0,0-.245-.2,2.476,2.476,0,0,0-.368-.172,1.862,1.862,0,0,0-.393-.074,3.13,3.13,0,0,0-.466.025c-.172.025-.344.049-.564.1-.442.1-.834.2-1.227.27a6.07,6.07,0,0,1-1.1.123,3.671,3.671,0,0,1-1.031-.1,3.289,3.289,0,0,1-.982-.393,1.543,1.543,0,0,1-.589-.515.812.812,0,0,1-.172-.564.979.979,0,0,1,.221-.589,2.834,2.834,0,0,1,.614-.589l-.982-.564.736-.442,1.006.589a3.488,3.488,0,0,1,.982-.295,3.654,3.654,0,0,1,1.031-.074,5.017,5.017,0,0,1,1.031.172C559.729,892.813,560.048,892.936,560.343,893.132Z" transform="translate(-554.6 -892.2)" fill="#fee47f"/></g><path d="M555.038,903.025,541.025,899c-1.325,1.669-.785,3.706,1.6,5.08a12.166,12.166,0,0,0,11.044,0A5.207,5.207,0,0,0,555.038,903.025Z" transform="translate(-538.129 -894.754)" fill="#fff" opacity="0.3"/><g transform="translate(0.466)"><path d="M549.6,883.32c3.755,2.16,3.755,5.669.049,7.829a14.921,14.921,0,0,1-13.522,0c-3.755-2.16-3.755-5.669-.049-7.829A14.921,14.921,0,0,1,549.6,883.32Zm-12.541,7.289a12.843,12.843,0,0,0,11.657,0c3.215-1.865,3.19-4.884-.049-6.749a12.842,12.842,0,0,0-11.657,0c-3.19,1.841-3.166,4.884.049,6.749Z" transform="translate(-533.3 -881.7)" fill="#fee47f"/></g><path d="M547.913,906.244a12.974,12.974,0,0,1-10.847-.417c-1.693-.982-2.5-2.282-2.43-3.559l-1.276-.368c-.27,1.6.663,3.24,2.773,4.467a14.982,14.982,0,0,0,13.032.245Z" transform="translate(-532.845 -896.943)" fill="#fff" opacity="0.3"/><g transform="translate(2.061 8.761)"><path d="M555.392,925.921c-.368-.074-.712-.147-1.055-.221l-.736,2.5c.319.1.663.2,1.006.27Z" transform="translate(-550.213 -923.663)" fill="#fff" opacity="0.3"/><path d="M542.794,921.793l.638-2.5a10.364,10.364,0,0,1-2.38-1.006,8.1,8.1,0,0,1-1.252-.884l.1,2.8a8.289,8.289,0,0,0,1.129.785A9.7,9.7,0,0,0,542.794,921.793Z" transform="translate(-539.8 -917.4)" fill="#fff" opacity="0.3"/></g></g><g transform="translate(0 5.252)"><g transform="translate(1.325 0.761)"><path d="M546.592,868.31v3.141c0-1.227-.81-2.454-2.43-3.411a12.843,12.843,0,0,0-11.657,0c-1.6.933-2.405,2.135-2.405,3.362v-3.141c0-1.2.81-2.43,2.405-3.362a12.843,12.843,0,0,1,11.657,0,4.15,4.15,0,0,1,2.43,3.411Z" transform="translate(-530.1 -863.5)" fill="#f79826"/></g><g transform="translate(1.344 1.301)"><path d="M544.219,867.1c3.24,1.865,3.24,4.884.049,6.749a12.843,12.843,0,0,1-11.657,0c-3.24-1.865-3.24-4.884-.049-6.749A12.842,12.842,0,0,1,544.219,867.1Z" transform="translate(-530.175 -865.7)" fill="#feb200"/></g><g transform="translate(0 5.497)"><path d="M543.818,882.874v3.141c0,1.4-.933,2.822-2.773,3.878a14.921,14.921,0,0,1-13.522,0c-1.89-1.08-2.822-2.5-2.822-3.951V882.8c0,1.423.933,2.847,2.822,3.951a14.921,14.921,0,0,0,13.522,0c1.841-1.08,2.773-2.479,2.773-3.878Z" transform="translate(-524.7 -882.8)" fill="#fed44f"/></g><g transform="translate(5.227 2.577)"><path d="M551.743,871.832l-1.571.908a4.905,4.905,0,0,0-.515-.245,3.991,3.991,0,0,0-.466-.1,2.246,2.246,0,0,0-.417.025,1.418,1.418,0,0,0-.344.123,1.192,1.192,0,0,0-.245.2.33.33,0,0,0-.049.2.338.338,0,0,0,.123.2,2.135,2.135,0,0,0,.245.2,1.848,1.848,0,0,0,.319.147,1.486,1.486,0,0,0,.368.049,3.306,3.306,0,0,0,.466-.024c.172-.025.368-.049.589-.1.442-.1.834-.2,1.227-.27a6.105,6.105,0,0,1,1.129-.123,4.593,4.593,0,0,1,1.031.1,3.663,3.663,0,0,1,.982.368,2.254,2.254,0,0,1,.614.515.984.984,0,0,1,.2.564,1.047,1.047,0,0,1-.2.564,2.174,2.174,0,0,1-.589.564l.957.54-.736.442-.957-.54a5.507,5.507,0,0,1-.957.344,3.955,3.955,0,0,1-1.08.147,4.494,4.494,0,0,1-2.331-.589l1.571-.908a5.77,5.77,0,0,0,.589.27,2.189,2.189,0,0,0,.54.074,1.429,1.429,0,0,0,.466-.074,1.9,1.9,0,0,0,.393-.172.737.737,0,0,0,.245-.221.25.25,0,0,0,.049-.221.3.3,0,0,0-.1-.2,1.069,1.069,0,0,0-.245-.2,2.484,2.484,0,0,0-.368-.172,1.86,1.86,0,0,0-.393-.074,3.13,3.13,0,0,0-.466.025c-.172.025-.344.049-.564.1-.442.1-.834.2-1.227.27a6.08,6.08,0,0,1-1.1.123,3.676,3.676,0,0,1-1.031-.1,3.289,3.289,0,0,1-.982-.393,1.541,1.541,0,0,1-.589-.515.811.811,0,0,1-.172-.564.979.979,0,0,1,.221-.589,2.838,2.838,0,0,1,.614-.589l-.982-.564.736-.442,1.006.589a3.481,3.481,0,0,1,.982-.294,3.652,3.652,0,0,1,1.031-.074,5.027,5.027,0,0,1,1.031.172A7.723,7.723,0,0,0,551.743,871.832Z" transform="translate(-546 -870.9)" fill="#fee47f"/></g><path d="M546.438,881.749,532.425,877.7c-1.325,1.669-.785,3.706,1.6,5.08a12.166,12.166,0,0,0,11.044,0A5.587,5.587,0,0,0,546.438,881.749Z" transform="translate(-529.996 -873.454)" fill="#fff" opacity="0.3"/><path d="M541,862.02c3.755,2.16,3.755,5.669.049,7.829a14.922,14.922,0,0,1-13.522,0c-3.755-2.16-3.755-5.669-.049-7.829A14.922,14.922,0,0,1,541,862.02Zm-12.541,7.289a12.843,12.843,0,0,0,11.657,0c3.215-1.865,3.19-4.884-.049-6.749a12.843,12.843,0,0,0-11.657,0c-3.19,1.865-3.19,4.884.049,6.749Z" transform="translate(-524.7 -860.4)" fill="#fee47f"/><path d="M539.313,885.044a12.974,12.974,0,0,1-10.847-.417c-1.693-.982-2.5-2.282-2.43-3.558l-1.276-.368c-.27,1.6.663,3.24,2.773,4.467a14.981,14.981,0,0,0,13.032.245Z" transform="translate(-524.711 -875.718)" fill="#fff" opacity="0.3"/><g transform="translate(1.595 8.786)"><path d="M546.792,904.721c-.368-.074-.712-.147-1.055-.221L545,907c.319.1.663.2,1.006.27Z" transform="translate(-541.613 -902.463)" fill="#fff" opacity="0.3"/><path d="M534.194,900.593l.638-2.5a10.367,10.367,0,0,1-2.381-1.006,8.1,8.1,0,0,1-1.252-.884l.1,2.8a8.277,8.277,0,0,0,1.129.785A9.7,9.7,0,0,0,534.194,900.593Z" transform="translate(-531.2 -896.2)" fill="#fff" opacity="0.3"/></g></g><g transform="translate(1.693)"><g transform="translate(1.325 0.761)"><path d="M553.492,846.91v3.141c0-1.227-.81-2.454-2.43-3.411a12.842,12.842,0,0,0-11.657,0c-1.6.933-2.405,2.135-2.405,3.362v-3.141c0-1.2.81-2.43,2.405-3.362a12.842,12.842,0,0,1,11.657,0,4.149,4.149,0,0,1,2.43,3.411Z" transform="translate(-537 -842.1)" fill="#f79826"/></g><g transform="translate(1.344 1.301)"><path d="M551.119,845.7c3.24,1.865,3.24,4.884.049,6.749a12.843,12.843,0,0,1-11.657,0c-3.24-1.865-3.24-4.884-.049-6.749A12.843,12.843,0,0,1,551.119,845.7Z" transform="translate(-537.075 -844.3)" fill="#feb200"/></g><g transform="translate(0 5.497)"><path d="M550.718,861.474v3.141c0,1.4-.933,2.822-2.773,3.878a14.921,14.921,0,0,1-13.522,0c-1.89-1.08-2.822-2.5-2.822-3.951V861.4c0,1.423.933,2.847,2.822,3.951a14.922,14.922,0,0,0,13.522,0c1.865-1.055,2.773-2.479,2.773-3.878Z" transform="translate(-531.6 -861.4)" fill="#fed44f"/></g><g transform="translate(5.227 2.601)"><path d="M558.643,850.532l-1.571.908a4.912,4.912,0,0,0-.515-.245,3.991,3.991,0,0,0-.466-.1,2.247,2.247,0,0,0-.417.025,1.422,1.422,0,0,0-.344.123,1.2,1.2,0,0,0-.245.2.33.33,0,0,0-.049.2.434.434,0,0,0,.123.2,2.139,2.139,0,0,0,.245.2,1.853,1.853,0,0,0,.319.147,1.482,1.482,0,0,0,.368.049,3.3,3.3,0,0,0,.466-.025c.172-.025.368-.049.589-.1.442-.1.834-.2,1.227-.27a6.1,6.1,0,0,1,1.129-.123,4.6,4.6,0,0,1,1.031.1,3.664,3.664,0,0,1,.982.368,2.253,2.253,0,0,1,.614.515.984.984,0,0,1,.2.564,1.046,1.046,0,0,1-.2.564,2.175,2.175,0,0,1-.589.564l.957.54-.736.442-.957-.54a5.5,5.5,0,0,1-.957.344,3.956,3.956,0,0,1-1.08.147,4.494,4.494,0,0,1-2.332-.589l1.571-.908a5.756,5.756,0,0,0,.589.27,2.189,2.189,0,0,0,.54.074,1.429,1.429,0,0,0,.466-.074,1.9,1.9,0,0,0,.393-.172.737.737,0,0,0,.245-.221.25.25,0,0,0,.049-.221.3.3,0,0,0-.1-.2,1.071,1.071,0,0,0-.245-.2,2.487,2.487,0,0,0-.368-.172,1.86,1.86,0,0,0-.393-.074,3.13,3.13,0,0,0-.466.025c-.172.025-.344.049-.564.1-.442.1-.834.2-1.227.27a6.079,6.079,0,0,1-1.1.123,3.676,3.676,0,0,1-1.031-.1,3.29,3.29,0,0,1-.982-.393,1.541,1.541,0,0,1-.589-.515.811.811,0,0,1-.172-.564.979.979,0,0,1,.221-.589,2.837,2.837,0,0,1,.614-.589l-.982-.564.736-.442,1.006.589a3.483,3.483,0,0,1,.982-.294,3.654,3.654,0,0,1,1.031-.074,5.027,5.027,0,0,1,1.031.172C558.029,850.213,558.348,850.336,558.643,850.532Z" transform="translate(-552.9 -849.6)" fill="#fee47f"/></g><path d="M553.339,860.349,539.325,856.3c-1.325,1.669-.785,3.706,1.6,5.08a12.167,12.167,0,0,0,11.044,0A4.69,4.69,0,0,0,553.339,860.349Z" transform="translate(-536.896 -852.054)" fill="#fff" opacity="0.3"/><path d="M547.9,840.62c3.755,2.16,3.755,5.669.049,7.829a14.921,14.921,0,0,1-13.522,0c-3.755-2.16-3.755-5.669-.049-7.829A14.921,14.921,0,0,1,547.9,840.62Zm-12.541,7.289a12.842,12.842,0,0,0,11.657,0c3.215-1.865,3.19-4.884-.049-6.749a12.842,12.842,0,0,0-11.657,0c-3.19,1.865-3.166,4.884.049,6.749Z" transform="translate(-531.6 -839)" fill="#fee47f"/><path d="M546.213,863.644a12.974,12.974,0,0,1-10.847-.417c-1.693-.982-2.5-2.282-2.43-3.559l-1.276-.368c-.27,1.6.663,3.24,2.773,4.467a14.982,14.982,0,0,0,13.032.245Z" transform="translate(-531.611 -854.318)" fill="#fff" opacity="0.3"/><g transform="translate(1.595 8.786)"><path d="M553.692,883.321c-.368-.074-.712-.147-1.055-.221l-.736,2.5c.319.1.663.2,1.006.27Z" transform="translate(-548.513 -881.063)" fill="#fff" opacity="0.3"/><path d="M541.094,879.193l.638-2.5a10.361,10.361,0,0,1-2.381-1.006,8.1,8.1,0,0,1-1.252-.883l.1,2.8a8.289,8.289,0,0,0,1.129.785A9.709,9.709,0,0,0,541.094,879.193Z" transform="translate(-538.1 -874.8)" fill="#fff" opacity="0.3"/></g></g></g><g transform="translate(242.671 178.367)"><path d="M1045.607,856.75a15.441,15.441,0,0,0-13.989,0c-1.939,1.129-3.019,2.675-3.019,4.319,0,1.669,1.08,3.215,3.068,4.344a14.175,14.175,0,0,0,6.994,1.669,14.446,14.446,0,0,0,6.994-1.669c1.939-1.129,3.019-2.675,3.019-4.319C1048.675,859.425,1047.6,857.9,1045.607,856.75Z" transform="translate(-1028.6 -851.915)" fill="#d8e1e6"/><g transform="translate(1.792 0.736)"><path d="M1052.392,850.01v3.141c0-1.227-.81-2.454-2.43-3.411a12.842,12.842,0,0,0-11.657,0c-1.6.933-2.405,2.135-2.405,3.362v-3.141c0-1.2.81-2.43,2.405-3.362a12.842,12.842,0,0,1,11.657,0c1.62.957,2.43,2.184,2.43,3.411Z" transform="translate(-1035.9 -845.2)" fill="#f79826"/></g><g transform="translate(1.81 1.301)"><path d="M1050.019,848.9c3.24,1.865,3.24,4.884.049,6.749a12.842,12.842,0,0,1-11.657,0c-3.24-1.865-3.24-4.884-.049-6.749A12.842,12.842,0,0,1,1050.019,848.9Z" transform="translate(-1035.975 -847.5)" fill="#feb200"/></g><g transform="translate(0.466 5.473)"><path d="M1049.618,864.574v3.141c0,1.4-.933,2.822-2.773,3.878a14.921,14.921,0,0,1-13.522,0c-1.89-1.08-2.822-2.5-2.822-3.951V864.5c0,1.423.933,2.847,2.822,3.951a14.921,14.921,0,0,0,13.522,0c1.865-1.055,2.773-2.454,2.773-3.878Z" transform="translate(-1030.5 -864.5)" fill="#fed44f"/></g><g transform="translate(5.694 2.577)"><path d="M1057.543,853.632l-1.571.908a4.883,4.883,0,0,0-.515-.245,4,4,0,0,0-.466-.1,2.241,2.241,0,0,0-.417.025,1.42,1.42,0,0,0-.344.123,1.2,1.2,0,0,0-.245.2.33.33,0,0,0-.049.2.433.433,0,0,0,.123.2,2.124,2.124,0,0,0,.245.2,1.85,1.85,0,0,0,.319.147,1.487,1.487,0,0,0,.368.049,3.29,3.29,0,0,0,.466-.025c.172-.025.368-.049.589-.1.442-.1.834-.2,1.227-.27a6.106,6.106,0,0,1,1.129-.123,4.6,4.6,0,0,1,1.031.1,3.664,3.664,0,0,1,.982.368,2.254,2.254,0,0,1,.614.515.983.983,0,0,1,.2.564,1.047,1.047,0,0,1-.2.564,2.177,2.177,0,0,1-.589.564l.957.54-.736.442-.957-.54a5.505,5.505,0,0,1-.957.344,3.956,3.956,0,0,1-1.08.147,4.494,4.494,0,0,1-2.331-.589l1.571-.908a5.738,5.738,0,0,0,.589.27,2.188,2.188,0,0,0,.54.074,1.429,1.429,0,0,0,.466-.074,1.9,1.9,0,0,0,.393-.172.738.738,0,0,0,.245-.221.25.25,0,0,0,.049-.221.3.3,0,0,0-.1-.2,1.067,1.067,0,0,0-.245-.2,2.471,2.471,0,0,0-.368-.172,1.86,1.86,0,0,0-.393-.074,3.132,3.132,0,0,0-.466.025c-.172.025-.344.049-.564.1-.442.1-.834.2-1.227.27a6.074,6.074,0,0,1-1.1.123,3.674,3.674,0,0,1-1.031-.1,3.289,3.289,0,0,1-.982-.393,1.542,1.542,0,0,1-.589-.515.811.811,0,0,1-.172-.564.979.979,0,0,1,.221-.589,2.839,2.839,0,0,1,.614-.589l-.982-.564.736-.442,1.006.589a3.484,3.484,0,0,1,.982-.294,3.652,3.652,0,0,1,1.031-.074,5.025,5.025,0,0,1,1.031.172C1056.929,853.313,1057.248,853.461,1057.543,853.632Z" transform="translate(-1051.8 -852.7)" fill="#fee47f"/></g><path d="M1052.239,863.549l-14.013-4.049c-1.325,1.669-.785,3.706,1.595,5.08a12.167,12.167,0,0,0,11.044,0A5.159,5.159,0,0,0,1052.239,863.549Z" transform="translate(-1035.329 -855.254)" fill="#fff" opacity="0.3"/><g transform="translate(0.466)"><path d="M1046.8,843.82c3.755,2.16,3.755,5.669.049,7.829a14.922,14.922,0,0,1-13.522,0c-3.755-2.16-3.755-5.669-.049-7.829A14.922,14.922,0,0,1,1046.8,843.82Zm-12.541,7.289a12.843,12.843,0,0,0,11.657,0c3.215-1.865,3.19-4.884-.049-6.749a12.843,12.843,0,0,0-11.657,0c-3.191,1.865-3.166,4.884.049,6.749Z" transform="translate(-1030.5 -842.2)" fill="#fee47f"/></g><path d="M1045.113,866.844a12.974,12.974,0,0,1-10.847-.417c-1.693-.982-2.5-2.282-2.43-3.559l-1.276-.368c-.27,1.6.663,3.24,2.773,4.467a14.982,14.982,0,0,0,13.032.245Z" transform="translate(-1030.045 -857.518)" fill="#fff" opacity="0.3"/><g transform="translate(2.062 8.786)"><path d="M1052.591,886.421c-.368-.074-.712-.147-1.055-.221l-.736,2.5c.319.1.663.2,1.006.27Z" transform="translate(-1047.413 -884.188)" fill="#fff" opacity="0.3"/><path d="M1039.994,882.393l.638-2.5a10.364,10.364,0,0,1-2.38-1.006A8.11,8.11,0,0,1,1037,878l.1,2.8a8.278,8.278,0,0,0,1.129.785A9.7,9.7,0,0,0,1039.994,882.393Z" transform="translate(-1037 -878)" fill="#fff" opacity="0.3"/></g></g><g transform="translate(242.622 173.264)"><g transform="translate(1.325 0.736)"><path d="M1050.292,829.71v3.141c0-1.227-.81-2.454-2.43-3.411a12.843,12.843,0,0,0-11.657,0c-1.6.933-2.405,2.135-2.405,3.362v-3.141c0-1.2.81-2.43,2.405-3.362a12.843,12.843,0,0,1,11.657,0c1.62.957,2.43,2.184,2.43,3.411Z" transform="translate(-1033.8 -824.9)" fill="#f79826"/></g><g transform="translate(1.319 1.276)"><path d="M1047.819,828.5c3.24,1.865,3.24,4.884.049,6.749a12.843,12.843,0,0,1-11.657,0c-3.239-1.865-3.239-4.884-.049-6.749A12.843,12.843,0,0,1,1047.819,828.5Z" transform="translate(-1033.775 -827.1)" fill="#feb200"/></g><g transform="translate(0 5.473)"><path d="M1047.518,844.274v3.141c0,1.4-.933,2.822-2.773,3.878a14.921,14.921,0,0,1-13.522,0c-1.89-1.08-2.822-2.5-2.822-3.951V844.2c0,1.423.932,2.847,2.822,3.951a14.921,14.921,0,0,0,13.522,0c1.841-1.055,2.773-2.454,2.773-3.878Z" transform="translate(-1028.4 -844.2)" fill="#fed44f"/></g><g transform="translate(5.227 2.577)"><path d="M1055.443,833.332l-1.571.908a4.87,4.87,0,0,0-.515-.245,3.993,3.993,0,0,0-.466-.1,2.244,2.244,0,0,0-.417.025,1.419,1.419,0,0,0-.344.123,1.2,1.2,0,0,0-.245.2.33.33,0,0,0-.049.2.434.434,0,0,0,.123.2,2.157,2.157,0,0,0,.245.2,1.852,1.852,0,0,0,.319.147,1.485,1.485,0,0,0,.368.049,3.3,3.3,0,0,0,.466-.025c.172-.025.368-.049.589-.1.442-.1.834-.2,1.227-.27a6.106,6.106,0,0,1,1.129-.123,4.6,4.6,0,0,1,1.031.1,3.664,3.664,0,0,1,.982.368,2.253,2.253,0,0,1,.614.515.983.983,0,0,1,.2.564,1.047,1.047,0,0,1-.2.564,2.178,2.178,0,0,1-.589.564l.957.54-.736.442-.957-.54a5.512,5.512,0,0,1-.957.344,3.956,3.956,0,0,1-1.08.147,4.491,4.491,0,0,1-2.332-.589l1.571-.908a5.762,5.762,0,0,0,.589.27,2.188,2.188,0,0,0,.54.074,1.43,1.43,0,0,0,.466-.074,1.9,1.9,0,0,0,.393-.172.737.737,0,0,0,.245-.221.25.25,0,0,0,.049-.221.3.3,0,0,0-.1-.2,1.071,1.071,0,0,0-.245-.2,2.477,2.477,0,0,0-.368-.172,1.861,1.861,0,0,0-.393-.074,3.128,3.128,0,0,0-.466.025c-.172.025-.344.049-.565.1-.442.1-.834.2-1.227.27a6.069,6.069,0,0,1-1.1.123,3.671,3.671,0,0,1-1.031-.1,3.051,3.051,0,0,1-.982-.393,1.542,1.542,0,0,1-.589-.515.811.811,0,0,1-.172-.564.979.979,0,0,1,.221-.589,2.831,2.831,0,0,1,.614-.589l-.982-.564.736-.442,1.006.589a3.488,3.488,0,0,1,.982-.295,3.654,3.654,0,0,1,1.031-.074,5.017,5.017,0,0,1,1.031.172A9.437,9.437,0,0,0,1055.443,833.332Z" transform="translate(-1049.7 -832.4)" fill="#fee47f"/></g><path d="M1050.039,843.249l-14.013-4.049c-1.325,1.669-.785,3.706,1.6,5.08a12.166,12.166,0,0,0,11.044,0A5.282,5.282,0,0,0,1050.039,843.249Z" transform="translate(-1033.62 -834.954)" fill="#fff" opacity="0.3"/><path d="M1044.7,823.52c3.755,2.16,3.755,5.669.049,7.829a14.921,14.921,0,0,1-13.522,0c-3.755-2.16-3.755-5.669-.049-7.829A14.921,14.921,0,0,1,1044.7,823.52Zm-12.541,7.289a12.842,12.842,0,0,0,11.657,0c3.215-1.865,3.19-4.884-.049-6.749a12.842,12.842,0,0,0-11.657,0c-3.215,1.865-3.19,4.884.049,6.749Z" transform="translate(-1028.4 -821.9)" fill="#fee47f"/><path d="M1043.013,846.544a12.974,12.974,0,0,1-10.847-.417c-1.693-.982-2.5-2.282-2.43-3.559l-1.276-.368c-.27,1.6.663,3.24,2.773,4.467a14.982,14.982,0,0,0,13.032.245Z" transform="translate(-1028.411 -837.218)" fill="#fff" opacity="0.3"/><g transform="translate(1.571 8.786)"><path d="M1050.491,866.121c-.368-.074-.712-.147-1.055-.221l-.736,2.5c.319.1.663.2,1.006.27Z" transform="translate(-1045.289 -863.888)" fill="#fff" opacity="0.3"/><path d="M1037.794,862.093l.638-2.5a10.367,10.367,0,0,1-2.38-1.006,8.1,8.1,0,0,1-1.252-.884l.1,2.8a8.27,8.27,0,0,0,1.129.785A11.492,11.492,0,0,0,1037.794,862.093Z" transform="translate(-1034.8 -857.7)" fill="#fff" opacity="0.3"/></g></g><g transform="translate(243.971 168.477)"><g transform="translate(1.325 0.736)"><path d="M1055.792,810.61v3.141c0-1.227-.81-2.454-2.43-3.411a12.842,12.842,0,0,0-11.657,0c-1.6.933-2.405,2.135-2.405,3.362v-3.141c0-1.2.81-2.43,2.405-3.362a12.842,12.842,0,0,1,11.657,0c1.62.957,2.43,2.184,2.43,3.411Z" transform="translate(-1039.3 -805.8)" fill="#f79826"/></g><g transform="translate(1.344 1.301)"><path d="M1053.419,809.5c3.24,1.865,3.24,4.884.049,6.749a12.842,12.842,0,0,1-11.657,0c-3.24-1.865-3.24-4.884-.049-6.749A12.842,12.842,0,0,1,1053.419,809.5Z" transform="translate(-1039.375 -808.1)" fill="#feb200"/></g><g transform="translate(0 5.497)"><path d="M1053.018,825.274v3.141c0,1.4-.933,2.822-2.773,3.878a14.921,14.921,0,0,1-13.522,0c-1.89-1.08-2.822-2.5-2.822-3.951V825.2c0,1.423.932,2.847,2.822,3.951a14.921,14.921,0,0,0,13.522,0c1.841-1.08,2.773-2.479,2.773-3.878Z" transform="translate(-1033.9 -825.2)" fill="#fed44f"/></g><g transform="translate(5.227 2.577)"><path d="M1060.943,814.232l-1.571.908a4.892,4.892,0,0,0-.515-.245,3.977,3.977,0,0,0-.466-.1,2.246,2.246,0,0,0-.417.025,1.419,1.419,0,0,0-.344.123,1.193,1.193,0,0,0-.245.2.33.33,0,0,0-.049.2.434.434,0,0,0,.123.2,2.163,2.163,0,0,0,.245.2,1.852,1.852,0,0,0,.319.147,1.485,1.485,0,0,0,.368.049,3.3,3.3,0,0,0,.466-.025c.172-.025.368-.049.589-.1.442-.1.834-.2,1.227-.27a6.106,6.106,0,0,1,1.129-.123,4.6,4.6,0,0,1,1.031.1,3.662,3.662,0,0,1,.982.368,2.253,2.253,0,0,1,.614.515.984.984,0,0,1,.2.564,1.047,1.047,0,0,1-.2.564,2.177,2.177,0,0,1-.589.564l.957.54-.736.442-.957-.54a5.506,5.506,0,0,1-.957.344,3.956,3.956,0,0,1-1.08.147,4.493,4.493,0,0,1-2.332-.589l1.571-.908a5.751,5.751,0,0,0,.589.27,2.188,2.188,0,0,0,.54.074,1.429,1.429,0,0,0,.466-.074,1.894,1.894,0,0,0,.393-.172.736.736,0,0,0,.245-.221.251.251,0,0,0,.049-.221.3.3,0,0,0-.1-.2,1.074,1.074,0,0,0-.245-.2,2.466,2.466,0,0,0-.368-.172,1.861,1.861,0,0,0-.393-.074,3.129,3.129,0,0,0-.466.025c-.172.025-.344.049-.565.1-.442.1-.834.2-1.227.27a6.08,6.08,0,0,1-1.1.123,3.674,3.674,0,0,1-1.031-.1,3.289,3.289,0,0,1-.982-.393,1.543,1.543,0,0,1-.589-.515.811.811,0,0,1-.172-.564.979.979,0,0,1,.221-.589,2.84,2.84,0,0,1,.614-.589l-.982-.564.736-.442,1.006.589a3.484,3.484,0,0,1,.982-.294,3.653,3.653,0,0,1,1.031-.074,5.025,5.025,0,0,1,1.031.172C1060.329,813.913,1060.648,814.061,1060.943,814.232Z" transform="translate(-1055.2 -813.3)" fill="#fee47f"/></g><path d="M1055.639,824.149l-14.013-4.049c-1.325,1.669-.785,3.706,1.6,5.08a12.166,12.166,0,0,0,11.044,0A5.583,5.583,0,0,0,1055.639,824.149Z" transform="translate(-1039.196 -815.854)" fill="#fff" opacity="0.3"/><path d="M1050.2,804.42c3.755,2.16,3.755,5.669.049,7.829a14.921,14.921,0,0,1-13.522,0c-3.755-2.16-3.755-5.669-.049-7.829A14.921,14.921,0,0,1,1050.2,804.42Zm-12.541,7.289a12.843,12.843,0,0,0,11.657,0c3.215-1.865,3.19-4.884-.049-6.749a12.842,12.842,0,0,0-11.657,0c-3.19,1.865-3.166,4.884.049,6.749Z" transform="translate(-1033.9 -802.8)" fill="#fee47f"/><path d="M1048.513,827.444a12.973,12.973,0,0,1-10.847-.417c-1.693-.982-2.5-2.282-2.43-3.558l-1.276-.368c-.27,1.6.663,3.24,2.773,4.467a14.982,14.982,0,0,0,13.032.245Z" transform="translate(-1033.911 -818.118)" fill="#fff" opacity="0.3"/><g transform="translate(1.595 8.786)"><path d="M1055.992,847.121c-.368-.074-.712-.147-1.055-.221l-.736,2.5c.319.1.663.2,1.006.27Z" transform="translate(-1050.813 -844.863)" fill="#fff" opacity="0.3"/><path d="M1043.394,842.993l.638-2.5a10.36,10.36,0,0,1-2.381-1.006,8.1,8.1,0,0,1-1.252-.883l.1,2.8a8.277,8.277,0,0,0,1.129.785A9.7,9.7,0,0,0,1043.394,842.993Z" transform="translate(-1040.4 -838.6)" fill="#fff" opacity="0.3"/></g></g><g transform="translate(243.382 164.016)"><g transform="translate(1.301 0.736)"><path d="M1053.292,792.81v3.141c0-1.227-.81-2.454-2.43-3.411a12.843,12.843,0,0,0-11.657,0c-1.6.933-2.405,2.135-2.405,3.362v-3.141c0-1.2.81-2.43,2.405-3.362a12.842,12.842,0,0,1,11.657,0c1.62.957,2.43,2.184,2.43,3.411Z" transform="translate(-1036.8 -788)" fill="#f79826"/></g><g transform="translate(1.319 1.276)"><path d="M1050.919,791.6c3.24,1.865,3.24,4.884.049,6.749a12.842,12.842,0,0,1-11.657,0c-3.24-1.865-3.24-4.884-.049-6.749A12.842,12.842,0,0,1,1050.919,791.6Z" transform="translate(-1036.875 -790.2)" fill="#feb200"/></g><g transform="translate(0 5.473)"><path d="M1050.618,807.374v3.141c0,1.4-.933,2.822-2.773,3.878a14.921,14.921,0,0,1-13.522,0c-1.89-1.08-2.822-2.5-2.822-3.951V807.3c0,1.423.933,2.847,2.822,3.951a14.921,14.921,0,0,0,13.522,0c1.841-1.055,2.749-2.479,2.773-3.878Z" transform="translate(-1031.5 -807.3)" fill="#fed44f"/></g><g transform="translate(5.227 2.577)"><path d="M1058.543,796.432l-1.571.908a4.909,4.909,0,0,0-.516-.245,3.981,3.981,0,0,0-.466-.1,2.246,2.246,0,0,0-.417.025,1.42,1.42,0,0,0-.344.123,1.2,1.2,0,0,0-.245.2.33.33,0,0,0-.049.2.433.433,0,0,0,.123.2,2.124,2.124,0,0,0,.245.2,1.842,1.842,0,0,0,.319.147,1.493,1.493,0,0,0,.368.049,3.3,3.3,0,0,0,.466-.025c.172-.025.368-.049.589-.1.442-.1.834-.2,1.227-.27a6.106,6.106,0,0,1,1.129-.123,4.6,4.6,0,0,1,1.031.1,3.66,3.66,0,0,1,.982.368,2.253,2.253,0,0,1,.614.515.983.983,0,0,1,.2.564,1.047,1.047,0,0,1-.2.564,2.177,2.177,0,0,1-.589.564l.957.54-.736.442-.957-.54a5.5,5.5,0,0,1-.957.344,3.951,3.951,0,0,1-1.08.147,4.494,4.494,0,0,1-2.331-.589l1.571-.908a5.749,5.749,0,0,0,.589.27,2.188,2.188,0,0,0,.54.074,1.429,1.429,0,0,0,.466-.074,1.9,1.9,0,0,0,.393-.172.738.738,0,0,0,.245-.221.25.25,0,0,0,.049-.221.3.3,0,0,0-.1-.2,1.069,1.069,0,0,0-.245-.2,2.471,2.471,0,0,0-.368-.172c-.123-.025-.245-.049-.393-.074a3.132,3.132,0,0,0-.466.025c-.172.025-.344.049-.564.1-.442.1-.834.2-1.227.27a6.08,6.08,0,0,1-1.1.123,3.676,3.676,0,0,1-1.031-.1,3.29,3.29,0,0,1-.982-.393,1.544,1.544,0,0,1-.589-.515.812.812,0,0,1-.172-.564.979.979,0,0,1,.221-.589,2.835,2.835,0,0,1,.614-.589l-.982-.564.736-.442,1.006.589a3.483,3.483,0,0,1,.982-.295,3.654,3.654,0,0,1,1.031-.074,5.017,5.017,0,0,1,1.031.172C1057.9,796.113,1058.224,796.236,1058.543,796.432Z" transform="translate(-1052.8 -795.5)" fill="#fee47f"/></g><path d="M1053.139,806.249l-14.013-4.049c-1.325,1.669-.785,3.706,1.6,5.08a12.167,12.167,0,0,0,11.044,0A4.385,4.385,0,0,0,1053.139,806.249Z" transform="translate(-1036.72 -797.979)" fill="#fff" opacity="0.3"/><path d="M1047.8,786.62c3.755,2.16,3.755,5.669.049,7.829a14.921,14.921,0,0,1-13.522,0c-3.755-2.16-3.755-5.669-.049-7.829A14.922,14.922,0,0,1,1047.8,786.62Zm-12.541,7.289a12.842,12.842,0,0,0,11.657,0c3.215-1.865,3.19-4.884-.049-6.749a12.842,12.842,0,0,0-11.657,0c-3.215,1.841-3.191,4.884.049,6.749Z" transform="translate(-1031.5 -785)" fill="#fee47f"/><path d="M1046.113,809.544a12.974,12.974,0,0,1-10.847-.417c-1.693-.982-2.5-2.282-2.43-3.559l-1.276-.368c-.27,1.6.663,3.24,2.773,4.467a14.982,14.982,0,0,0,13.032.245Z" transform="translate(-1031.511 -800.243)" fill="#fff" opacity="0.3"/><g transform="translate(1.571 8.761)"><path d="M1053.491,829.221c-.368-.074-.712-.147-1.055-.221l-.736,2.5c.319.1.663.2,1.006.27Z" transform="translate(-1048.313 -826.963)" fill="#fff" opacity="0.3"/><path d="M1040.894,825.093l.638-2.5a10.365,10.365,0,0,1-2.381-1.006,8.1,8.1,0,0,1-1.252-.883l.1,2.8a8.277,8.277,0,0,0,1.129.785A9.563,9.563,0,0,0,1040.894,825.093Z" transform="translate(-1037.9 -820.7)" fill="#fff" opacity="0.3"/></g></g><g transform="translate(142.261 120.326)"><g transform="translate(12.02 54.281)"><path d="M735.009,828.683c15.289,8.835,15.388,23.143.172,31.978-15.191,8.835-39.929,8.835-55.219,0s-15.388-23.143-.172-31.978C695.006,819.872,719.72,819.872,735.009,828.683Z" transform="translate(-668.437 -822.075)" fill="#d8e1e6"/></g><path d="M813.319,926.2a13.932,13.932,0,0,1-12.614-.123A4.989,4.989,0,0,1,798.3,923.3l3.951,14.013a2.73,2.73,0,0,0,1.325,1.522,7.59,7.59,0,0,0,6.9.074,2.765,2.765,0,0,0,1.4-1.546l4.049-13.989A5.146,5.146,0,0,1,813.319,926.2Z" transform="translate(-754.409 -844.177)" fill="#ea6c96"/><path d="M899.219,877.5a13.932,13.932,0,0,1-12.614-.123A4.988,4.988,0,0,1,884.2,874.6l3.951,14.013a2.73,2.73,0,0,0,1.325,1.522,7.59,7.59,0,0,0,6.9.074,2.765,2.765,0,0,0,1.4-1.546l4.049-13.989A5.306,5.306,0,0,1,899.219,877.5Z" transform="translate(-819.228 -807.428)" fill="#ea6c96"/><path d="M699.52,861.5a13.932,13.932,0,0,1-12.615-.123A4.989,4.989,0,0,1,684.5,858.6l3.951,14.013a2.73,2.73,0,0,0,1.325,1.522,7.59,7.59,0,0,0,6.9.074,2.765,2.765,0,0,0,1.4-1.546l4.049-13.989A5.145,5.145,0,0,1,699.52,861.5Z" transform="translate(-668.538 -795.355)" fill="#e877a6"/><g transform="translate(73.463)"><path d="M925.893,619.647a30.8,30.8,0,0,1-7.093-.883l.393-1.669c6.111,1.472,10.258.761,12.664-.1a10.182,10.182,0,0,0,4.123-2.552,10.716,10.716,0,0,1-4.663-2.282,15.977,15.977,0,0,1-4.27-5.35c-1.08-2.258-1.129-4.074-.147-5.129.957-1.006,2.651-1.055,5.007-.1a13.085,13.085,0,0,1,6.356,4.859,7.212,7.212,0,0,1,.834,6.062v.049c2.454-.908,4.54-3.73,6.062-8.344a.835.835,0,0,1,1.055-.54.855.855,0,0,1,.564,1.08c-2.479,7.485-6.013,9.5-8.663,9.792a11.352,11.352,0,0,1-5.669,4.074A19.838,19.838,0,0,1,925.893,619.647Zm3.092-17.032a1.128,1.128,0,0,0-.834.245c-.368.368-.368,1.522.442,3.215,1.35,2.847,4.81,6.651,8.516,6.8a5.325,5.325,0,0,0,.368-.859c1.08-3.387-1.35-6.847-6.209-8.835A6.171,6.171,0,0,0,928.985,602.615Z" transform="translate(-918.8 -600.896)" fill="#ea6c96"/></g><path d="M1007.1,758.108c.025-.295.025-.614.025-.908C1007.125,757.495,1007.1,757.789,1007.1,758.108Z" transform="translate(-911.966 -718.84)" fill="#fe80aa"/><path d="M737.379,640.3a37.932,37.932,0,0,0-1.227-8.81A37.2,37.2,0,0,0,725.476,613.6a38.315,38.315,0,0,0-11.608-7.436,34.054,34.054,0,0,0-5.326-1.816,43.612,43.612,0,0,0-8.1-1.374,36.136,36.136,0,0,0-4.884-.1c-2.012.1-4.663.393-6.651.712a32.586,32.586,0,0,0-4.81,1.129,48.8,48.8,0,0,0-7.9,3.043,50.207,50.207,0,0,0-10.013,6.479,48.577,48.577,0,0,0-8.835,9.669,44.971,44.971,0,0,0-5.939,12.32,39.834,39.834,0,0,0-.049,23.511,37.385,37.385,0,0,0,5.3,10.577,37.933,37.933,0,0,0,8.614,8.59,41.538,41.538,0,0,0,23.658,7.682,47.921,47.921,0,0,0,25.082-6.6,50.884,50.884,0,0,0,10.7-8.369,47,47,0,0,0,7.068-9.449,42.951,42.951,0,0,0,4.319-10.627,46.138,46.138,0,0,0,1.031-5.5c.074-.614.123-1.325.172-2.062C737.183,646.683,737.428,645.309,737.379,640.3Z" transform="translate(-642.221 -602.36)" fill="#fe80aa"/><path d="M670.9,678l12.688,2.675,12.467-6.6-2.233-5.375-20.271,5.276Z" transform="translate(-658.275 -652.06)" fill="#ea7fab"/><path d="M796.1,752.42l17.989,17.719,11.78-3.24,1.472-6.5-26.235-9.6Z" transform="translate(-752.749 -714.011)" fill="#ea7fab"/><path d="M705.8,621.225s18.652,7.313,25.155,11.363c26.579-16.836,30.628-19.462,30.628-19.462S735.2,596.07,705.8,621.225Z" transform="translate(-684.61 -605.861)" fill="#fff" opacity="0.2"/><path d="M671.618,802.6a25.38,25.38,0,0,0-4.1-6.43,18.729,18.729,0,0,0-4.81-4c-2.871-1.6-5.473-1.718-7.338-.638l-5.571,3.24c1.89-1.1,4.467-.957,7.338.638a18.732,18.732,0,0,1,4.81,4,25.818,25.818,0,0,1,4.1,6.43,20.437,20.437,0,0,1,1.841,7.731c.049,3.436-1.153,5.865-3.092,6.994l5.571-3.24c1.939-1.129,3.141-3.559,3.092-6.994A20.089,20.089,0,0,0,671.618,802.6Z" transform="translate(-642.354 -744.217)" fill="#f7bacf"/><ellipse cx="8.639" cy="14.921" rx="8.639" ry="14.921" transform="translate(0 54.897) rotate(-30.165)" fill="#ea6c96"/><path d="M658.284,657.63a18.407,18.407,0,0,1,4.516,3.9l7.9,9.3c-5.007-1.914-9.2-2.5-12.418-1.89l-3.681-9.007C653.179,656.5,655.29,655.912,658.284,657.63Z" transform="translate(-645.635 -643.003)" fill="#ea6c96"/><path d="M666.153,639.489a10.984,10.984,0,0,0-1.816-1.252c-1.693-.982-3.117-1.2-3.755-.589l-4.982,4.761c.638-.614,2.061-.393,3.755.589a17.357,17.357,0,0,1,1.816,1.252,19.459,19.459,0,0,1,2.7,2.65l7.9,9.3,4.982-4.761-7.9-9.3A20.992,20.992,0,0,0,666.153,639.489Z" transform="translate(-646.73 -628.37)" fill="#f7bacf"/><path d="M815.781,736.761a10.666,10.666,0,0,0-1.693-3.387,20.614,20.614,0,0,0-3.755-3.976,14.929,14.929,0,0,0-1.914-1.325c-1.4-.81-2.675-1.129-3.436-.687l-4,2.43L796,734.577l4-2.43c.761-.466,2.037-.123,3.436.687a16.882,16.882,0,0,1,1.914,1.325,20.618,20.618,0,0,1,3.755,3.976,10.668,10.668,0,0,1,1.693,3.387l1.988,8.025,4.982-4.761Z" transform="translate(-752.674 -696.193)" fill="#f7bacf"/><path d="M803.536,747.5c2.994,1.718,6.6,5.62,7.338,8.688l1.988,8.025A135.935,135.935,0,0,0,796.1,749.265l4-2.43C800.861,746.369,802.137,746.688,803.536,747.5Z" transform="translate(-752.749 -710.856)" fill="#ea6c96"/><g transform="translate(17.405 33.452)"><path d="M692.37,737.374a2.518,2.518,0,0,1,.982,2.675,1.287,1.287,0,0,1-1.914,1.006,2.479,2.479,0,0,1-.982-2.675A1.3,1.3,0,0,1,692.37,737.374Z" transform="translate(-690.377 -737.203)" fill="#c1185b"/><g transform="translate(21.278 12.295)"><path d="M779.07,787.474a2.518,2.518,0,0,1,.982,2.675c-.245,1.031-1.1,1.473-1.914,1.006a2.479,2.479,0,0,1-.982-2.675A1.307,1.307,0,0,1,779.07,787.474Z" transform="translate(-777.077 -787.303)" fill="#c1185b"/></g></g><path d="M648.967,807.964c-5.424-3.019-9.743-.368-9.669,5.89,0,.344.025.663.049,1.006l19.462,8.565C658.194,817.462,654,810.762,648.967,807.964Z" transform="translate(-634.428 -756.205)" fill="#fff" opacity="0.3"/><g transform="translate(11.937 46.802)" opacity="0.3"><path d="M704.192,812.374l-.074-.074-5.718,3.043c.074.1.172.172.245.27a24.971,24.971,0,0,1,1.816,2.356l6.135-2.356A22.622,22.622,0,0,0,704.192,812.374Z" transform="translate(-690.964 -807.22)" fill="#fff"/><path d="M676.542,792.753a11.126,11.126,0,0,0-2.9-1.153l-5.546,3.239a12.178,12.178,0,0,1,2.871,1.129,17.115,17.115,0,0,1,3.043,2.209l5.473-3.313A19.715,19.715,0,0,0,676.542,792.753Z" transform="translate(-668.1 -791.6)" fill="#fff"/></g><path d="M802.464,789.829a46.846,46.846,0,0,0,6.8-9.08,41.4,41.4,0,0,0,4.147-10.234,42.952,42.952,0,0,0,1.006-5.3c.074-.589.123-1.276.172-1.988-.049,2.405.147,1.423.123-2.626-11.117,19.241-40.175,37.892-61.011,40.837a41.556,41.556,0,0,0,14.357,2.8,46.382,46.382,0,0,0,24.149-6.356A48.79,48.79,0,0,0,802.464,789.829Z" transform="translate(-720.755 -721.406)" fill="#ea6c96"/><path d="M673.321,640.239a10.981,10.981,0,0,0-1.816-1.252,10.775,10.775,0,0,0-1.448-.687l-4.957,4.761a7.292,7.292,0,0,1,1.423.663,17.35,17.35,0,0,1,1.816,1.252c.27.221.54.466.834.712l5.129-4.614C673.984,640.8,673.64,640.509,673.321,640.239Z" transform="translate(-653.899 -629.12)" fill="#fff" opacity="0.3"/><g transform="translate(49.707 31.635)" opacity="0.3"><path d="M849.553,748.174c-.344-.466-.712-.933-1.08-1.374L843,751a16.709,16.709,0,0,1,1.6,1.939c.172.245.344.491.491.736l4.859-4.957A4.334,4.334,0,0,1,849.553,748.174Z" transform="translate(-837.846 -742.628)" fill="#fff"/><path d="M823.08,734.807a16.871,16.871,0,0,1,1.914,1.325,15.474,15.474,0,0,1,1.5,1.35l5.571-4.148a19.18,19.18,0,0,0-2.086-1.939,14.925,14.925,0,0,0-1.914-1.325,5.155,5.155,0,0,0-.515-.27L822,734.291A8.527,8.527,0,0,1,823.08,734.807Z" transform="translate(-822 -729.8)" fill="#fff"/></g><path d="M958.6,604.465s-6.013-4.319-7.9-.736C953.056,601.5,958.6,604.465,958.6,604.465Z" transform="translate(-869.408 -601.961)" fill="#fff" opacity="0.35"/><path d="M1012.177,614.4s-1.89,6.209-5.277,8.172C1011.563,620.486,1012.177,614.4,1012.177,614.4Z" transform="translate(-911.815 -611.086)" fill="#fff" opacity="0.35"/><path d="M984.116,631.7s1.423,5.473-4.516,7.951C986.1,637.124,984.631,632.731,984.116,631.7Z" transform="translate(-891.215 -624.14)" fill="#fff" opacity="0.35"/><path d="M825.048,632.209c-7.093,3.681-11.706,6.013-17.719,10.307l-3.828-2.209A123.69,123.69,0,0,1,821.219,630Z" transform="translate(-758.333 -622.857)" fill="#ca6d93"/><path d="M879.529,632.209,875.7,630v4.2C876.9,633.559,878.179,632.92,879.529,632.209Z" transform="translate(-812.814 -622.857)" fill="#ea7fab" opacity="0.5"/><g transform="translate(45.191 1.081)"><g clip-path="url(#a)"><path d="M837.019,617.571,834.3,616c1.055.614,1.693,1.914,1.718,3.755a12.853,12.853,0,0,1-5.841,10.087c-1.62.933-3.092,1.031-4.172.417l2.724,1.571c1.055.614,2.528.54,4.172-.417a12.853,12.853,0,0,0,5.841-10.087A4.091,4.091,0,0,0,837.019,617.571Z" transform="translate(-820.503 -613.374)" fill="#f79826"/><path d="M826.983,609.9c-1.227-.712-2.945-.614-4.835.466a14.835,14.835,0,0,0-6.749,11.706c0,2.135.761,3.632,1.988,4.344l2.724,1.571c-1.227-.712-1.963-2.209-1.988-4.344a14.966,14.966,0,0,1,6.749-11.706c1.89-1.08,3.583-1.178,4.835-.466Z" transform="translate(-812.504 -608.427)" fill="#fee47f"/><g transform="translate(6.185 3.541)"><path d="M834.641,620.532c3.24-1.865,5.865-.368,5.865,3.338a12.853,12.853,0,0,1-5.841,10.087c-3.24,1.865-5.865.368-5.865-3.338A12.853,12.853,0,0,1,834.641,620.532Z" transform="translate(-828.8 -619.73)" fill="#feb200"/></g><g transform="translate(5.62 2.607)"><path d="M833.249,616.849c3.755-2.16,6.8-.417,6.8,3.878a14.966,14.966,0,0,1-6.749,11.706c-3.755,2.16-6.8.417-6.8-3.878A14.8,14.8,0,0,1,833.249,616.849Zm.024,14.5a12.853,12.853,0,0,0,5.841-10.087c0-3.706-2.626-5.2-5.865-3.338a12.86,12.86,0,0,0-5.841,10.111c.025,3.681,2.651,5.178,5.865,3.313Z" transform="translate(-826.499 -615.921)" fill="#fed44f"/></g><g transform="translate(9.62 6.037)"><path d="M845.745,629.9v1.153a1.873,1.873,0,0,1,.761-.172,1,1,0,0,1,.589.2.973.973,0,0,1,.368.54,2.4,2.4,0,0,1,.123.883l-1.6.908a2.532,2.532,0,0,0-.049-.491.557.557,0,0,0-.147-.27.4.4,0,0,0-.221-.074.827.827,0,0,0-.295.1.982.982,0,0,0-.294.245,2.051,2.051,0,0,0-.2.294,1.42,1.42,0,0,0-.123.344,1.926,1.926,0,0,0-.049.344,1.244,1.244,0,0,0,.049.319.535.535,0,0,0,.123.2.735.735,0,0,0,.245.1,1.047,1.047,0,0,0,.393,0,4.878,4.878,0,0,1,.834-.024,1.326,1.326,0,0,1,.663.147.815.815,0,0,1,.442.417,1.923,1.923,0,0,1,.172.834,3.885,3.885,0,0,1-.123.933,4.642,4.642,0,0,1-.393.883,5.955,5.955,0,0,1-.589.785,4.154,4.154,0,0,1-.785.663v1.08l-.736.442v-1.1a3.591,3.591,0,0,1-.785.245,1.274,1.274,0,0,1-.687-.074.969.969,0,0,1-.466-.515,2.368,2.368,0,0,1-.172-1.031l1.6-.908a1.745,1.745,0,0,0,.074.564.594.594,0,0,0,.2.27.38.38,0,0,0,.294.049,1.312,1.312,0,0,0,.344-.147,1.575,1.575,0,0,0,.319-.245,2.3,2.3,0,0,0,.221-.294,1.417,1.417,0,0,0,.123-.344,1.657,1.657,0,0,0,.049-.344,1.483,1.483,0,0,0-.049-.368.254.254,0,0,0-.147-.2.735.735,0,0,0-.245-.1,1.828,1.828,0,0,0-.368,0c-.319.025-.589.049-.859.049a1.68,1.68,0,0,1-.663-.123.815.815,0,0,1-.442-.417,2,2,0,0,1-.147-.859,3.083,3.083,0,0,1,.147-.933,4.234,4.234,0,0,1,.393-.908,3.911,3.911,0,0,1,.614-.81,5.453,5.453,0,0,1,.81-.687v-1.129Z" transform="translate(-842.8 -629.9)" fill="#fee47f"/></g><path d="M826.285,610.4a8.5,8.5,0,0,0-1.571.687A14.731,14.731,0,0,0,818.8,618.5l2.847,1.276a14.68,14.68,0,0,1,5.792-7.093,7.791,7.791,0,0,1,1.5-.663Z" transform="translate(-815.07 -609.148)" fill="#fff" opacity="0.3"/><path d="M845.466,636.449V636.4L835.6,646.462c1.031.736,2.552.712,4.246-.245A12.421,12.421,0,0,0,845.466,636.449Z" transform="translate(-827.747 -628.767)" fill="#fff" opacity="0.3"/></g></g></g><g transform="translate(75.904)"><path d="M371.042,691.526l63.219-36.518-8.442-4.908L362.6,686.593Z" transform="translate(-362.6 -522.6)" fill="#d8e1e6"/><path d="M433.663,130.826a2.733,2.733,0,0,0-2.724.27L375.3,163.22a8.357,8.357,0,0,0-3.8,6.6l.344,122.61a2.673,2.673,0,0,0,1.129,2.454l4.123,2.405a2.726,2.726,0,0,1-1.129-2.454l-.344-122.61a8.384,8.384,0,0,1,3.8-6.6L435.062,133.5a2.733,2.733,0,0,1,2.724-.27Z" transform="translate(-369.315 -130.574)" fill="#afbdc4"/><path d="M447.74,140.874c2.111-1.227,3.828-.245,3.853,2.184l.344,122.61a8.384,8.384,0,0,1-3.8,6.6L392.5,304.37c-2.111,1.227-3.828.245-3.853-2.184l-.344-122.61a8.384,8.384,0,0,1,3.8-6.6Z" transform="translate(-381.993 -137.947)" fill="#263238"/><path d="M484.936,241.673c.417-.245.736-.049.736.417a1.622,1.622,0,0,1-.736,1.276c-.393.245-.736.049-.736-.417A1.612,1.612,0,0,1,484.936,241.673Z" transform="translate(-454.357 -214.327)" fill="#0d141e"/><path d="M507.147,208.069c.2-.1.344-.025.344.2a.748.748,0,0,1-.344.589l-13.2,7.608c-.2.1-.344.025-.344-.2a.748.748,0,0,1,.344-.589Z" transform="translate(-461.45 -189.018)" fill="#0d141e"/><path d="M457.694,173l.319,110.02-57.918,33.426-.294-110.02Z" transform="translate(-390.671 -162.588)" fill="#410939"/><path d="M460.555,371.3,404.6,455.429l.025,8.442,14.431-8.344L460.6,386.172Z" transform="translate(-394.292 -312.222)" fill="#fff" opacity="0.1"/><path d="M404.3,357.484l.025,10.43,55.98-86.387-.049-9.228Z" transform="translate(-394.066 -237.518)" fill="#fff" opacity="0.1"/><path d="M444.688,190.861,403.9,256.829l.1,28.2,55.955-84.6L459.9,182.1Z" transform="translate(-393.764 -169.455)" fill="#fff" opacity="0.104"/><g transform="translate(21.989 33.987)"><path d="M488.769,287.756c0-.589-.417-.834-.933-.54l-34.6,19.977a2.029,2.029,0,0,0-.933,1.6l.025,8.246c0,.589.417.834.933.54l34.6-19.977a2.029,2.029,0,0,0,.933-1.6Z" transform="translate(-452.276 -282.666)" fill="#bec9db"/><g transform="translate(1.08 4.01)"><path d="M577.8,285.4v2.528l5.4,3.289V285.4Z" transform="translate(-548.055 -285.4)" fill="#a3a3a3"/><path d="M486.344,295.7,456.6,312.855v3.387l2.577,1.571,32.567-18.823Z" transform="translate(-456.6 -293.172)" fill="#d9d9d9"/></g><path d="M456.6,307.708l1.571.245,31.487-18.014,2.037-4.54h-5.35v2.528L456.6,305.082Z" transform="translate(-455.52 -281.39)" fill="#bec9db"/><path d="M461.893,364.6l-1.693-.982V357.7l1.669.957Z" transform="translate(-458.237 -335.946)" fill="#8b8b8b"/><path d="M461.869,300.781l-1.669-.957L492.767,281l1.693.982Z" transform="translate(-458.237 -278.07)" fill="#979797"/><path d="M494.636,273.216c.515-.294.933-.049.933.54l.025,8.246a2.029,2.029,0,0,1-.933,1.6l-34.6,19.977c-.515.294-.933.049-.933-.54l-.025-8.246a2.029,2.029,0,0,1,.933-1.6Zm-1.006,8.712-.025-5.939-32.567,18.823.025,5.939,32.567-18.823Z" transform="translate(-457.407 -272.102)" fill="#bcbcbc"/><path d="M488.4,269.119a.669.669,0,0,0-.663.074l-34.6,19.977a2.029,2.029,0,0,0-.933,1.6l.025,8.246a.625.625,0,0,0,.27.589l1.693.982a.625.625,0,0,1-.27-.589l-.025-8.246a2.029,2.029,0,0,1,.933-1.6l34.6-19.977a.668.668,0,0,1,.663-.074Z" transform="translate(-452.2 -269.06)" fill="#d9d9d9"/></g><g transform="translate(25.622 37.874)"><g clip-path="url(#b)"><g transform="translate(9.571 6.013)"><path d="M522.492,314.21v3.141c0-1.227-.81-2.454-2.43-3.411a12.842,12.842,0,0,0-11.657,0c-1.6.933-2.405,2.135-2.405,3.362v-3.141c0-1.2.81-2.43,2.405-3.362a12.842,12.842,0,0,1,11.657,0c1.62.957,2.43,2.184,2.43,3.411Z" transform="translate(-506 -309.4)" fill="#f79826"/></g><g transform="translate(9.565 6.553)"><path d="M520.019,313c3.24,1.865,3.24,4.884.049,6.749a12.842,12.842,0,0,1-11.657,0c-3.239-1.865-3.239-4.884-.049-6.749A12.843,12.843,0,0,1,520.019,313Z" transform="translate(-505.975 -311.6)" fill="#feb200"/></g><g transform="translate(8.246 10.749)"><path d="M519.718,328.774v3.141c0,1.4-.933,2.822-2.773,3.878a14.922,14.922,0,0,1-13.522,0c-1.89-1.08-2.822-2.5-2.822-3.951V328.7c0,1.423.933,2.847,2.822,3.951a14.921,14.921,0,0,0,13.522,0c1.841-1.055,2.773-2.479,2.773-3.878Z" transform="translate(-500.6 -328.7)" fill="#fed44f"/></g><g transform="translate(13.473 7.853)"><path d="M527.643,317.833l-1.571.908a4.894,4.894,0,0,0-.515-.245,3.981,3.981,0,0,0-.466-.1,2.246,2.246,0,0,0-.417.025,1.421,1.421,0,0,0-.344.123,1.2,1.2,0,0,0-.245.2.33.33,0,0,0-.049.2.434.434,0,0,0,.123.2,2.145,2.145,0,0,0,.245.2,1.853,1.853,0,0,0,.319.147,1.486,1.486,0,0,0,.368.049,3.3,3.3,0,0,0,.466-.025c.172-.025.368-.049.589-.1.442-.1.834-.2,1.227-.27a6.105,6.105,0,0,1,1.129-.123,4.6,4.6,0,0,1,1.031.1,3.661,3.661,0,0,1,.982.368,2.252,2.252,0,0,1,.614.515.984.984,0,0,1,.2.564,1.047,1.047,0,0,1-.2.564,2.176,2.176,0,0,1-.589.564l.957.54-.736.442-.957-.54a5.5,5.5,0,0,1-.957.344,3.954,3.954,0,0,1-1.08.147,4.493,4.493,0,0,1-2.331-.589l1.571-.908a5.756,5.756,0,0,0,.589.27,2.187,2.187,0,0,0,.54.074,1.429,1.429,0,0,0,.466-.074,1.9,1.9,0,0,0,.393-.172.735.735,0,0,0,.245-.221.25.25,0,0,0,.049-.221.3.3,0,0,0-.1-.2,1.07,1.07,0,0,0-.245-.2,2.474,2.474,0,0,0-.368-.172,1.857,1.857,0,0,0-.393-.074,3.13,3.13,0,0,0-.466.025c-.172.025-.344.049-.564.1-.442.1-.834.2-1.227.27a6.077,6.077,0,0,1-1.1.123,3.676,3.676,0,0,1-1.031-.1,3.289,3.289,0,0,1-.982-.393,1.541,1.541,0,0,1-.589-.515.811.811,0,0,1-.172-.564.979.979,0,0,1,.221-.589,2.837,2.837,0,0,1,.614-.589l-.982-.564.736-.442,1.006.589a3.482,3.482,0,0,1,.982-.294,3.653,3.653,0,0,1,1.031-.074,5.026,5.026,0,0,1,1.031.172C527,317.514,527.324,317.636,527.643,317.833Z" transform="translate(-521.9 -316.9)" fill="#fee47f"/></g><path d="M522.238,327.649,508.225,323.6c-1.325,1.669-.785,3.706,1.6,5.08a12.166,12.166,0,0,0,11.044,0A4.384,4.384,0,0,0,522.238,327.649Z" transform="translate(-497.574 -314.102)" fill="#fff" opacity="0.3"/><g transform="translate(8.246 5.276)"><path d="M516.9,308.02c3.755,2.16,3.755,5.669.049,7.829a14.922,14.922,0,0,1-13.523,0c-3.755-2.16-3.755-5.669-.049-7.829A14.922,14.922,0,0,1,516.9,308.02Zm-12.541,7.289a12.843,12.843,0,0,0,11.657,0c3.215-1.865,3.19-4.884-.049-6.749a12.842,12.842,0,0,0-11.657,0c-3.215,1.841-3.19,4.884.049,6.749Z" transform="translate(-500.6 -306.4)" fill="#fee47f"/></g><path d="M515.213,330.944a12.974,12.974,0,0,1-10.847-.417c-1.693-.982-2.5-2.282-2.43-3.559l-1.276-.368c-.27,1.6.663,3.24,2.773,4.467a14.982,14.982,0,0,0,13.032.245Z" transform="translate(-492.365 -316.366)" fill="#fff" opacity="0.3"/><g transform="translate(9.817 14.038)"><path d="M522.692,350.621c-.368-.074-.712-.147-1.055-.221l-.736,2.5c.319.1.663.2,1.006.27Z" transform="translate(-517.489 -348.363)" fill="#fff" opacity="0.3"/><path d="M509.994,346.493l.638-2.5a10.364,10.364,0,0,1-2.381-1.006A8.1,8.1,0,0,1,507,342.1l.1,2.8a8.276,8.276,0,0,0,1.129.785A9.565,9.565,0,0,0,509.994,346.493Z" transform="translate(-507 -342.1)" fill="#fff" opacity="0.3"/></g></g></g></g><g transform="translate(137.54 56.978)"><path d="M642.251,367.7c-1.816-3.681-5.473-5.473-8.541-4.417l-2.111.736c3.068-1.055,6.724.736,8.54,4.417,2.012,4.074,1.031,8.86-2.209,10.725a8.32,8.32,0,0,1-.957.442l2.111-.736a8.315,8.315,0,0,0,.957-.442C643.282,376.58,644.288,371.77,642.251,367.7Z" transform="translate(-626.313 -361.709)" fill="#f79826"/><g transform="translate(2.599 1.444)"><path d="M623.9,364.429c3.24-1.865,7.485-.074,9.5,3.976,2.012,4.074,1.031,8.859-2.209,10.725s-7.485.074-9.5-3.976S620.658,366.294,623.9,364.429Z" transform="translate(-620.645 -363.69)" fill="#feb200"/></g><g transform="translate(6.685 3.434)"><path d="M638.548,371.8l.638,1.276a2.271,2.271,0,0,1,1.792.074,2.978,2.978,0,0,1,.785.614,4.289,4.289,0,0,1,.663.982l-1.62.933a2.579,2.579,0,0,0-.344-.54,1.947,1.947,0,0,0-.344-.319.671.671,0,0,0-.344-.1.493.493,0,0,0-.319.1.876.876,0,0,0-.27.245.7.7,0,0,0-.1.319,1.984,1.984,0,0,0,.025.368,1.158,1.158,0,0,0,.147.368c.074.123.147.245.221.344a.767.767,0,0,0,.27.221,1.482,1.482,0,0,0,.393.123,3.3,3.3,0,0,0,.515.025,8.285,8.285,0,0,1,1.1,0,3.9,3.9,0,0,1,.957.172,2.316,2.316,0,0,1,.81.491,3.136,3.136,0,0,1,.663.933,3.4,3.4,0,0,1,.344,1.031,2.512,2.512,0,0,1-.025.957,2.55,2.55,0,0,1-.368.834,2.519,2.519,0,0,1-.663.687l.589,1.178-.761.442-.589-1.2a2.9,2.9,0,0,1-.908.221,2.152,2.152,0,0,1-.957-.123,2.874,2.874,0,0,1-.908-.589,4.177,4.177,0,0,1-.81-1.129l1.6-.933a2.057,2.057,0,0,0,.417.614,1.091,1.091,0,0,0,.417.294.818.818,0,0,0,.417.049,2.414,2.414,0,0,0,.393-.123.664.664,0,0,0,.27-.245.723.723,0,0,0,.123-.319.965.965,0,0,0-.025-.368,1.157,1.157,0,0,0-.147-.368,1.821,1.821,0,0,0-.245-.393,2.605,2.605,0,0,0-.294-.245,1.03,1.03,0,0,0-.393-.1,3.129,3.129,0,0,0-.491-.025c-.393.025-.761.025-1.1.025a3.012,3.012,0,0,1-.957-.172,2.316,2.316,0,0,1-.81-.491,3.136,3.136,0,0,1-.663-.933,3.194,3.194,0,0,1-.319-1.006,2.469,2.469,0,0,1,.049-.957,2.665,2.665,0,0,1,1.055-1.571l-.614-1.252Z" transform="translate(-637.296 -371.8)" fill="#fee47f"/></g><path d="M632.7,385.5c2.086,2.258,5.056,2.994,7.436,1.62,3.019-1.742,3.927-6.234,2.062-10.013a8.9,8.9,0,0,0-1.644-2.307Z" transform="translate(-627.143 -370.63)" fill="#fff" opacity="0.3"/><path d="M613.384,372.058c-2.331-4.712-1.2-10.283,2.552-12.443a11.147,11.147,0,0,1,1.1-.515l-2.111.736a5.578,5.578,0,0,0-1.1.515c-3.755,2.16-4.884,7.731-2.552,12.443,2.111,4.246,6.332,6.356,9.89,5.129l2.111-.736C619.715,378.414,615.494,376.328,613.384,372.058Z" transform="translate(-610.059 -358.783)" fill="#fee47f"/><g transform="translate(2.112)"><path d="M622.425,358.665c3.755-2.16,8.663-.1,10.995,4.614s1.2,10.283-2.552,12.443-8.663.1-10.995-4.614S618.67,360.824,622.425,358.665Zm7.878,15.878c3.24-1.865,4.221-6.675,2.209-10.725-2.012-4.074-6.258-5.841-9.5-3.976s-4.221,6.675-2.209,10.725,6.258,5.841,9.5,3.976Z" transform="translate(-618.661 -357.808)" fill="#fed44f"/></g><g transform="translate(0 5.299)" opacity="0.3"><path d="M613.488,400.3l-1.988,1.227a12.372,12.372,0,0,0,.761,2.135l1.841-1.374A8.819,8.819,0,0,1,613.488,400.3Z" transform="translate(-611.145 -395.171)" fill="#fff"/><path d="M610.434,380.234a10.548,10.548,0,0,0-.245,4.491l2.062-1.178a10.151,10.151,0,0,1,.344-4.148Z" transform="translate(-610.055 -379.4)" fill="#fff"/></g><path d="M620.806,370.593c-2.012-4.074-1.031-8.86,2.209-10.725a5.736,5.736,0,0,1,4.786-.393c.221-.368.442-.736.638-1.055a6.732,6.732,0,0,0-6.013.27c-3.755,2.16-4.884,7.731-2.552,12.443.123.221.221.442.344.663.2-.319.417-.687.638-1.055A.208.208,0,0,0,620.806,370.593Z" transform="translate(-616.549 -357.833)" fill="#fff" opacity="0.3"/></g><g transform="translate(84.193 107.352)"><path d="M448.3,766.8l4.933,1.914-42.678,24.763-5.448-5.964-9.007-2.307,8.614-4.614Z" transform="translate(-396.1 -714.943)" fill="#d8e1e6"/><path d="M416.1,576.508l8.663,1.423,2.454,5.031,36.371-21.008-8.688-1.423-2.43-5.031Z" transform="translate(-411.192 -555.5)" fill="#f9f9f9"/><path d="M423,578.679,457.432,558.8l2.16,4.467.147.27.294.049,7.068,1.178-34.432,19.879-2.16-4.467-.147-.27-.294-.049Z" transform="translate(-416.398 -557.99)" fill="#afbdc4"/><path d="M520.4,576.421,530.928,558.8,535,567.979Z" transform="translate(-489.895 -557.99)" fill="#788f9b"/><path d="M493.017,581.8l3.509,47.439L455.1,653.167l1.546-50.359Z" transform="translate(-440.62 -575.346)" fill="#afbdc4"/><path d="M405.309,641.1,401.8,690.306l7.9,1.988,4.27-49.771Z" transform="translate(-400.401 -620.092)" fill="#afbdc4"/><path d="M438.27,646.9,434,696.671l5.178,5.62,1.546-50.359Z" transform="translate(-424.699 -624.469)" fill="#788f9b"/><path d="M572.247,578.1l.294.049,7.068,1.178-7.51,4.319Z" transform="translate(-528.907 -572.554)" fill="#788f9b"/><path d="M563.3,558.8l2.16,4.467.147.27-.147,5.546-2.16,1.276Z" transform="translate(-522.266 -557.99)" fill="#607d8a"/><path d="M411.1,695.247l9.89-48.347-4.27,49.771Z" transform="translate(-407.419 -624.469)" fill="#ced7db"/><g transform="translate(25.572 13.382)"><g transform="translate(0.663 0.999)"><path d="M511.3,643.059h.1c7.363-.27,8.59-21.548,8.663-28.959h-.589c-.049,6.97-1.325,28.468-8.1,28.689-5.3.172-7.362-13.621-7.78-19l-.589.049C503.491,630.052,505.675,643.059,511.3,643.059Z" transform="translate(-503 -614.1)" fill="#dbdbdb"/></g><g transform="translate(16.492)"><path d="M568.31,610.144a1.819,1.819,0,0,0-.81,1.4c0,.515.368.712.81.466a1.818,1.818,0,0,0,.81-1.4C569.12,610.095,568.752,609.874,568.31,610.144Z" transform="translate(-567.5 -610.028)" fill="#fff"/></g><g transform="translate(0 9.768)"><path d="M501.11,649.944a1.818,1.818,0,0,0-.81,1.4c0,.515.368.712.81.466a1.818,1.818,0,0,0,.81-1.4C501.92,649.895,501.552,649.674,501.11,649.944Z" transform="translate(-500.3 -649.828)" fill="#fff"/></g></g></g><g transform="translate(56.932 138.934)"><path d="M307.716,834.2,288.5,845.366l19.339,11.167,19.216-11.167Z" transform="translate(-288.5 -796.875)" fill="#d8e1e6"/><g transform="translate(19.314 22.477)"><path d="M384.821,773.7l-.025,25.941-17.6,10.234.025-25.965Z" transform="translate(-367.2 -773.7)" fill="#d71b60"/></g><g transform="translate(1.62 22.477)"><path d="M312.819,783.909l-.025,25.965L295.1,799.641V773.7Z" transform="translate(-295.1 -773.7)" fill="#ef6291"/></g><path d="M295.1,773.7v2.822l17.719,10.234,17.6-10.234V773.7l-17.6,10.209Z" transform="translate(-293.48 -751.223)" fill="#d9e1ed"/><path d="M385.976,755.4l-.025,4.933L367.3,771.18v-4.933Z" transform="translate(-347.961 -737.414)" fill="#d71b60"/><path d="M309.5,766.247v4.933l-18.8-10.847.025-4.933Z" transform="translate(-290.16 -737.414)" fill="#ef6291"/><path d="M328.251,722.047l-18.676,10.847L290.8,722.047,309.452,711.2Z" transform="translate(-290.236 -704.061)" fill="#d71b60"/><path d="M298.423,745.7l-4.123,2.405,17.645,10.185,9.35-5.424Z" transform="translate(-292.877 -730.094)" fill="#fff" opacity="0.3"/><path d="M298.794,792.7l-.294,20.959,5.227,3.068,2.405-20.222Z" transform="translate(-296.046 -765.56)" fill="#fff" opacity="0.3"/><path d="M394.589,848.773V839.3L380.6,856.921Z" transform="translate(-357.997 -800.723)" fill="#fff" opacity="0.15"/><path d="M408.295,767v-2.5L397.3,773.409Z" transform="translate(-370.599 -744.281)" fill="#fff" opacity="0.15"/><path d="M292.4,758.6v3.878l6.97,3.8,1.227-3.092Z" transform="translate(-291.443 -739.829)" fill="#fff" opacity="0.3"/><path d="M321.1,730l18.725,10.9,4.319-2.528L325.419,727.5Z" transform="translate(-313.099 -716.361)" fill="#c9ebf7"/><path d="M363.8,749.5l-4.2,2.6,2.43,1.4,4.319-2.5Z" transform="translate(-342.151 -732.962)" fill="#a4dbea"/><path d="M324.944,741.751,343.6,730.9l-4.319-2.5L320.6,739.247Z" transform="translate(-312.722 -717.04)" fill="#c9ebf7"/><path d="M340.585,729.5,322.4,740.127l1.963,1.055L341.1,729.893Z" transform="translate(-314.08 -717.87)" fill="#fff" opacity="0.35"/><path d="M320.6,777.557l4.344,2.5V775.1l-4.344-2.5Z" transform="translate(-312.722 -750.393)" fill="#a4dbea"/><path d="M397.4,779.336l4.319-2.5V771.9l-4.319,2.5Z" transform="translate(-370.674 -749.865)" fill="#79c9db"/><path d="M331.554,740.006l5.326-2.945-3.141-1.816-6.675,3.9-4.638-.172-9.3-3.976L309,737.405l11.044,3.657-7.068,3.828,4.246,2.43,6.921-5.645,7.166,4.516,5.178-3.019Z" transform="translate(-303.969 -722.02)" fill="#bec9db"/><g transform="translate(1.446)"><path d="M364.146,750.6l.564.074.908.663-.147.491-1.3.736-1.2-.614-.368-1.006.27-.2Z" transform="translate(-345.86 -733.792)" fill="#eefaff"/><g transform="translate(0.016)"><path d="M306.787,696.8a25.624,25.624,0,0,1-6.356-4.884,9.886,9.886,0,0,1-1.4-2.012,2.477,2.477,0,0,1-.172-.368,5.107,5.107,0,0,1-.172-3.976,3.847,3.847,0,0,1,1.448-2.062l-3.485,2.037A3.979,3.979,0,0,0,295.2,687.6a5.107,5.107,0,0,0,.172,3.976c.049.123.123.245.172.368a10.274,10.274,0,0,0,1.4,2.012,26.223,26.223,0,0,0,6.356,4.884,54.372,54.372,0,0,0,6.062,2.969l3.485-2.037A54.057,54.057,0,0,1,306.787,696.8Z" transform="translate(-294.775 -683.159)" fill="#c9ebf7"/><g transform="translate(14.736 16.71)"><path d="M354.5,752.212l3.485-2.012.049.1-3.485,2.037Z" transform="translate(-354.5 -750.2)" fill="#eefaff"/></g><path d="M314.439,691.312a42.174,42.174,0,0,0-4.54-6.749,9.959,9.959,0,0,0-2.282-2.012,1.626,1.626,0,0,0-.466-.221,1.992,1.992,0,0,0-1.865.025l-3.485,2.037a2,2,0,0,1,1.865-.025c.147.074.295.147.466.221a9.961,9.961,0,0,1,2.282,2.012,42.175,42.175,0,0,1,4.54,6.749c2.16,3.828,3.779,7.461,3.8,7.51l3.485-2.037C318.194,698.773,316.574,695.141,314.439,691.312Z" transform="translate(-299.998 -682.112)" fill="#eefaff"/><g transform="translate(0 2.017)"><path d="M309.191,707.036l.049.123-.1-.025a46.676,46.676,0,0,1-5.89-2.847,1.825,1.825,0,0,1-.294-.172c-4-2.307-6.626-4.663-7.8-6.97a5.4,5.4,0,0,1-.368-4.491c.761-2.012,1.89-2.724,3.338-2.111.147.074.295.147.466.221,1.841,1.055,4.123,4,6.823,8.761C307.547,703.379,309.167,707.012,309.191,707.036Zm-6.209-3.043a54.353,54.353,0,0,0,6.062,2.97c-.589-1.3-6.234-13.6-10.479-16.05l-.442-.221c-1.423-.589-2.5.1-3.264,2.086a5.231,5.231,0,0,0,.344,4.344c1.423,2.7,4.737,5.1,7.78,6.872Z" transform="translate(-294.456 -690.331)" fill="#c9ebf7"/></g><path d="M322.349,689.761c-.245-.27-.491-.54-.712-.761l-3.338,2.184a6.685,6.685,0,0,1,.564.614,26.306,26.306,0,0,1,1.693,2.184l3.387-2.184A23.8,23.8,0,0,0,322.349,689.761Z" transform="translate(-312.448 -687.31)" fill="#fff" opacity="0.45"/><path d="M333.191,703.441c-.417-.663-.81-1.276-1.2-1.841l-3.289,2.331c.221.344.466.687.712,1.08C330.442,704.594,331.915,703.98,333.191,703.441Z" transform="translate(-320.296 -696.817)" fill="#fff" opacity="0.45"/></g><g transform="translate(10.604 13.569)"><path d="M341.085,739.437,337.6,737.4a20.189,20.189,0,0,1,4.025,3.19l3.485,2.037a19.3,19.3,0,0,0-4.025-3.19Z" transform="translate(-337.6 -737.4)" fill="#c9ebf7"/></g><g transform="translate(0.984 16.759)"><path d="M315.53,752.437l-3.485-2.037a64.307,64.307,0,0,1-6.062,4.025c-2.92,1.693-6.086,3.068-7.583,2.209l3.485,2.037c1.5.859,4.663-.515,7.583-2.209a57.942,57.942,0,0,0,6.062-4.025Z" transform="translate(-298.4 -750.4)" fill="#eefaff"/></g><path d="M305.044,732.687c-2.577-1.5-4.786-1.742-6.553-.712-.147.1-.294.2-.466.294a6.039,6.039,0,0,0-.933.859,9.1,9.1,0,0,0-1.473,2.405,16.54,16.54,0,0,0-.908,2.7c-.54,2.062-.393,3.411.393,4.025a.534.534,0,0,0,.2.123l3.485,2.037c-.074-.049-.123-.074-.2-.123-.785-.614-.933-1.988-.393-4.025a19.272,19.272,0,0,1,.908-2.7,9.794,9.794,0,0,1,1.473-2.405,6.044,6.044,0,0,1,.933-.859c.147-.1.294-.2.466-.294,1.767-1.031,3.976-.785,6.553.712Z" transform="translate(-294.391 -719.266)" fill="#eefaff"/><g transform="translate(3.509 14.128)"><path d="M312.326,740.592c.147-.1.294-.2.466-.294,1.841-1.055,4.148-.761,6.847.883a21.214,21.214,0,0,1,3.829,3.092l.049.049-.1.074a65.2,65.2,0,0,1-5.89,3.951c-.1.049-.2.123-.295.172-4,2.307-6.626,2.994-7.829,2.061-.785-.614-.933-1.988-.393-4.025C309.749,743.66,310.853,741.647,312.326,740.592Zm-2.847,9.866c1.4,1.1,4.712-.319,7.755-2.086a69.877,69.877,0,0,0,6.062-4.025c-.589-.614-6.283-6.381-10.528-3.927a4.27,4.27,0,0,0-.442.27c-1.423,1.031-2.5,2.994-3.24,5.841-.491,2.012-.368,3.338.393,3.927Z" transform="translate(-308.691 -739.679)" fill="#c9ebf7"/></g><path d="M300.651,735.5a4.071,4.071,0,0,0-.81.785,9.106,9.106,0,0,0-1.473,2.405c-.123.294-.245.589-.368.908l3.706,1.473c.049-.123.1-.245.147-.344a9.8,9.8,0,0,1,1.473-2.405,6.046,6.046,0,0,1,.933-.859.4.4,0,0,1,.172-.1Z" transform="translate(-297.114 -722.398)" fill="#fff" opacity="0.45"/><path d="M295.744,755.5c-.1.319-.2.638-.27.957-.025.1-.049.2-.074.319l3.73,1.153c.123-.393.221-.761.344-1.1Z" transform="translate(-295.152 -737.489)" fill="#fff" opacity="0.45"/><g transform="translate(18.212)"><g transform="translate(0.049)"><path d="M375.562,696.8a25.625,25.625,0,0,0,6.356-4.884,9.886,9.886,0,0,0,1.4-2.012,2.483,2.483,0,0,0,.172-.368,5.107,5.107,0,0,0,.172-3.976,3.847,3.847,0,0,0-1.448-2.062l3.485,2.037a3.979,3.979,0,0,1,1.448,2.062,5.106,5.106,0,0,1-.172,3.976c-.049.123-.123.245-.172.368a10.274,10.274,0,0,1-1.4,2.012,26.222,26.222,0,0,1-6.356,4.884,54.367,54.367,0,0,1-6.062,2.969l-3.485-2.037A49.99,49.99,0,0,0,375.562,696.8Z" transform="translate(-369.328 -683.159)" fill="#c9ebf7"/><g transform="translate(0 16.71)"><path d="M372.334,752.212l-3.485-2.012-.049.1,3.485,2.037Z" transform="translate(-368.8 -750.2)" fill="#eefaff"/></g><path d="M372.7,691.312a42.176,42.176,0,0,1,4.54-6.749,9.959,9.959,0,0,1,2.282-2.012,1.627,1.627,0,0,1,.466-.221,1.992,1.992,0,0,1,1.865.025l3.485,2.037a2,2,0,0,0-1.865-.025c-.147.074-.294.147-.466.221a9.96,9.96,0,0,0-2.282,2.012,42.173,42.173,0,0,0-4.54,6.749c-2.16,3.828-3.779,7.461-3.8,7.51l-3.485-2.037C368.925,698.773,370.544,695.141,372.7,691.312Z" transform="translate(-368.875 -682.112)" fill="#eefaff"/><g transform="translate(3.509 2.042)"><path d="M386.928,699.626c2.675-4.761,4.982-7.706,6.823-8.761a1.628,1.628,0,0,1,.466-.221c1.473-.614,2.577.1,3.338,2.111a5.4,5.4,0,0,1-.368,4.491c-1.178,2.307-3.8,4.663-7.8,6.97a1.832,1.832,0,0,0-.295.172,51.127,51.127,0,0,1-5.89,2.847l-.1.025.049-.123C383.149,707.087,384.769,703.455,386.928,699.626Zm2.405,4.442c3.043-1.767,6.356-4.172,7.755-6.872a5.141,5.141,0,0,0,.344-4.344c-.736-1.988-1.841-2.675-3.264-2.086a1.859,1.859,0,0,0-.442.221c-4.246,2.454-9.89,14.75-10.479,16.05a51.743,51.743,0,0,0,6.086-2.97Z" transform="translate(-383.1 -690.431)" fill="#c9ebf7"/></g><path d="M398,689.761c.245-.27.491-.54.712-.761l3.338,2.184a6.672,6.672,0,0,0-.564.614,26.292,26.292,0,0,0-1.693,2.184L396.4,691.8A19.749,19.749,0,0,1,398,689.761Z" transform="translate(-389.627 -687.31)" fill="#fff" opacity="0.45"/><path d="M390.6,703.441c.417-.663.81-1.276,1.2-1.841l3.289,2.331c-.221.344-.466.687-.712,1.08C393.349,704.594,391.876,703.98,390.6,703.441Z" transform="translate(-385.25 -696.817)" fill="#fff" opacity="0.45"/></g><g transform="translate(0.221 13.569)"><path d="M373.525,739.437l3.485-2.037a20.189,20.189,0,0,0-4.025,3.19l-3.485,2.037a19.3,19.3,0,0,1,4.025-3.19Z" transform="translate(-369.5 -737.4)" fill="#c9ebf7"/></g><g transform="translate(0.196 16.759)"><path d="M369.4,752.437l3.485-2.037a64.313,64.313,0,0,0,6.062,4.025c2.92,1.693,6.086,3.068,7.583,2.209l-3.485,2.037c-1.5.859-4.663-.515-7.583-2.209a64.292,64.292,0,0,1-6.062-4.025Z" transform="translate(-369.4 -750.4)" fill="#eefaff"/></g><path d="M389.185,732.687c2.577-1.5,4.786-1.742,6.553-.712.147.1.294.2.466.294a6.036,6.036,0,0,1,.933.859,9.1,9.1,0,0,1,1.473,2.405,16.543,16.543,0,0,1,.908,2.7c.54,2.062.393,3.411-.393,4.025a.535.535,0,0,1-.2.123l-3.485,2.037c.074-.049.123-.074.2-.123.785-.614.933-1.988.393-4.025a19.272,19.272,0,0,0-.908-2.7,9.794,9.794,0,0,0-1.473-2.405,6.045,6.045,0,0,0-.933-.859c-.147-.1-.294-.2-.466-.294-1.767-1.031-3.976-.785-6.553.712Z" transform="translate(-381.503 -719.266)" fill="#eefaff"/><g transform="translate(0 14.128)"><path d="M383.1,746.556c.54,2.061.393,3.411-.393,4.025-1.2.933-3.828.245-7.829-2.061-.1-.049-.2-.123-.294-.172-3.092-1.816-5.865-3.951-5.89-3.951l-.1-.074.049-.049a20.092,20.092,0,0,1,3.828-3.092c2.7-1.644,5.007-1.939,6.847-.883.147.1.295.2.466.294C381.239,741.647,382.368,743.66,383.1,746.556Zm-.466,3.9c.761-.614.883-1.914.368-3.927-.736-2.822-1.816-4.786-3.24-5.841a4.276,4.276,0,0,0-.442-.27c-4.246-2.454-9.939,3.289-10.528,3.927a64.309,64.309,0,0,0,6.062,4.025c3.043,1.767,6.381,3.19,7.78,2.086Z" transform="translate(-368.6 -739.679)" fill="#c9ebf7"/></g><path d="M417.279,735.5a4.072,4.072,0,0,1,.81.785,9.105,9.105,0,0,1,1.473,2.405c.123.294.245.589.368.908l-3.706,1.473c-.049-.123-.1-.245-.147-.344a9.794,9.794,0,0,0-1.473-2.405,6.044,6.044,0,0,0-.933-.859.4.4,0,0,0-.172-.1Z" transform="translate(-402.481 -722.398)" fill="#fff" opacity="0.45"/><path d="M429.43,755.5c.1.319.2.638.27.957.025.1.049.2.074.319l-3.73,1.153c-.123-.393-.221-.761-.344-1.1Z" transform="translate(-411.687 -737.489)" fill="#fff" opacity="0.45"/></g></g></g><g transform="translate(0 175.276)"><path d="M182.425,911.057l-24.91,14.455L67.3,873.655,92.21,859.2Z" transform="translate(-66.048 -850.758)" fill="#d8e1e6"/><path d="M152.366,868.484l-42.972-24.836a74.1,74.1,0,0,1-18.185-15.363c-.982-1.129-1.963-2.282-2.92-3.485L62.2,839.942c.957,1.2,1.939,2.356,2.92,3.485A74.015,74.015,0,0,0,83.306,858.79l43,24.812c10.8,6.234,21.253,9.669,31.094,10.258l26.088-15.167C173.619,878.153,163.164,874.693,152.366,868.484Z" transform="translate(-62.2 -824.8)" fill="#dff1f0"/><g transform="translate(17.375 16.026)"><g transform="translate(10.577 6.921)"><path d="M196.887,919.282l-19.093,11.093-1.693-.982L195.193,918.3Z" transform="translate(-176.1 -918.3)" fill="#afbdc4"/></g><g transform="translate(17.645 18.161)"><path d="M213.391,965.057l-6.8,3.951-1.693-.957,6.8-3.951Z" transform="translate(-204.9 -964.1)" fill="#afbdc4"/></g><g transform="translate(14.111 12.025)"><path d="M206.01,940.082l-13.817,8.025-1.693-.957,13.817-8.05Z" transform="translate(-190.5 -939.1)" fill="#afbdc4"/></g><g transform="translate(24.689 20.615)"><path d="M244.816,975.082l-9.547,5.547-1.669-.982,9.522-5.546Z" transform="translate(-233.6 -974.1)" fill="#afbdc4"/></g><g transform="translate(40.567 16.296)"><path d="M308.141,957.482l-8.148,4.737-1.693-.982,8.148-4.737Z" transform="translate(-298.3 -956.5)" fill="#afbdc4"/></g><g transform="translate(37.033 14.259)"><path d="M293.741,949.157l-8.148,4.737-1.693-.957,8.148-4.737Z" transform="translate(-283.9 -948.2)" fill="#afbdc4"/></g><g transform="translate(28.223 24.296)"><path d="M256.393,990.082l-6.724,3.9L248,993l6.7-3.9Z" transform="translate(-248 -989.1)" fill="#afbdc4"/></g><g transform="translate(35.266 27.806)"><path d="M286.075,1004.382l-7.682,4.467-1.693-.982,7.706-4.466Z" transform="translate(-276.7 -1003.4)" fill="#afbdc4"/></g><g transform="translate(42.334 34.162)"><path d="M310.973,1030.282l-3.779,2.184-1.693-.957,3.779-2.209Z" transform="translate(-305.5 -1029.3)" fill="#afbdc4"/></g><g transform="translate(58.336 33.696)"><path d="M386.922,1028.357l-14.553,8.467-1.669-.982,14.529-8.442Z" transform="translate(-370.7 -1027.4)" fill="#afbdc4"/></g><g transform="translate(56.937 32.91)"><path d="M374.179,1025.157l-7.485,4.344-1.693-.957,7.485-4.344Z" transform="translate(-365 -1024.2)" fill="#afbdc4"/></g><g transform="translate(60.323 34.849)"><path d="M386.113,1033.082l-5.62,3.264-1.693-.957,5.62-3.289Z" transform="translate(-378.8 -1032.1)" fill="#afbdc4"/></g><g transform="translate(48.102 27.781)"><path d="M347.75,1003.447,329.27,1014.2l-.27-.147,18.48-10.749Z" transform="translate(-329 -1003.3)" fill="#afbdc4"/></g><g transform="translate(47.832 29.205)"><path d="M336.416,1010.082l-6.823,3.951-1.693-.982,6.823-3.951Z" transform="translate(-327.9 -1009.1)" fill="#afbdc4"/></g><g transform="translate(38.8 26.284)"><path d="M306.61,998.182l-13.817,8.025-1.693-.982,13.817-8.025Z" transform="translate(-291.1 -997.2)" fill="#afbdc4"/></g><g transform="translate(31.732 25.057)"><path d="M272.9,993.182l-8.909,5.178-1.693-.982,8.909-5.178Z" transform="translate(-262.3 -992.2)" fill="#afbdc4"/></g><g transform="translate(10.946)"><path d="M188.84,891.082l-9.547,5.522-1.693-.957,9.547-5.546Z" transform="translate(-177.6 -890.1)" fill="#afbdc4"/></g><g transform="translate(3.509 11.535)"><path d="M153.141,938.082l-4.148,2.405-1.693-.982,4.148-2.405Z" transform="translate(-147.3 -937.1)" fill="#afbdc4"/></g><g transform="translate(7.043 10.823)"><path d="M172.3,935.157l-8.909,5.178-1.693-.982,8.909-5.154Z" transform="translate(-161.7 -934.2)" fill="#afbdc4"/></g><g transform="translate(0 7.166)"><path d="M142.817,920.282l-8.148,4.737L133,924.036l8.148-4.737Z" transform="translate(-133 -919.3)" fill="#afbdc4"/></g><g transform="translate(34.358 10.185)"><path d="M278.473,932.582l-3.779,2.209L273,933.809l3.779-2.209Z" transform="translate(-273 -931.6)" fill="#afbdc4"/></g></g><path d="M94.177,829.5,70.2,843.881l6.8,7.485,25.867-12.688Z" transform="translate(-68.237 -828.347)" fill="#fff" opacity="0.5"/><path d="M439.467,1043.408,416.4,1057.642l-10.8-2.258,26.235-12.884Z" transform="translate(-321.324 -989.073)" fill="#fff" opacity="0.5"/></g></svg>