<svg xmlns="http://www.w3.org/2000/svg" width="137.011" height="24.83" viewBox="0 0 137.011 24.83"><g style="isolation:isolate"><g style="isolation:isolate"><path d="M7.71,24.78a4,4,0,0,1-3.25-1.23,6,6,0,0,1-1-3.9V10.89H0v-1H3.42V5H4.56V9.9h5.52v1H4.56v8.25a6.42,6.42,0,0,0,.73,3.58,2.88,2.88,0,0,0,2.54,1,5.61,5.61,0,0,0,1.53-.24,6,6,0,0,0,1.44-.6l.21,1a5.18,5.18,0,0,1-1.53.63,7.09,7.09,0,0,1-1.77.26Z" fill="#cd79b0"/><path d="M14.94,9.9h1.11v3.24A5.38,5.38,0,0,1,18,10.58a5.28,5.28,0,0,1,3.06-.89,3.88,3.88,0,0,1,1.53.24L22.5,11a6.11,6.11,0,0,0-1.62-.24,4.05,4.05,0,0,0-3.53,1.86,9,9,0,0,0-1.27,5.13V24.3H14.94Z" fill="#cd79b0"/><path d="M32.28,24.78a7.26,7.26,0,0,1-3.7-1,7.05,7.05,0,0,1-2.67-2.72,7.8,7.8,0,0,1-1-4,8,8,0,0,1,.93-3.81,7.39,7.39,0,0,1,2.63-2.81,7.08,7.08,0,0,1,3.82-1.06,7.19,7.19,0,0,1,6.38,3.67,8,8,0,0,1,1,4,8,8,0,0,1-.93,3.81,7.36,7.36,0,0,1-2.63,2.8A7,7,0,0,1,32.28,24.78Zm0-1a6,6,0,0,0,5.37-3.18,7.11,7.11,0,0,0,.84-3.48,7.46,7.46,0,0,0-.76-3.35,6.2,6.2,0,0,0-2.19-2.41,6.35,6.35,0,0,0-6.38-.08,6.09,6.09,0,0,0-2.25,2.36,7.11,7.11,0,0,0-.84,3.48,7.39,7.39,0,0,0,.76,3.34,6,6,0,0,0,5.45,3.32Z" fill="#cd79b0"/><path d="M51.36,24.72a8.21,8.21,0,0,1-3.93-.93,6.77,6.77,0,0,1-2.74-2.67,7.8,7.8,0,0,1-1-4,8,8,0,0,1,.93-3.83,7.14,7.14,0,0,1,2.67-2.76,7.63,7.63,0,0,1,3.93-1,9,9,0,0,1,4.53,1l-.21,1.05a8.24,8.24,0,0,0-4.32-1.08,6.49,6.49,0,0,0-3.24.81,5.89,5.89,0,0,0-2.28,2.31,7,7,0,0,0-.84,3.48,7,7,0,0,0,.8,3.4,5.75,5.75,0,0,0,2.27,2.34,6.71,6.71,0,0,0,3.44.86,9,9,0,0,0,2.44-.33,7.7,7.7,0,0,0,2.12-.93l.18,1a7.1,7.1,0,0,1-2.19.94,9.85,9.85,0,0,1-2.56.34Z" fill="#cd79b0"/><path d="M66.78,24.78a7.3,7.3,0,0,1-3.71-1A7.19,7.19,0,0,1,60.4,21.1a7.89,7.89,0,0,1-1-4,8,8,0,0,1,.93-3.81A7.44,7.44,0,0,1,63,10.48a7.14,7.14,0,0,1,3.83-1.06,7.26,7.26,0,0,1,3.7,1,7.1,7.1,0,0,1,2.67,2.71,7.94,7.94,0,0,1,1,4,8,8,0,0,1-.93,3.81,7.36,7.36,0,0,1-2.63,2.8,7,7,0,0,1-3.86,1.04Zm0-1a6,6,0,0,0,5.37-3.18A7.11,7.11,0,0,0,73,17.1a7.34,7.34,0,0,0-.77-3.35,6.084,6.084,0,0,0-5.48-3.31,5.95,5.95,0,0,0-5.37,3.18,7.11,7.11,0,0,0-.84,3.48,7.26,7.26,0,0,0,.76,3.34,6,6,0,0,0,5.45,3.32Z" fill="#cd79b0"/></g></g><circle cx="8.26" cy="8.26" r="8.26" transform="translate(58.4 8.3)" fill="#e19bc4"/><ellipse cx="7.99" cy="7.92" rx="7.99" ry="7.92" transform="translate(58.4 8.99)" fill="#cd79b0"/><rect width="2.98" height="4.55" rx="1.49" transform="translate(62.15 14.27)" fill="#a3438a"/><rect width="2.98" height="4.55" rx="1.49" transform="translate(67.93 14.27)" fill="#a3438a"/><g style="isolation:isolate"><g style="isolation:isolate"><path d="M84.71,24.78a4,4,0,0,1-3.26-1.23,6.07,6.07,0,0,1-1-3.9V10.89H77v-1h3.42V5h1.14V9.9h5.52v1H81.56v8.25a6.42,6.42,0,0,0,.73,3.58,2.88,2.88,0,0,0,2.54,1,5.61,5.61,0,0,0,1.53-.24,6,6,0,0,0,1.44-.6l.21,1a5.18,5.18,0,0,1-1.53.63A7.09,7.09,0,0,1,84.71,24.78Z" fill="#414b6a"/><path d="M98.57,24.78a8.68,8.68,0,0,1-4-.91,6.81,6.81,0,0,1-2.75-2.65,7.73,7.73,0,0,1-1-4,8.65,8.65,0,0,1,.87-3.89,7.11,7.11,0,0,1,2.48-2.82,6.48,6.48,0,0,1,3.64-1.06,6.09,6.09,0,0,1,3.18.84,5.94,5.94,0,0,1,2.22,2.38,7.63,7.63,0,0,1,.81,3.59,6.22,6.22,0,0,1-.09,1h-12A6.48,6.48,0,0,0,93.78,22a6.76,6.76,0,0,0,4.88,1.74,9.73,9.73,0,0,0,4.83-1.26l.21,1a8.4,8.4,0,0,1-2.34.91,11.47,11.47,0,0,1-2.79.39ZM103,16.32a7.11,7.11,0,0,0-.63-3.05,4.92,4.92,0,0,0-1.83-2.1,5.16,5.16,0,0,0-2.79-.76,5.26,5.26,0,0,0-2.68.73,6,6,0,0,0-2.08,2.09,7.27,7.27,0,0,0-1,3.09Z" fill="#414b6a"/><path d="M115.85,24.72a8.21,8.21,0,0,1-3.93-.93,6.77,6.77,0,0,1-2.74-2.67,7.8,7.8,0,0,1-1-4,8,8,0,0,1,.93-3.83,7.14,7.14,0,0,1,2.67-2.76,7.63,7.63,0,0,1,3.93-1,9,9,0,0,1,4.53,1L120,11.58a8.24,8.24,0,0,0-4.32-1.08,6.49,6.49,0,0,0-3.24.81,5.89,5.89,0,0,0-2.28,2.31,7,7,0,0,0-.84,3.48,7.08,7.08,0,0,0,.79,3.4,5.83,5.83,0,0,0,2.28,2.34,6.68,6.68,0,0,0,3.44.86,9,9,0,0,0,2.44-.33,7.7,7.7,0,0,0,2.12-.93l.18,1a7.1,7.1,0,0,1-2.19.94,9.85,9.85,0,0,1-2.53.34Z" fill="#414b6a"/><path d="M125,0h1.14V12.63a5.5,5.5,0,0,1,2.16-2.4,6.28,6.28,0,0,1,3.24-.81,5.11,5.11,0,0,1,4,1.63A6.63,6.63,0,0,1,137,15.6v8.7h-1.14V15.75q0-5.31-4.53-5.31a4.78,4.78,0,0,0-3.8,1.66,6.58,6.58,0,0,0-1.42,4.43V24.3H125Z" fill="#414b6a"/></g></g></svg>